<?xml version="1.0" encoding="UTF-8" standalone="no"?>
<svg xmlns:dc="http://purl.org/dc/elements/1.1/"
    xmlns:cc="http://creativecommons.org/ns#"
    xmlns:rdf="http://www.w3.org/1999/02/22-rdf-syntax-ns#"
    xmlns:svg="http://www.w3.org/2000/svg"
    xmlns="http://www.w3.org/2000/svg"
    xmlns:xlink="http://www.w3.org/1999/xlink"
    xmlns:sodipodi="http://sodipodi.sourceforge.net/DTD/sodipodi-0.dtd"
    xmlns:inkscape="http://www.inkscape.org/namespaces/inkscape" height="480" width="800" version="1.1" id="svg3095" inkscape:version="0.92.3 (2405546, 2018-03-11)" sodipodi:docname="weather-script-preprocess_temps.svg">
    <rect width="800" height="480" id="rect3855" fill="white" />
    <metadata id="metadata3203">
        <rdf:RDF>
            <cc:Work rdf:about="">
                <dc:format>image/svg+xml</dc:format>
                <dc:type rdf:resource="http://purl.org/dc/dcmitype/StillImage" />
                <dc:title />
            </cc:Work>
        </rdf:RDF>
    </metadata>
    <sodipodi:namedview pagecolor="#ffffff" bordercolor="#666666" borderopacity="1" objecttolerance="10" gridtolerance="10" guidetolerance="10" inkscape:pageopacity="0" inkscape:pageshadow="2" inkscape:window-width="2498" inkscape:window-height="1379" id="namedview3201" showgrid="false" inkscape:zoom="0.945" inkscape:cx="334.47814" inkscape:cy="189.13584" inkscape:window-x="62" inkscape:window-y="27" inkscape:window-maximized="1" inkscape:current-layer="svg3095" />
    <defs id="weather-icons">
        
       



        <g id="climacell_mostly_clear_day" transform="scale(4.4)">
            <path fill-rule="evenodd" clip-rule="evenodd" d="M11.3215,3.5328L11.3215,3.5328c-0.2551,0.1057-0.5476-0.0155-0.6533-0.2706
                L9.9028,1.4145c-0.1057-0.2551,0.0155-0.5476,0.2706-0.6533l0,0c0.2551-0.1057,0.5476,0.0155,0.6533,0.2706l0.7654,1.8478
                C11.6977,3.1347,11.5766,3.4272,11.3215,3.5328z"/>
            <path fill-rule="evenodd" clip-rule="evenodd" d="M23.239,6.1732L23.239,6.1732c0.1057,0.2551-0.0155,0.5476-0.2706,0.6533
                l-1.8478,0.7654c-0.2551,0.1057-0.5476-0.0155-0.6533-0.2706v0c-0.1057-0.2551,0.0155-0.5476,0.2706-0.6533l1.8478-0.7654
                C22.8409,5.7969,23.1334,5.918,23.239,6.1732z"/>
            <path fill-rule="evenodd" clip-rule="evenodd" d="M16.679,3.5328L16.679,3.5328c-0.2551-0.1057-0.3763-0.3982-0.2706-0.6533
                l0.7654-1.8478c0.1057-0.2551,0.3982-0.3763,0.6533-0.2706l0,0c0.2551,0.1057,0.3763,0.3982,0.2706,0.6533l-0.7654,1.8478
                C17.2266,3.5174,16.9342,3.6385,16.679,3.5328z"/>
            <path fill-rule="evenodd" clip-rule="evenodd" d="M7.5331,7.3212L7.5331,7.3212C7.4274,7.5763,7.1349,7.6975,6.8798,7.5918
                L5.0321,6.8264C4.7769,6.7208,4.6558,6.4283,4.7615,6.1732l0,0C4.8671,5.918,5.1596,5.7969,5.4147,5.9026l1.8478,0.7654
                C7.5176,6.7736,7.6388,7.0661,7.5331,7.3212z"/>
            <path fill-rule="evenodd" clip-rule="evenodd" d="M23.239,13.8268L23.239,13.8268c-0.1057,0.2551-0.3982,0.3763-0.6533,0.2706
                l-1.8478-0.7654c-0.2551-0.1057-0.3763-0.3982-0.2706-0.6533v0c0.1057-0.2551,0.3982-0.3763,0.6533-0.2706l1.8478,0.7654
                C23.2236,13.2792,23.3447,13.5717,23.239,13.8268z"/>
            <path fill-rule="evenodd" clip-rule="evenodd" d="M11.3214,3.5329L11.3214,3.5329c-0.2551,0.1057-0.5476-0.0155-0.6533-0.2706
                L9.9027,1.4145C9.797,1.1594,9.9182,0.8669,10.1733,0.7613l0,0c0.2551-0.1057,0.5476,0.0155,0.6533,0.2706l0.7654,1.8478
                C11.6976,3.1347,11.5765,3.4272,11.3214,3.5329z"/>
            <path fill-rule="evenodd" clip-rule="evenodd" d="M23.2389,6.1732L23.2389,6.1732c0.1057,0.2551-0.0155,0.5476-0.2706,0.6533
                l-1.8478,0.7654c-0.2551,0.1057-0.5476-0.0155-0.6533-0.2706v0c-0.1057-0.2551,0.0155-0.5476,0.2706-0.6533l1.8478-0.7654
                C22.8408,5.7969,23.1333,5.9181,23.2389,6.1732z"/>
            <path fill-rule="evenodd" clip-rule="evenodd" d="M16.6789,3.5329L16.6789,3.5329c-0.2551-0.1057-0.3763-0.3982-0.2706-0.6533
                l0.7654-1.8478c0.1057-0.2551,0.3982-0.3763,0.6533-0.2706l0,0c0.2551,0.1057,0.3763,0.3982,0.2706,0.6533l-0.7654,1.8478
                C17.2265,3.5174,16.934,3.6386,16.6789,3.5329z"/>
            <path fill-rule="evenodd" clip-rule="evenodd" d="M7.533,7.3213L7.533,7.3213C7.4273,7.5764,7.1348,7.6975,6.8797,7.5919
                L5.0319,6.8265C4.7768,6.7208,4.6557,6.4283,4.7613,6.1732l0,0C4.867,5.9181,5.1595,5.7969,5.4146,5.9026L7.2624,6.668
                C7.5175,6.7737,7.6387,7.0661,7.533,7.3213z"/>
            <rect x="0.0002" fill="none" width="24" height="24"/>
            <path fill-rule="evenodd" clip-rule="evenodd" d="M9.0005,9.5004c0.0168,0,0.0327,0.004,0.0494,0.0042
                C9.303,6.9828,11.4127,5,13.9999,5c2.7568,0,5,2.2432,5,5c0,2.2724-1.5334,4.1741-3.613,4.7798l0.0052,0.0213l0.3789,0.0117
                c0.4835,0.0154,0.9387,0.1255,1.3593,0.299c1.7192-1.0551,2.87-2.9467,2.87-5.1118c0-3.3137-2.6863-6-6-6
                c-3.1727,0-5.7635,2.4643-5.9789,5.5823C8.3416,9.5336,8.6668,9.5004,9.0005,9.5004z"/>
            <path d="M9,10.0003c2.7609,0,5.1526,1.8724,5.8163,4.5533l0.182,0.7352l0.7571,0.024C17.5748,15.3704,19,16.8364,19,18.6503
                c0,1.8472-1.5028,3.35-3.35,3.35H3.25c-1.2406,0-2.25-1.0093-2.25-2.25c0-0.921,0.5547-1.7391,1.4131-2.0842l0.6992-0.2811
                l-0.0775-0.7496C3.0114,16.4094,3,16.2017,3,16.0003C3,12.6919,5.6917,10.0003,9,10.0003 M9,9.0003c-3.866,0-7,3.133-7,7
                c0,0.25,0.015,0.496,0.04,0.738c-1.194,0.48-2.04,1.645-2.04,3.012c0,1.794,1.4551,3.25,3.25,3.25h12.4
                c2.403,0,4.35-1.948,4.35-4.35c0-2.356-1.875-4.263-4.213-4.337C15.032,11.2633,12.2841,9.0003,9,9.0003L9,9.0003z"/>
        </g>


        <g id="climacell_mostly_clear_night" transform="scale(4.4)">
            <path fill-rule="evenodd" clip-rule="evenodd" d="M17.3018,12.4331l0.0908,0.3677l0.3789,0.0117
                c0.2974,0.0095,0.5818,0.0594,0.8574,0.1309c1.8618-0.4913,3.3795-1.8293,4.0901-3.5908
                c-0.4448,0.1034-0.9082,0.1583-1.3844,0.1583c-3.3574,0-6.0792-2.7217-6.0792-6.0792c0-0.8036,0.156-1.571,0.4392-2.2733
                C13.0043,1.785,11,4.1981,11,7.0791c0,0.1427,0.0117,0.2824,0.0214,0.4227C14.0034,7.5117,16.5847,9.5358,17.3018,12.4331z"/>
            <path d="M10.9998,8.0002c2.7609,0,5.1527,1.8724,5.8164,4.5533l0.182,0.7351l0.757,0.024
                c1.8195,0.0577,3.2446,1.5237,3.2446,3.3376c0,1.8472-1.5028,3.35-3.35,3.35h-12.4c-1.2406,0-2.25-1.0094-2.25-2.2501
                c0-0.921,0.5547-1.7391,1.4131-2.0842l0.6992-0.2811l-0.0775-0.7496c-0.0234-0.2259-0.0348-0.4337-0.0348-0.6351
                C4.9998,10.6919,7.6914,8.0002,10.9998,8.0002 M10.9998,7.0002c-3.866,0-7,3.1331-7,7.0001c0,0.2501,0.015,0.496,0.04,0.738
                c-1.194,0.48-2.04,1.6451-2.04,3.012c0,1.794,1.4551,3.2501,3.25,3.2501h12.4c2.403,0,4.35-1.9481,4.35-4.35
                c0-2.3561-1.875-4.263-4.2129-4.3372C17.0317,9.2633,14.2838,7.0002,10.9998,7.0002L10.9998,7.0002z"/>
        </g>

        <g id="climacell_mostly_cloudy" transform="scale(4.4)">
            <path d="M10.9998,6.0003c2.7609,0,5.1527,1.8724,5.8164,4.5533l0.182,0.7352l0.7571,0.024
                c1.8193,0.0576,3.2445,1.5236,3.2445,3.3375c0,1.8472-1.5028,3.35-3.35,3.35h-12.4c-1.2406,0-2.25-1.0093-2.25-2.2499
                c0-0.921,0.5547-1.7391,1.4131-2.0842l0.6991-0.2811l-0.0774-0.7496c-0.0234-0.2261-0.0348-0.4339-0.0348-0.6351
                C4.9998,8.6919,7.6914,6.0003,10.9998,6.0003 M10.9998,5.0003c-3.866,0-7,3.133-7,7.0001c0,0.2499,0.015,0.4958,0.04,0.738
                c-1.194,0.48-2.04,1.6449-2.04,3.012c0,1.794,1.4551,3.2499,3.25,3.2499h12.4c2.403,0,4.35-1.9479,4.35-4.35
                c0-2.3559-1.875-4.263-4.2129-4.337C17.0317,7.2634,14.2838,5.0003,10.9998,5.0003L10.9998,5.0003z"/>
        </g>

        <g id="climacell_partly_cloudy_day" transform="scale(4.4)">
            <rect fill="none" width="24" height="24"/>
            <path fill-rule="evenodd" clip-rule="evenodd" d="M13.5633,6.5883C14.1184,6.2178,14.7838,6,15.4996,6c1.9297,0,3.5,1.5703,3.5,3.5
                c0,0.657-0.1931,1.2654-0.5095,1.7914c0.2981,0.1616,0.5735,0.3554,0.8163,0.5865C19.7392,11.1865,20,10.3759,20,9.4999
                c0-2.4852-2.0148-4.5-4.5-4.5c-1.1035,0-2.101,0.4127-2.8838,1.072C12.9476,6.2183,13.2628,6.3901,13.5633,6.5883z"/>
            <path d="M9.9998,6.0003c2.7609,0,5.1526,1.8724,5.8163,4.5533l0.182,0.7352l0.7571,0.024
                c1.8195,0.0576,3.2446,1.5235,3.2446,3.3374c0,1.8472-1.5028,3.35-3.35,3.35h-12.4c-1.2406,0-2.25-1.0093-2.25-2.2499
                c0-0.921,0.5547-1.7391,1.4131-2.0841l0.6991-0.2811l-0.0774-0.7496c-0.0234-0.2261-0.0348-0.4339-0.0348-0.6352
                C3.9998,8.6919,6.6914,6.0003,9.9998,6.0003 M9.9998,5.0003c-3.866,0-7,3.1331-7,7c0,0.2499,0.015,0.4959,0.04,0.738
                c-1.194,0.48-2.04,1.6448-2.04,3.012c0,1.794,1.4551,3.2499,3.25,3.2499h12.4c2.403,0,4.35-1.9479,4.35-4.35
                c0-2.3559-1.875-4.2629-4.213-4.3369C16.0317,7.2633,13.2838,5.0003,9.9998,5.0003L9.9998,5.0003z"/>
            <g>
                <path d="M13.1562,4.3413c-0.1963,0-0.3818-0.1162-0.4619-0.3086L12.1201,2.647c-0.1055-0.2549,0.0156-0.5474,0.2705-0.6533
                    c0.2529-0.1045,0.5469,0.0151,0.6533,0.2705l0.5742,1.3857c0.1055,0.2549-0.0156,0.5474-0.2705,0.6533
                    C13.2852,4.3291,13.2207,4.3413,13.1562,4.3413z"/>
            </g>
            <g>
                <path d="M21.1582,7.6558c-0.1963,0-0.3818-0.1162-0.4619-0.3091c-0.1055-0.2549,0.0156-0.5474,0.2705-0.6528l1.3867-0.5737
                    c0.2578-0.105,0.5479,0.0161,0.6533,0.271s-0.0156,0.5474-0.2705,0.6528l-1.3867,0.5737
                    C21.2871,7.6436,21.2217,7.6558,21.1582,7.6558z"/>
            </g>
            <g>
                <path d="M17.8438,4.3413c-0.0645,0-0.1289-0.0122-0.1914-0.0381c-0.2549-0.106-0.376-0.3984-0.2705-0.6533l0.5742-1.3857
                    c0.1064-0.2554,0.4004-0.375,0.6533-0.2705c0.2549,0.106,0.376,0.3984,0.2705,0.6533l-0.5742,1.3857
                    C18.2256,4.2251,18.04,4.3413,17.8438,4.3413z"/>
            </g>
            <g>
                <path d="M22.5449,12.918c-0.0635,0-0.1289-0.0122-0.1914-0.0381l-1.3867-0.5742c-0.2549-0.1055-0.376-0.3979-0.2705-0.6533
                    c0.1064-0.2544,0.3975-0.3765,0.6533-0.2705l1.3867,0.5742c0.2549,0.1055,0.376,0.3979,0.2705,0.6533
                    C22.9268,12.8018,22.7412,12.918,22.5449,12.918z"/>
            </g>
        </g>

        <g id="climacell_partly_cloudy_night" transform="scale(4.4)">
            <path fill-rule="evenodd" clip-rule="evenodd" d="M17.3018,10.4336l0.0908,0.3677l0.3789,0.0117
                c0.4255,0.0135,0.8248,0.1093,1.2029,0.2466c1.3015-0.1574,2.3879-1.0129,2.8618-2.1874
                c-0.2594,0.0605-0.5298,0.0925-0.8076,0.0925c-1.9585,0-3.5463-1.5878-3.5463-3.5462c0-0.4689,0.0909-0.9164,0.256-1.326
                c-1.3716,0.3194-2.4368,1.4349-2.6837,2.8329C16.1385,7.7931,16.9482,9.0055,17.3018,10.4336z"/>
            <path d="M10.9998,6.0003c2.7609,0,5.1527,1.8724,5.8164,4.5533l0.182,0.7352l0.7571,0.024
                c1.8193,0.0576,3.2445,1.5236,3.2445,3.3375c0,1.8472-1.5028,3.35-3.35,3.35h-12.4c-1.2406,0-2.25-1.0093-2.25-2.2499
                c0-0.921,0.5547-1.7391,1.4131-2.0842l0.6991-0.2811l-0.0774-0.7496c-0.0234-0.2261-0.0348-0.4339-0.0348-0.6351
                C4.9998,8.6919,7.6914,6.0003,10.9998,6.0003 M10.9998,5.0003c-3.866,0-7,3.1331-7,7.0001c0,0.2499,0.015,0.4958,0.04,0.738
                c-1.194,0.48-2.04,1.6449-2.04,3.012c0,1.794,1.4551,3.2499,3.25,3.2499h12.4c2.403,0,4.35-1.9479,4.35-4.35
                c0-2.3559-1.875-4.263-4.2129-4.337C17.0317,7.2634,14.2838,5.0003,10.9998,5.0003L10.9998,5.0003z"/>
        </g>

        <g id="climacell_rain" transform="scale(4.4)">
            <rect fill-rule="evenodd" clip-rule="evenodd" fill="none" width="24" height="24"/>
            <g>
                <path d="M10.9998,3c2.761,0,5.1527,1.8724,5.8163,4.5533l0.182,0.7353l0.7571,0.024c1.8195,0.0576,3.2446,1.5236,3.2446,3.3375
                c0,1.8472-1.5028,3.35-3.35,3.35h-12.4c-1.2406,0-2.25-1.0094-2.25-2.25c0-0.921,0.5547-1.7391,1.4131-2.0842l0.6992-0.2811
                L5.0345,9.6351C5.0111,9.4091,4.9998,9.2014,4.9998,9C4.9998,5.6916,7.6914,3,10.9998,3 M10.9998,2c-3.866,0-7,3.133-7,7
                c0,0.25,0.015,0.496,0.04,0.738c-1.194,0.48-2.04,1.645-2.04,3.012c0,1.794,1.4551,3.25,3.25,3.25h12.4
                c2.4031,0,4.35-1.948,4.35-4.35c0-2.356-1.875-4.263-4.213-4.337C17.0319,4.263,14.2838,2,10.9998,2L10.9998,2z"/>
            </g>
            <path fill-rule="evenodd" clip-rule="evenodd" d="M11.5342,19.04c-0.0645,0-0.1289-0.0122-0.1914-0.0381
            c-0.2549-0.1055-0.376-0.3984-0.2705-0.6533l0.4785-1.1548c0.1064-0.2559,0.4014-0.375,0.6533-0.2705
            c0.2549,0.1055,0.376,0.3984,0.2705,0.6533l-0.4785,1.1548C11.916,18.9238,11.7305,19.04,11.5342,19.04z M8.2598,18.7314
            l0.4785-1.1548c0.1055-0.2549-0.0156-0.5479-0.2705-0.6533c-0.2529-0.1045-0.5469,0.0146-0.6533,0.2705l-0.4785,1.1548
            c-0.1055,0.2549,0.0156,0.5479,0.2705,0.6533c0.0625,0.0259,0.127,0.0381,0.1914,0.0381C7.9941,19.04,8.1797,18.9238,8.2598,18.7314
            z M9.4062,21.6021l0.4785-1.1548c0.1055-0.2549-0.0156-0.5479-0.2705-0.6533c-0.2539-0.105-0.5469,0.0151-0.6533,0.2705
            l-0.4785,1.1548c-0.1055,0.2549,0.0156,0.5479,0.2705,0.6533c0.0625,0.0259,0.127,0.0381,0.1914,0.0381
            C9.1406,21.9106,9.3262,21.7944,9.4062,21.6021z M5.6631,21.6016l0.4775-1.1548c0.1055-0.2549-0.0156-0.5474-0.2705-0.6528
            c-0.2549-0.106-0.5488,0.0156-0.6533,0.271l-0.4775,1.1548c-0.1055,0.2549,0.0156,0.5474,0.2705,0.6528
            c0.0625,0.0259,0.1279,0.0381,0.1914,0.0381C5.3975,21.9106,5.584,21.7944,5.6631,21.6016z M4.5244,18.7314l0.4785-1.1553
            c0.1055-0.2554-0.0156-0.5479-0.2705-0.6533c-0.2559-0.1064-0.5469,0.0156-0.6533,0.2705l-0.4785,1.1553
            c-0.1055,0.2554,0.0156,0.5479,0.2705,0.6533C3.9336,19.0278,3.999,19.04,4.0625,19.04C4.2588,19.04,4.4443,18.9238,4.5244,18.7314z
            M19.4678,18.7314l0.4785-1.1548c0.1055-0.2549-0.0156-0.5479-0.2705-0.6533c-0.2529-0.1045-0.5469,0.0146-0.6533,0.2705
            l-0.4785,1.1548c-0.1055,0.2549,0.0156,0.5479,0.2705,0.6533c0.0625,0.0259,0.127,0.0381,0.1914,0.0381
            C19.2021,19.04,19.3877,18.9238,19.4678,18.7314z M15.7314,18.7314l0.4785-1.1548c0.1055-0.2549-0.0156-0.5479-0.2705-0.6533
            c-0.252-0.1045-0.5469,0.0146-0.6533,0.2705l-0.4785,1.1548c-0.1055,0.2549,0.0156,0.5479,0.2705,0.6533
            c0.0625,0.0259,0.127,0.0381,0.1914,0.0381C15.4658,19.04,15.6514,18.9238,15.7314,18.7314z M16.8945,21.6016l0.4775-1.1548
            c0.1055-0.2549-0.0156-0.5474-0.2705-0.6528c-0.2549-0.106-0.5479,0.0156-0.6533,0.271l-0.4775,1.1548
            c-0.1055,0.2549,0.0156,0.5474,0.2705,0.6528c0.0625,0.0259,0.1279,0.0381,0.1914,0.0381
            C16.6289,21.9106,16.8154,21.7944,16.8945,21.6016z M13.1504,21.6021l0.4785-1.1548c0.1055-0.2549-0.0156-0.5479-0.2705-0.6533
            c-0.2529-0.105-0.5469,0.0151-0.6533,0.2705l-0.4785,1.1548c-0.1055,0.2549,0.0156,0.5479,0.2705,0.6533
            c0.0625,0.0259,0.127,0.0381,0.1914,0.0381C12.8848,21.9106,13.0703,21.7944,13.1504,21.6021z"/>
        </g>


        <g id="climacell_rain_heavy" transform="scale(4.4)">
            <rect fill="none" width="24" height="24"/>
            <path fill-rule="evenodd" clip-rule="evenodd" d="M17.2613,22.1666L17.2613,22.1666c-0.2552-0.1059-0.3764-0.3983-0.2705-0.6535
            l1.6271-3.9261c0.1057-0.2552,0.3981-0.3764,0.6535-0.2707c0.2552,0.1059,0.3762,0.3985,0.2705,0.6536l-1.6271,3.9261
            C17.8091,22.1513,17.5163,22.2723,17.2613,22.1666 M2.9718,21.897l1.6271-3.9259c0.1057-0.2552-0.0154-0.5478-0.2705-0.6535
            c-0.2552-0.1057-0.5478,0.0153-0.6535,0.2705l-1.6271,3.9261c-0.1059,0.2552,0.0154,0.5478,0.2705,0.6535
            S2.8661,22.1524,2.9718,21.897 M6.7075,21.8968l1.6271-3.9261c0.1057-0.2552-0.0154-0.5478-0.2705-0.6535
            c-0.2552-0.1057-0.5478,0.0154-0.6535,0.2705l-1.6271,3.9263c-0.1057,0.2552,0.0154,0.5476,0.2705,0.6535
            C6.3092,22.2731,6.6018,22.1522,6.7075,21.8968 M10.4432,21.8965l1.6271-3.9261c0.1059-0.255-0.0154-0.5476-0.2705-0.6533
            c-0.2552-0.1059-0.5478,0.0154-0.6535,0.2705l-1.6271,3.9261c-0.1057,0.2552,0.0154,0.5478,0.2705,0.6535
            S10.3375,22.1518,10.4432,21.8965 M14.1789,21.8965l1.6272-3.9263c0.1057-0.2552-0.0155-0.5478-0.2705-0.6535
            c-0.2554-0.1057-0.5479,0.0153-0.6535,0.2705l-1.6272,3.9263c-0.1057,0.255,0.0155,0.5476,0.2705,0.6535
            C13.7806,22.2725,14.0734,22.1515,14.1789,21.8965 M16.0469,21.8963l0.3432-0.8289c0.1059-0.2552-0.0152-0.5476-0.2705-0.6535
            c-0.2552-0.1057-0.5476,0.0155-0.6535,0.2705l-0.3432,0.8289c-0.1059,0.2552,0.0154,0.5476,0.2705,0.6535
            C15.6486,22.2723,15.9412,22.1513,16.0469,21.8963 M12.3112,21.8965l0.3434-0.8287c0.1055-0.2552-0.0155-0.5478-0.2707-0.6535
            c-0.2552-0.1059-0.5478,0.0153-0.6535,0.2705l-0.3432,0.8289c-0.1059,0.255,0.0154,0.5476,0.2705,0.6533
            C11.9127,22.2727,12.2055,22.1516,12.3112,21.8965 M8.5753,21.8967l0.3434-0.8287c0.1057-0.255-0.0154-0.5476-0.2705-0.6535
            C8.393,20.3088,8.1004,20.43,7.9947,20.6852l-0.3434,0.8287c-0.1057,0.2552,0.0154,0.5478,0.2707,0.6535
            C8.177,22.2731,8.4696,22.152,8.5753,21.8967 M4.8396,21.8968l0.3434-0.8285c0.1057-0.2552-0.0155-0.5478-0.2707-0.6535
            c-0.255-0.1059-0.5478,0.0154-0.6535,0.2705l-0.3432,0.8289c-0.1057,0.255,0.0154,0.5476,0.2705,0.6535
            C4.4415,22.2732,4.7339,22.1522,4.8396,21.8968 M17.0603,19.4508l0.6138-1.4808c0.1055-0.2552-0.0155-0.5478-0.2707-0.6535
            c-0.2552-0.1057-0.5478,0.0155-0.6533,0.2707l-0.6138,1.4808c-0.1057,0.255,0.0155,0.5478,0.2705,0.6533
            C16.662,19.8272,16.9548,19.7059,17.0603,19.4508 M13.3246,19.4511l0.6136-1.4808c0.1059-0.2552-0.0154-0.5478-0.2705-0.6535
            c-0.2554-0.1057-0.5478,0.0153-0.6535,0.2705l-0.6136,1.4808c-0.1059,0.2552,0.0154,0.5479,0.2705,0.6535
            C12.9265,19.8275,13.2189,19.7063,13.3246,19.4511 M9.5889,19.4513l0.6136-1.4808c0.1057-0.2552-0.0154-0.5478-0.2705-0.6535
            c-0.2552-0.1057-0.5478,0.0155-0.6535,0.2705l-0.6136,1.481c-0.1059,0.255,0.0154,0.5478,0.2705,0.6535
            C9.1906,19.8277,9.4832,19.7065,9.5889,19.4513 M5.8532,19.4516l0.6136-1.4808c0.1057-0.2552-0.0155-0.5478-0.2707-0.6535
            c-0.255-0.1057-0.5478,0.0154-0.6535,0.2705l-0.6134,1.4808c-0.1057,0.2552,0.0154,0.5479,0.2705,0.6535
            C5.4549,19.8281,5.7475,19.7068,5.8532,19.4516"/>
            <g>
                <path d="M10.9994,2.9994c2.7609,0,5.1526,1.8724,5.8163,4.5533l0.182,0.7353l0.7571,0.0239
                c1.8195,0.0575,3.2446,1.5235,3.2446,3.3374c0,1.8472-1.5028,3.35-3.35,3.35h-12.4c-1.2406,0-2.25-1.0093-2.25-2.2499
                c0-0.921,0.5547-1.7391,1.4131-2.0842l0.6991-0.2811L5.0342,9.6346C5.0107,9.4085,4.9994,9.2008,4.9994,8.9995
                C4.9994,5.691,7.691,2.9994,10.9994,2.9994 M10.9994,1.9994c-3.866,0-7,3.1331-7,7.0001c0,0.2499,0.015,0.4959,0.04,0.738
                c-1.194,0.48-2.04,1.6449-2.04,3.012c0,1.794,1.4551,3.2499,3.25,3.2499h12.4c2.403,0,4.35-1.9479,4.35-4.35
                c0-2.3559-1.875-4.263-4.213-4.3369C17.0314,4.2625,14.2834,1.9994,10.9994,1.9994L10.9994,1.9994z"/>
            </g>
        </g>

        <g id="climacell_rain_light" transform="scale(4.4)">
            <rect fill="none" width="24" height="24"/>
            <path fill-rule="evenodd" clip-rule="evenodd" d="M11.5342,20.0402c-0.064,0-0.129-0.012-0.192-0.0381
            c-0.255-0.1059-0.376-0.399-0.27-0.6529l0.478-1.155c0.106-0.256,0.401-0.375,0.654-0.2711c0.255,0.1061,0.376,0.399,0.27,0.654
            l-0.478,1.1541C11.9162,19.9241,11.7302,20.0402,11.5342,20.0402 M4.5242,19.7312l0.479-1.155
            c0.105-0.255-0.016-0.5481-0.271-0.6531c-0.253-0.1059-0.547,0.015-0.653,0.27l-0.479,1.1561
            c-0.105,0.255,0.016,0.5471,0.271,0.6529c0.062,0.0261,0.127,0.0381,0.191,0.0381C4.2582,20.0402,4.4442,19.9241,4.5242,19.7312
            M19.4672,19.7312l0.479-1.1541c0.105-0.255-0.016-0.5479-0.271-0.654c-0.253-0.1039-0.547,0.015-0.653,0.2711l-0.478,1.155
            c-0.106,0.2539,0.015,0.5471,0.27,0.6529c0.063,0.0261,0.128,0.0381,0.191,0.0381C19.2012,20.0402,19.3882,19.9241,19.4672,19.7312
            M8.2602,19.7312l0.478-1.1541c0.106-0.255-0.015-0.5479-0.27-0.654c-0.253-0.1039-0.547,0.015-0.653,0.2711l-0.479,1.155
            c-0.105,0.2539,0.016,0.5471,0.271,0.6529c0.062,0.0261,0.127,0.0381,0.191,0.0381C7.9942,20.0402,8.1802,19.9241,8.2602,19.7312
            M15.7322,19.7312l0.478-1.1541c0.106-0.255-0.016-0.5479-0.27-0.654c-0.253-0.1039-0.548,0.015-0.654,0.2711l-0.478,1.155
            c-0.106,0.2539,0.015,0.5471,0.27,0.6529c0.063,0.0261,0.128,0.0381,0.192,0.0381C15.4652,20.0402,15.6522,19.9241,15.7322,19.7312" />
            <g>
                <path d="M10.9999,2.9999c2.7609,0,5.1526,1.8724,5.8163,4.5533l0.182,0.7352l0.757,0.024
                c1.8195,0.0577,3.2448,1.5237,3.2448,3.3376c0,1.8472-1.5028,3.35-3.35,3.35h-12.4c-1.2406,0-2.25-1.0094-2.25-2.2501
                c0-0.921,0.5547-1.7391,1.4131-2.0842l0.6992-0.2811L5.0347,9.6351C5.0112,9.4092,4.9999,9.2014,4.9999,9
                C4.9999,5.6916,7.6915,2.9999,10.9999,2.9999 M10.9999,1.9999c-3.866,0-7,3.1331-7,7.0001c0,0.2501,0.015,0.4961,0.04,0.738
                c-1.194,0.48-2.04,1.6451-2.04,3.012c0,1.794,1.4551,3.2501,3.25,3.2501h12.4c2.403,0,4.35-1.9481,4.35-4.35
                c0-2.356-1.875-4.263-4.213-4.3371C17.0319,4.263,14.2839,1.9999,10.9999,1.9999L10.9999,1.9999z"/>
            </g>
        </g>

        <g id="climacell_snow" transform="scale(4.4)">
            <rect x="0" y="0" fill="none" width="24" height="24"/>
            <g>
                <path d="M10.9999,2.9999c2.7609,0,5.1526,1.8724,5.8163,4.5533l0.182,0.7352l0.757,0.024
                c1.8195,0.0577,3.2448,1.5238,3.2448,3.3376c0,1.8472-1.5028,3.35-3.35,3.35h-12.4c-1.2406,0-2.25-1.0094-2.25-2.2501
                c0-0.921,0.5547-1.7391,1.4131-2.0842l0.6992-0.2811L5.0347,9.6351C5.0112,9.4092,4.9999,9.2014,4.9999,9
                C4.9999,5.6916,7.6915,2.9999,10.9999,2.9999 M10.9999,1.9999c-3.866,0-7,3.1331-7,7.0001c0,0.2501,0.015,0.4961,0.04,0.738
                c-1.194,0.48-2.04,1.6451-2.04,3.012c0,1.794,1.4551,3.2501,3.25,3.2501h12.4c2.403,0,4.35-1.9481,4.35-4.35
                c0-2.3561-1.875-4.263-4.213-4.3372C17.0319,4.263,14.2839,1.9999,10.9999,1.9999L10.9999,1.9999z"/>
            </g>
            <path d="M6.3198,19.6601l-0.8167,0.4714l0.8167,0.4714c0.2393,0.1382,0.3213,0.4438,0.1826,0.6831
            c-0.0918,0.1602-0.2607,0.25-0.4326,0.25c-0.085,0-0.1709-0.0215-0.25-0.0669l-0.8164-0.4713v0.943c0,0.2764-0.2236,0.5-0.5,0.5
            s-0.5-0.2236-0.5-0.5v-0.9435L3.186,21.4692c-0.0791,0.0454-0.165,0.0669-0.25,0.0669c-0.1719,0-0.3408-0.0898-0.4326-0.25
            c-0.1387-0.2393-0.0566-0.5449,0.1826-0.6831l0.8167-0.4714L2.686,19.6601c-0.2393-0.1382-0.3213-0.4438-0.1826-0.6831
            c0.1377-0.2388,0.4443-0.3203,0.6826-0.1831l0.8174,0.4719v-0.9435c0-0.2764,0.2236-0.5,0.5-0.5s0.5,0.2236,0.5,0.5v0.943
            l0.8164-0.4713c0.2383-0.1387,0.5449-0.0566,0.6826,0.1831C6.6411,19.2163,6.5591,19.5219,6.3198,19.6601z M21.314,20.603
            l-0.8167-0.4714l0.8167-0.4714c0.2393-0.1382,0.3213-0.4438,0.1826-0.6831c-0.1377-0.2397-0.4453-0.3218-0.6826-0.1831
            l-0.8174,0.4719v-0.9435c0-0.2764-0.2236-0.5-0.5-0.5s-0.5,0.2236-0.5,0.5v0.943l-0.8164-0.4713
            c-0.2383-0.1372-0.5449-0.0557-0.6826,0.1831c-0.1387,0.2393-0.0566,0.5449,0.1826,0.6831l0.8167,0.4714l-0.8167,0.4714
            c-0.2393,0.1382-0.3213,0.4438-0.1826,0.6831c0.0918,0.1602,0.2607,0.25,0.4326,0.25c0.085,0,0.1709-0.0215,0.25-0.0669
            l0.8164-0.4713v0.943c0,0.2764,0.2236,0.5,0.5,0.5s0.5-0.2236,0.5-0.5v-0.9435l0.8174,0.4719
            c0.0791,0.0454,0.165,0.0669,0.25,0.0669c0.1719,0,0.3408-0.0898,0.4326-0.25C21.6352,21.0468,21.5532,20.7412,21.314,20.603z
            M13.9995,18.977c-0.1377-0.2397-0.4443-0.3218-0.6826-0.1831l-0.8164,0.4713v-0.943c0-0.2764-0.2236-0.5-0.5-0.5
            s-0.5,0.2236-0.5,0.5v0.9435l-0.8174-0.4719c-0.2383-0.1372-0.5449-0.0557-0.6826,0.1831
            c-0.1387,0.2393-0.0566,0.5449,0.1826,0.6831l0.8167,0.4714l-0.8167,0.4714c-0.2393,0.1382-0.3213,0.4438-0.1826,0.6831
            c0.0918,0.1602,0.2607,0.25,0.4326,0.25c0.085,0,0.1709-0.0215,0.25-0.0669l0.8174-0.4719v0.9435c0,0.2764,0.2236,0.5,0.5,0.5
            s0.5-0.2236,0.5-0.5v-0.943l0.8164,0.4713c0.0791,0.0454,0.165,0.0669,0.25,0.0669c0.1719,0,0.3408-0.0898,0.4326-0.25
            c0.1387-0.2393,0.0566-0.5449-0.1826-0.6831l-0.8167-0.4714l0.8167-0.4714C14.0561,19.5219,14.1382,19.2163,13.9995,18.977z"/>
        </g>

        <g id="climacell_snow_heavy" transform="scale(4.4)">
            <rect x="0" y="0.0001" fill="none" width="24" height="24"/>
            <g>
                <path d="M10.9999,1c2.7609,0,5.1526,1.8724,5.8163,4.5533l0.182,0.7352l0.757,0.024c1.8195,0.0577,3.2448,1.5238,3.2448,3.3376
                c0,1.8472-1.5028,3.35-3.35,3.35h-12.4c-1.2406,0-2.25-1.0094-2.25-2.2501c0-0.921,0.5547-1.7391,1.4131-2.0842l0.6992-0.2811
                L5.0347,7.6351C5.0112,7.4092,4.9999,7.2015,4.9999,7.0001C4.9999,3.6916,7.6915,1,10.9999,1 M10.9999,0
                c-3.866,0-7,3.1331-7,7.0001c0,0.2501,0.015,0.4961,0.04,0.738c-1.194,0.48-2.04,1.6451-2.04,3.012
                c0,1.794,1.4551,3.2501,3.25,3.2501h12.4c2.403,0,4.35-1.9481,4.35-4.35c0-2.3561-1.875-4.263-4.213-4.3372
                C17.0319,2.2631,14.2839,0,10.9999,0L10.9999,0z"/>
            </g>
            <path d="M6.5029,18.2862c-0.0918,0.1602-0.2607,0.25-0.4326,0.25c-0.085,0-0.1709-0.0215-0.25-0.0669l-0.8174-0.4719v0.9435
            c0,0.2764-0.2236,0.5-0.5,0.5s-0.5-0.2236-0.5-0.5v-0.943l-0.8164,0.4713c-0.0791,0.0454-0.165,0.0669-0.25,0.0669
            c-0.1719,0-0.3408-0.0898-0.4326-0.25c-0.1387-0.2393-0.0566-0.5449,0.1826-0.6831l0.8167-0.4714l-0.8167-0.4714
            c-0.2393-0.1382-0.3213-0.4438-0.1826-0.6831c0.1377-0.2388,0.4443-0.3193,0.6826-0.1831l0.8164,0.4713v-0.943
            c0-0.2764,0.2236-0.5,0.5-0.5s0.5,0.2236,0.5,0.5v0.9435l0.8174-0.4719c0.2383-0.1377,0.5449-0.0562,0.6826,0.1831
            c0.1387,0.2393,0.0566,0.5449-0.1826,0.6831l-0.8167,0.4714l0.8167,0.4714C6.5596,17.7413,6.6416,18.0469,6.5029,18.2862z
            M21.3135,17.6031l-0.8167-0.4714l0.8167-0.4714c0.2393-0.1382,0.3213-0.4438,0.1826-0.6831
            c-0.1377-0.2393-0.4443-0.3208-0.6826-0.1831l-0.8164,0.4713v-0.943c0-0.2764-0.2236-0.5-0.5-0.5s-0.5,0.2236-0.5,0.5v0.9435
            l-0.8174-0.4719c-0.2373-0.1362-0.5449-0.0557-0.6826,0.1831c-0.1387,0.2393-0.0566,0.5449,0.1826,0.6831l0.8167,0.4714
            l-0.8167,0.4714c-0.2393,0.1382-0.3213,0.4438-0.1826,0.6831c0.0918,0.1602,0.2607,0.25,0.4326,0.25
            c0.085,0,0.1709-0.0215,0.25-0.0669l0.8174-0.4719v0.9435c0,0.2764,0.2236,0.5,0.5,0.5s0.5-0.2236,0.5-0.5v-0.943l0.8164,0.4713
            c0.0791,0.0454,0.165,0.0669,0.25,0.0669c0.1719,0,0.3408-0.0898,0.4326-0.25C21.6348,18.0469,21.5527,17.7413,21.3135,17.6031z
            M13.8164,17.6031L13,17.1317l0.8164-0.4714c0.2393-0.1382,0.3213-0.4438,0.1826-0.6831c-0.1377-0.2407-0.4443-0.3208-0.6826-0.1831
            L12.5,16.2654v-0.9431c0-0.2764-0.2236-0.5-0.5-0.5s-0.5,0.2236-0.5,0.5v0.9431l-0.8164-0.4714
            c-0.2383-0.1362-0.5449-0.0571-0.6826,0.1831c-0.1387,0.2393-0.0566,0.5449,0.1826,0.6831L11,17.1317l-0.8164,0.4714
            c-0.2393,0.1382-0.3213,0.4438-0.1826,0.6831c0.0918,0.1606,0.2607,0.25,0.4326,0.25c0.085,0,0.1709-0.0215,0.25-0.0669
            L11.5,17.9979v0.9431c0,0.2764,0.2236,0.5,0.5,0.5s0.5-0.2236,0.5-0.5v-0.9431l0.8164,0.4714
            c0.0791,0.0454,0.165,0.0669,0.25,0.0669c0.1719,0,0.3408-0.0894,0.4326-0.25C14.1377,18.0469,14.0557,17.7413,13.8164,17.6031z
            M10.251,19.8306c-0.1367-0.2397-0.4434-0.3203-0.6826-0.1831L8.752,20.1188v-0.943c0-0.2764-0.2236-0.5-0.5-0.5
            s-0.5,0.2236-0.5,0.5v0.9435l-0.8174-0.4719c-0.2383-0.1357-0.5449-0.0557-0.6826,0.1831
            c-0.1387,0.2393-0.0566,0.5449,0.1826,0.6831l0.8167,0.4714l-0.8167,0.4714c-0.2393,0.1382-0.3213,0.4438-0.1826,0.6831
            c0.0918,0.1602,0.2607,0.25,0.4326,0.25c0.085,0,0.1709-0.0215,0.25-0.0669L7.752,21.851v0.9435c0,0.2764,0.2236,0.5,0.5,0.5
            s0.5-0.2236,0.5-0.5v-0.943l0.8164,0.4713c0.0791,0.0454,0.165,0.0669,0.25,0.0669c0.1719,0,0.3408-0.0898,0.4326-0.25
            c0.1387-0.2393,0.0566-0.5449-0.1826-0.6831l-0.8167-0.4714l0.8167-0.4714C10.3076,20.3755,10.3896,20.0699,10.251,19.8306z
            M17.748,19.8306c-0.1377-0.2397-0.4434-0.3203-0.6826-0.1831l-0.8174,0.4719v-0.9435c0-0.2764-0.2236-0.5-0.5-0.5
            s-0.5,0.2236-0.5,0.5v0.943l-0.8164-0.4713c-0.2393-0.1357-0.5449-0.0557-0.6826,0.1831c-0.1387,0.2393-0.0566,0.5449,0.1826,0.6831
            l0.8167,0.4714l-0.8167,0.4714c-0.2393,0.1382-0.3213,0.4438-0.1826,0.6831c0.0918,0.1602,0.2607,0.25,0.4326,0.25
            c0.085,0,0.1709-0.0215,0.25-0.0669l0.8164-0.4713v0.943c0,0.2764,0.2236,0.5,0.5,0.5s0.5-0.2236,0.5-0.5V21.851l0.8174,0.4719
            c0.0791,0.0454,0.165,0.0669,0.25,0.0669c0.1719,0,0.3408-0.0898,0.4326-0.25c0.1387-0.2393,0.0566-0.5449-0.1826-0.6831
            l-0.8167-0.4714l0.8167-0.4714C17.8047,20.3755,17.8867,20.0699,17.748,19.8306z"/>
        </g>

        <g id="climacell_snow_light" transform="scale(4.4)">
            <rect x="0" y="0" fill="none" width="24" height="24"/>
            <g>
                <path d="M10.9999,2.9999c2.7609,0,5.1526,1.8724,5.8163,4.5533l0.182,0.7352l0.757,0.024
                c1.8195,0.0577,3.2448,1.5237,3.2448,3.3376c0,1.8472-1.5028,3.35-3.35,3.35h-12.4c-1.2406,0-2.25-1.0094-2.25-2.2501
                c0-0.921,0.5547-1.7391,1.4131-2.0842l0.6992-0.2811L5.0347,9.6351C5.0112,9.4092,4.9999,9.2015,4.9999,9
                C4.9999,5.6916,7.6915,2.9999,10.9999,2.9999 M10.9999,1.9999c-3.866,0-7,3.1331-7,7.0001c0,0.2501,0.015,0.4961,0.04,0.738
                c-1.194,0.48-2.04,1.6451-2.04,3.012c0,1.794,1.4551,3.2501,3.25,3.2501h12.4c2.403,0,4.35-1.9481,4.35-4.35
                c0-2.3561-1.875-4.263-4.213-4.3372C17.0319,4.263,14.2839,1.9999,10.9999,1.9999L10.9999,1.9999z"/>
            </g>
            <path d="M13.8164,20.603L13,20.1316l0.8164-0.4714c0.2393-0.1382,0.3213-0.4438,0.1826-0.6831
            c-0.1377-0.2407-0.4443-0.3213-0.6826-0.1831L12.5,19.2654v-0.9431c0-0.2764-0.2236-0.5-0.5-0.5s-0.5,0.2236-0.5,0.5v0.9431
            l-0.8164-0.4714c-0.2383-0.1367-0.5449-0.0566-0.6826,0.1831c-0.1387,0.2393-0.0566,0.5449,0.1826,0.6831L11,20.1316l-0.8164,0.4714
            c-0.2393,0.1382-0.3213,0.4438-0.1826,0.6831c0.0918,0.1606,0.2607,0.25,0.4326,0.25c0.085,0,0.1709-0.0215,0.25-0.0669
            L11.5,20.9978v0.9431c0,0.2764,0.2236,0.5,0.5,0.5s0.5-0.2236,0.5-0.5v-0.9431l0.8164,0.4714
            c0.0791,0.0454,0.165,0.0669,0.25,0.0669c0.1719,0,0.3408-0.0894,0.4326-0.25C14.1377,21.0469,14.0557,20.7412,13.8164,20.603z"/>
        </g>

        <g id="climacell_tstorm" transform="scale(4.4)">
            <rect fill="none" width="24" height="24"/>
            <path fill-rule="evenodd" clip-rule="evenodd" d="M16.7667,22.1674L16.7667,22.1674c-0.2552-0.1059-0.3764-0.3983-0.2705-0.6535
                l1.6271-3.9261c0.1057-0.2552,0.3981-0.3764,0.6535-0.2707c0.2552,0.1059,0.3762,0.3985,0.2705,0.6536l-1.6271,3.9261
                C17.3145,22.152,17.0217,22.2731,16.7667,22.1674 M2.9772,21.8977l1.6271-3.926c0.1057-0.2552-0.0154-0.5478-0.2705-0.6535
                c-0.2552-0.1057-0.5478,0.0154-0.6535,0.2705l-1.6271,3.9261c-0.1059,0.2552,0.0154,0.5478,0.2705,0.6535
                C2.5789,22.2741,2.8715,22.1531,2.9772,21.8977 M6.7129,21.8975l1.6271-3.9261c0.1057-0.2552-0.0154-0.5478-0.2705-0.6535
                c-0.2552-0.1057-0.5478,0.0154-0.6535,0.2705l-1.6271,3.9263c-0.1057,0.2552,0.0154,0.5476,0.2705,0.6535
                C6.3146,22.2738,6.6072,22.1529,6.7129,21.8975 M15.5522,21.897l0.3432-0.8289c0.1059-0.2552-0.0152-0.5476-0.2705-0.6535
                c-0.2552-0.1057-0.5476,0.0155-0.6535,0.2705l-0.3432,0.8289c-0.1059,0.2552,0.0154,0.5476,0.2705,0.6535
                C15.1539,22.2731,15.4465,22.152,15.5522,21.897 M8.5807,21.8973l0.3434-0.8287c0.1057-0.255-0.0154-0.5476-0.2705-0.6535
                c-0.2552-0.1057-0.5478,0.0155-0.6535,0.2707l-0.3434,0.8287c-0.1057,0.2552,0.0154,0.5478,0.2707,0.6535
                C8.1824,22.2738,8.4749,22.1527,8.5807,21.8973 M4.8449,21.8975l0.3434-0.8285c0.1057-0.2552-0.0155-0.5478-0.2707-0.6535
                c-0.255-0.1059-0.5478,0.0154-0.6535,0.2705l-0.3432,0.8289c-0.1057,0.255,0.0154,0.5476,0.2705,0.6535
                C4.4468,22.2739,4.7392,22.1529,4.8449,21.8975 M16.5657,19.4515l0.6138-1.4808c0.1055-0.2552-0.0155-0.5478-0.2707-0.6535
                c-0.2552-0.1057-0.5478,0.0155-0.6533,0.2707l-0.6138,1.4808c-0.1057,0.255,0.0155,0.5478,0.2705,0.6533
                C16.1674,19.8279,16.4602,19.7066,16.5657,19.4515 M5.8586,19.4523l0.6136-1.4808c0.1057-0.2552-0.0155-0.5478-0.2707-0.6535
                c-0.255-0.1057-0.5478,0.0154-0.6535,0.2705l-0.6134,1.4808c-0.1057,0.2552,0.0154,0.5479,0.2705,0.6535
                C5.4603,19.8288,5.7529,19.7075,5.8586,19.4523"/>
            <path fill-rule="evenodd" clip-rule="evenodd" d="M15.6378,13.6998h-2.9958l0.5339-3.1912c0.0674-0.4025-0.2429-0.769-0.6509-0.769
                H9.2763c-0.3258,0-0.6029,0.2375-0.6525,0.5594L7.709,16.2395c-0.0615,0.3997,0.2478,0.7604,0.6523,0.7604h2.5162l-0.0994,0.7466
                l-0.546,3.9535c-0.0312,0.2256,0.0563,0.4515,0.2314,0.5975c0.1091,0.0795,0.1091,0.0795,0.2322,0.1288
                c0.2874,0.0958,0.603-0.0162,0.7656-0.2718l4.7332-7.4405C16.4739,14.2747,16.1585,13.6998,15.6378,13.6998z"/>
            <path d="M17.7869,7.3133c-0.7551-3.0499-3.5031-5.313-6.7871-5.313c-3.866,0-7,3.1331-7,7.0001c0,0.2499,0.015,0.4958,0.04,0.738
                c-1.194,0.48-2.04,1.6449-2.04,3.012c0,1.794,1.4551,3.2499,3.25,3.2499h1.4844l0.1541-1H5.2498c-1.2406,0-2.25-1.0093-2.25-2.2499
                c0-0.921,0.5547-1.7391,1.4131-2.0842l0.6991-0.2811L5.0345,9.6355C5.0111,9.4094,4.9998,9.2016,4.9998,9.0004
                c0-3.3085,2.6917-6.0001,6-6.0001c2.7609,0,5.1527,1.8724,5.8164,4.5533l0.182,0.7352l0.7571,0.0239
                c1.8193,0.0575,3.2445,1.5235,3.2445,3.3374c0,1.8472-1.5028,3.35-3.35,3.35h-0.4962c-0.0356,0.0847-0.0652,0.1716-0.1155,0.2507
                l-0.4766,0.7493h1.0883c2.403,0,4.35-1.9479,4.35-4.35C21.9998,9.2944,20.1248,7.3872,17.7869,7.3133z"/>
            <path fill-rule="evenodd" clip-rule="evenodd" d="M24.0001,8.5821c0-1.851-1.4062-3.3494-3.1597-3.4077
                c-0.5664-2.3963-2.6272-4.1744-5.0903-4.1744c-1.4375,0-2.7334,0.6107-3.6799,1.592l1.0925,0.3585
                c0.7173-0.5899,1.6104-0.9507,2.5876-0.9507c1.9502,0,3.6426,1.3999,4.1162,3.4048l0.1768,0.7441l0.7637,0.0254
                c1.2295,0.0405,2.1934,1.0986,2.1934,2.4082c0,1.0565-0.6414,1.9471-1.5271,2.2752l0.1562,0.9901
                C22.9954,11.4419,24.0001,10.1431,24.0001,8.5821z"/>
        </g>

    </defs>

    <g transform="scale(1.2) translate(75 165)" id="currentweather">
        <use id="currentweathericon" href="icons/ICON_ONE.svg" />
    </g>


    <text id="alertmessage" x="0" y="35" font-size="30px" style="font-weight:bold;font-size:30px;line-height:0%;font-family:'Nimbus Mono PS';text-anchor:beginning">ALERT_MESSAGE</text>
    <text id="temphighlow" x="155" y="360" font-size="38px" style="font-size:38px;line-height:0%;font-family:'Nimbus Sans L';text-anchor:middle">HIGH_ONE/LOW_ONE</text>
    <text id="temphighlow" x="155" y="390" font-size="38px" style="font-size:28px;line-height:0%;font-family:'Nimbus Sans L';text-anchor:middle">WEATHER_DESC_1</text>
    <text id="temphighlow" x="155" y="415" font-size="38px" style="font-size:28px;line-height:0%;font-family:'Nimbus Sans L';text-anchor:middle">WEATHER_DESC_2</text>
    <path d="m 301.08466,394.8254 v 70 h 3 v -235.5 h -3 z" id="divider" inkscape:connector-curvature="0" />




    <g id="calendaricon" transform="scale(0.1) translate(3300,2000)">
        <path style="fill:#090509" d="M 506.645,89.372 C 502.609,76.437 491.008,66.87 476.738,66.87 h -31.782 v 49.326 c 0,26.284 -21.39,47.674 -47.674,47.674 -26.284,0 -47.674,-21.39 -47.674,-47.674 V 66.87 H 158.753 v 49.326 c 0,26.284 -21.39,47.674 -47.674,47.674 -26.284,0 -47.674,-21.39 -47.674,-47.674 V 66.87 H 31.782 c -14.27,0 -25.903,9.567 -29.907,22.502 H 0 v 387.365 c 0,17.544 14.239,31.782 31.782,31.782 h 444.955 c 17.544,0 31.782,-14.239 31.782,-31.782 V 89.372 Z M 476.737,476.737 H 31.782 v -254.26 h 444.955 z" id="path132" inkscape:connector-curvature="0" />
        <path style="fill:#090509" d="m 111.08,132.088 c 8.772,0 15.891,-7.119 15.891,-15.891 V 15.891 C 126.971,7.119 119.852,0 111.08,0 102.308,0 95.189,7.119 95.189,15.891 v 100.306 c 0,8.772 7.119,15.891 15.891,15.891 z" id="path134" inkscape:connector-curvature="0" />
        <path style="fill:#090509" d="m 397.281,132.088 c 8.74,0 15.891,-7.119 15.891,-15.891 V 15.891 C 413.172,7.119 406.021,0 397.281,0 388.541,0 381.39,7.119 381.39,15.891 v 100.306 c 0,8.772 7.151,15.891 15.891,15.891 z" id="path136" inkscape:connector-curvature="0" />
    </g>

    <text id="calendarentry1" x="330" y="255" font-size="29px" style="font-size:29px;line-height:0%;font-family:'Nimbus Sans L';text-anchor:beginning">
        <tspan x="330" dy="25" style="font-size:23px;">CAL_DATETIME_1</tspan>
        <tspan style="font-weight:bold;" x="330" dy="25">CAL_DESC_1</tspan>
    </text>

    <text id="calendarentry2" x="330" y="305" font-size="29px" style="font-size:29px;line-height:0%;font-family:'Nimbus Sans L';text-anchor:beginning">
        <tspan x="330" dy="25" style="font-size:23px;">CAL_DATETIME_2</tspan>
        <tspan style="font-weight:bold;" x="330" dy="25">CAL_DESC_2</tspan>
    </text>

    <text id="calendarentry3" x="330" y="355" font-size="29px" style="font-size:29px;line-height:0%;font-family:'Nimbus Sans L';text-anchor:beginning">
        <tspan x="330" dy="25" style="font-size:23px;">CAL_DATETIME_3</tspan>
        <tspan style="font-weight:bold;" x="330" dy="25">CAL_DESC_3</tspan>
    </text>

    <text id="calendarentry4" x="330" y="405" font-size="29px" style="font-size:29px;line-height:0%;font-family:'Nimbus Sans L';text-anchor:beginning">
        <tspan x="330" dy="25" style="font-size:23px;">CAL_DATETIME_4</tspan>
        <tspan style="font-weight:bold;" x="330" dy="25">CAL_DESC_4</tspan>
    </text>


    <text id="textday" x="600" y="75" style="text-anchor:middle;font-weight:600;font-size:47px;line-height:0%;font-family:'Nimbus Sans L';">DAY_NAME</text>

    <text id="textdate" x="600" y="130" style="text-anchor:middle;font-size:40px;line-height:0%;font-family:'Nimbus Sans L';">DAY_ONE</text>

    <text id="texttime" x="30" y="125" font-size="100px" style="font-weight:bold;font-size:100px;line-height:0%;font-family:'Nimbus Sans L';text-anchor:beginning">TIME_NOW</text>

</svg>
