<?xml version="1.0" encoding="UTF-8" standalone="no"?>
<svg xmlns:dc="http://purl.org/dc/elements/1.1/"
    xmlns:cc="http://creativecommons.org/ns#"
    xmlns:rdf="http://www.w3.org/1999/02/22-rdf-syntax-ns#"
    xmlns:svg="http://www.w3.org/2000/svg"
    xmlns="http://www.w3.org/2000/svg"
    xmlns:xlink="http://www.w3.org/1999/xlink"
    xmlns:sodipodi="http://sodipodi.sourceforge.net/DTD/sodipodi-0.dtd"
    xmlns:inkscape="http://www.inkscape.org/namespaces/inkscape" height="480" width="800" version="1.1" id="svg3095" inkscape:version="0.92.3 (2405546, 2018-03-11)" sodipodi:docname="weather-script-preprocess_temps.svg">
    <rect width="800" height="480" id="rect3855" fill="white" />
    <metadata id="metadata3203">
        <rdf:RDF>
            <cc:Work rdf:about="">
                <dc:format>image/svg+xml</dc:format>
                <dc:type rdf:resource="http://purl.org/dc/dcmitype/StillImage" />
                <dc:title />
            </cc:Work>
        </rdf:RDF>
    </metadata>
    <sodipodi:namedview pagecolor="#ffffff" bordercolor="#666666" borderopacity="1" objecttolerance="10" gridtolerance="10" guidetolerance="10" inkscape:pageopacity="0" inkscape:pageshadow="2" inkscape:window-width="2498" inkscape:window-height="1379" id="namedview3201" showgrid="false" inkscape:zoom="0.945" inkscape:cx="334.47814" inkscape:cy="189.13584" inkscape:window-x="62" inkscape:window-y="27" inkscape:window-maximized="1" inkscape:current-layer="svg3095" />
    <defs id="weather-icons">
        


      

        <!-- https://www.flaticon.com/free-icon/haze_727789 -->
        <g id="haze" transform="scale(0.2)">
            <g>
                <g>
                    <path d="M436.874,68.559L394.57,55.055c-38.176-12.288-80.32-8.256-115.424,10.976c-33.984,18.656-76.256,18.688-110.272,0
                        c-35.04-19.232-77.12-23.264-115.456-10.976L11.146,68.559C2.698,71.247-1.942,80.239,0.778,88.687
                        c2.688,8.384,11.648,13.024,20.096,10.336l42.272-13.536c30.048-9.536,62.944-6.464,90.336,8.576
                        c21.76,11.936,46.144,17.888,70.528,17.888c24.384,0,48.736-5.952,70.496-17.856c27.424-15.072,60.32-18.176,90.304-8.576
                        l42.304,13.504c8.576,2.752,17.44-1.984,20.128-10.368C449.93,80.239,445.29,71.247,436.874,68.559z"/>
                </g>
            </g>
            <g>
                <g>
                    <path d="M436.874,164.559l-42.304-13.504c-38.176-12.224-80.32-8.256-115.424,10.976c-33.984,18.656-76.256,18.688-110.272,0
                        c-35.072-19.264-77.152-23.296-115.456-10.976l-42.272,13.504c-8.448,2.688-13.088,11.68-10.368,20.128
                        c2.688,8.384,11.648,12.992,20.096,10.336l42.272-13.536c30.048-9.536,62.944-6.464,90.336,8.576
                        c21.76,11.936,46.144,17.888,70.528,17.888c24.384,0,48.736-5.952,70.496-17.856c27.424-15.072,60.32-18.176,90.304-8.576
                        l42.304,13.504c8.576,2.752,17.44-1.952,20.128-10.368S445.29,167.247,436.874,164.559z"/>
                </g>
            </g>
            <g>
                <g>
                    <path d="M436.842,260.559l-42.24-13.472c-38.304-12.384-80.288-8.32-115.456,10.944c-33.984,18.624-76.256,18.624-110.272,0
                        c-35.104-19.264-77.152-23.264-115.424-10.976l-42.272,13.504c-8.416,2.688-13.056,11.68-10.368,20.128
                        c2.688,8.384,11.648,12.96,20.096,10.368l42.272-13.504c29.952-9.664,62.88-6.496,90.304,8.512
                        c21.76,11.936,46.144,17.888,70.528,17.888c24.384,0,48.736-5.952,70.496-17.856c27.424-15.04,60.32-18.24,90.304-8.544
                        l42.272,13.504c8.512,2.624,17.408-1.984,20.128-10.368C449.898,272.239,445.258,263.247,436.842,260.559z"/>
                </g>
            </g>
            <g>
                <g>
                    <path d="M436.842,356.527l-42.24-13.472c-38.304-12.352-80.288-8.32-115.456,10.944c-33.952,18.624-76.256,18.656-110.272,0
                        c-35.072-19.232-77.184-23.168-115.456-10.976l-42.272,13.504c-8.416,2.688-13.056,11.68-10.368,20.128
                        c2.688,8.384,11.648,12.928,20.096,10.368l42.272-13.504c29.984-9.6,62.88-6.496,90.336,8.544
                        c21.76,11.936,46.144,17.888,70.528,17.888c24.384,0,48.736-5.952,70.496-17.888c27.424-15.04,60.32-18.208,90.304-8.544
                        l42.272,13.504c8.512,2.624,17.408-1.984,20.128-10.368C449.898,368.207,445.258,359.215,436.842,356.527z"/>
                </g>
            </g>
        </g>

        <!-- https://www.flaticon.com/free-icon/volcano_1092931 -->
        <g id="volcano" transform="scale(0.2)">
            <path d="M 319.875 64.1875 C 319.875 52.414062 329.417969 42.871094 341.191406 42.871094 C 352.960938 42.871094 362.5 52.414062 362.5 64.1875 L 405.128906 64.1875 C 405.128906 28.875 376.5 0.25 341.191406 0.25 C 305.878906 0.25 277.253906 28.875 277.253906 64.1875 L 277.253906 170.746094 L 319.875 170.746094 Z M 319.875 64.1875 " style=" stroke:none;fill-rule:nonzero;fill:rgb(0%,0%,0%);fill-opacity:1;" />
            <path d="M 170.691406 85.5 C 182.460938 85.5 192 95.039062 192 106.808594 L 192 149.4375 L 234.628906 149.4375 L 234.628906 106.808594 C 234.628906 71.5 206.003906 42.871094 170.691406 42.871094 C 135.375 42.871094 106.753906 71.5 106.753906 106.808594 L 149.378906 106.808594 C 149.378906 95.039062 158.917969 85.5 170.691406 85.5 Z M 170.691406 85.5 " style=" stroke:none;fill-rule:nonzero;fill:rgb(0%,0%,0%);fill-opacity:1;" />
            <path d="M 383.8125 128.125 C 383.8125 139.894531 374.273438 149.4375 362.5 149.4375 C 350.730469 149.4375 341.191406 139.894531 341.191406 128.125 C 341.191406 116.351562 350.730469 106.808594 362.5 106.808594 C 374.273438 106.808594 383.8125 116.351562 383.8125 128.125 Z M 383.8125 128.125 " style=" stroke:none;fill-rule:nonzero;fill:rgb(0%,0%,0%);fill-opacity:1;" />
            <path d="M 255.9375 21.5625 C 255.9375 33.332031 246.398438 42.871094 234.628906 42.871094 C 222.855469 42.871094 213.316406 33.332031 213.316406 21.5625 C 213.316406 9.792969 222.855469 0.25 234.628906 0.25 C 246.398438 0.25 255.9375 9.792969 255.9375 21.5625 Z M 255.9375 21.5625 " style=" stroke:none;fill-rule:nonzero;fill:rgb(0%,0%,0%);fill-opacity:1;" />
            <path d="M 149.378906 192.0625 C 149.378906 203.832031 139.835938 213.375 128.0625 213.375 C 116.292969 213.375 106.753906 203.832031 106.753906 192.0625 C 106.753906 180.289062 116.292969 170.746094 128.0625 170.746094 C 139.835938 170.746094 149.378906 180.289062 149.378906 192.0625 Z M 149.378906 192.0625 " style=" stroke:none;fill-rule:nonzero;fill:rgb(0%,0%,0%);fill-opacity:1;" />
            <path d="M 447.75 234.683594 C 447.75 246.457031 438.210938 256 426.4375 256 C 414.667969 256 405.128906 246.457031 405.128906 234.683594 C 405.128906 222.914062 414.667969 213.375 426.4375 213.375 C 438.210938 213.375 447.75 222.914062 447.75 234.683594 Z M 447.75 234.683594 " style=" stroke:none;fill-rule:nonzero;fill:rgb(0%,0%,0%);fill-opacity:1;" />
            <path d="M 319.511719 209.558594 C 317.671875 199.433594 308.855469 192.070312 298.5625 192.0625 L 213.316406 192.0625 C 203.019531 192.070312 194.207031 199.433594 192.363281 209.558594 C 152.871094 426.6875 5.667969 510.105469 0.1875 511.75 L 511.6875 511.75 C 510.347656 511.34375 359.324219 428.417969 319.511719 209.558594 Z M 211.054688 304.398438 C 219.210938 281.636719 225.8125 258.34375 230.808594 234.683594 L 281.089844 234.683594 C 283.496094 245.769531 286.289062 256.851562 289.613281 268.402344 C 265.148438 283.835938 238.734375 295.941406 211.074219 304.398438 Z M 211.054688 304.398438 " style=" stroke:none;fill-rule:nonzero;fill:rgb(0%,0%,0%);fill-opacity:1;" />
        </g>

        <!-- https://www.flaticon.com/free-icon/hurricane_483553 -->
        <g id="tornado_hurricane" transform="scale(0.2)">
            <g>
                <g>
                    <path d="M480,74.667c-5.896,0-10.667,4.771-10.667,10.667c0,9.389-9.651,19.767-26.585,29.161
                        c3.428-18.44,5.18-38.319,5.227-60.255c0.005-0.214-0.197-1.867-0.267-2.365c-0.151-1.758-0.268-3.529-0.854-5.219
                        C430.771,0.531,242.667,0,234.667,0C167.188,0,36,9.521,22.625,45.563c-0.914,2.462-1.289,5.043-1.263,7.628
                        c-0.001,0.051-0.029,0.092-0.029,0.143c0,22.552,20.125,39.969,43.438,60.146C94.396,139.135,128,168.219,128,213.333
                        c0,39.833-9.688,56.771-19.938,74.708c-10.68,18.708-21.604,38.281-22.548,79.728c-26.965-10.297-42.848-24.068-42.848-37.103
                        c0-11.219,12.271-23.281,33.688-33.104c5.354-2.458,7.688-8.792,5.229-14.146c-2.458-5.375-8.771-7.688-14.146-5.25
                        c-29.729,13.656-46.104,32.302-46.104,52.5c0,42.563,71.083,74.667,165.333,74.667S352,373.229,352,330.667
                        c0-8.344-2.813-16.521-8.375-24.323c-3.417-4.813-10.083-5.906-14.875-2.5c-4.792,3.417-5.917,10.083-2.5,14.875
                        c2.938,4.115,4.417,8.135,4.417,11.948c0,20.46-38.908,42.803-98.869,50.523c27.839-49.29,64.392-78.775,99.931-107.201
                        c31.063-24.833,60.375-48.281,82.229-83.135c2.313-3.708,2.146-8.469-0.458-11.99c-2.604-3.542-7.167-5.104-11.313-3.99
                        C359.917,186.083,309.375,192,256,192c-26.792,0-53.188-1.5-78.438-4.469c-5.833-0.688-10.021-6-9.333-11.844
                        c0.688-5.938,6.042-10.115,11.854-9.344c24.354,2.865,49.896,4.323,75.917,4.323c67.503,0,131.443-10.023,175.44-27.482
                        c0.036-0.005,0.087,0.069,0.122,0.055c48.854-19.396,59.104-42.198,59.104-57.906C490.667,79.438,485.896,74.667,480,74.667z
                        M234.667,64c-57.896,0-101.354-4.979-130.708-10.635c29.708-5.656,73.458-10.698,130.708-10.698
                        c57.896,0,101.354,4.979,130.708,10.635C335.667,58.958,291.917,64,234.667,64z"/>
                    <path d="M195.875,426.458l-9.208,0.208c-25.334,0-51.271-2.583-75.021-7.469c-3.958-0.833-8.125,0.708-10.604,3.958
                        c-2.5,3.25-2.917,7.635-1.063,11.292c25.354,50.354,74.5,75.385,76.583,76.427c1.5,0.75,3.146,1.125,4.771,1.125
                        c1.688,0,3.354-0.396,4.896-1.188c3.042-1.573,5.125-4.49,5.646-7.854c3.375-21.906,8.083-42.396,14.438-62.646
                        c1.021-3.281,0.396-6.854-1.667-9.604C202.563,427.958,198.979,426.292,195.875,426.458z"/>
                </g>
            </g>
        </g>



        <!-- The following icons are powered by Climacell https://github.com/ClimaCell-API/weather-code-icons/tree/master/black  -->

        <g id="climacell_clear_day" transform="scale(4.4)">
            <rect fill="none" width="24" height="24"/>
            <path fill-rule="evenodd" clip-rule="evenodd" d="M12.0005,6c-3.3141,0-6,2.687-6,6s2.6859,6,6,6c3.313,0,6-2.687,6-6
                S15.3135,6,12.0005,6z M12,17c-2.7568,0-5-2.2432-5-5s2.2432-5,5-5s5,2.2432,5,5S14.7568,17,12,17z"/>
            <path fill-rule="evenodd" clip-rule="evenodd" d="M12.0004,5L12.0004,5c-0.2761,0-0.5-0.2239-0.5-0.5v-2
                c0-0.2761,0.2239-0.5,0.5-0.5h0c0.2761,0,0.5,0.2239,0.5,0.5v2C12.5004,4.7761,12.2765,5,12.0004,5z"/>
            <path fill-rule="evenodd" clip-rule="evenodd" d="M12.0004,22L12.0004,22c-0.2761,0-0.5-0.2239-0.5-0.5v-2
                c0-0.2761,0.2239-0.5,0.5-0.5h0c0.2761,0,0.5,0.2239,0.5,0.5v2C12.5004,21.7761,12.2765,22,12.0004,22z"/>
            <path fill-rule="evenodd" clip-rule="evenodd" d="M5.0004,12L5.0004,12c0,0.2761-0.2239,0.5-0.5,0.5h-2
                c-0.2761,0-0.5-0.2239-0.5-0.5v0c0-0.2761,0.2239-0.5,0.5-0.5h2C4.7765,11.5,5.0004,11.7239,5.0004,12z"/>
            <path fill-rule="evenodd" clip-rule="evenodd" d="M22.0004,12L22.0004,12c0,0.2761-0.2239,0.5-0.5,0.5h-2
                c-0.2761,0-0.5-0.2239-0.5-0.5v0c0-0.2761,0.2239-0.5,0.5-0.5h2C21.7765,11.5,22.0004,11.7239,22.0004,12z"/>
            <path fill-rule="evenodd" clip-rule="evenodd" d="M16.9501,7.0503L16.9501,7.0503c-0.1953-0.1953-0.1953-0.5118,0-0.7071
                l1.4142-1.4142c0.1953-0.1953,0.5118-0.1953,0.7071,0v0c0.1953,0.1953,0.1953,0.5118,0,0.7071l-1.4142,1.4142
                C17.462,7.2455,17.1454,7.2455,16.9501,7.0503z"/>
            <path fill-rule="evenodd" clip-rule="evenodd" d="M4.9293,19.0711L4.9293,19.0711c-0.1953-0.1953-0.1953-0.5118,0-0.7071
                l1.4142-1.4142c0.1953-0.1953,0.5118-0.1953,0.7071,0h0c0.1953,0.1953,0.1953,0.5118,0,0.7071l-1.4142,1.4142
                C5.4412,19.2663,5.1246,19.2663,4.9293,19.0711z"/>
            <path fill-rule="evenodd" clip-rule="evenodd" d="M7.0507,7.0503L7.0507,7.0503c-0.1953,0.1953-0.5118,0.1953-0.7071,0
                L4.9293,5.636c-0.1953-0.1953-0.1953-0.5118,0-0.7071l0,0c0.1953-0.1953,0.5118-0.1953,0.7071,0l1.4142,1.4142
                C7.2459,6.5384,7.2459,6.855,7.0507,7.0503z"/>
            <path fill-rule="evenodd" clip-rule="evenodd" d="M19.0715,19.0711L19.0715,19.0711c-0.1953,0.1953-0.5118,0.1953-0.7071,0
                l-1.4142-1.4142c-0.1953-0.1953-0.1953-0.5118,0-0.7071l0,0c0.1953-0.1953,0.5118-0.1953,0.7071,0l1.4142,1.4142
                C19.2667,18.5592,19.2667,18.8758,19.0715,19.0711z"/>
        </g>

        <g id="climacell_clear_night" transform="scale(4.4)">
            <rect fill="none" width="24" height="24"/>
            <path fill-rule="evenodd" clip-rule="evenodd" d="M19,16.0001C13.4772,16.0001,9,11.5228,9,6c0-1.3221,0.2566-2.5842,0.7225-3.7394
                C5.297,3.2913,2,7.2607,2,12c0,5.5228,4.4772,10.0001,10,10.0001c4.2008,0,7.7968-2.5904,9.2775-6.2607
                C20.546,15.9099,19.7836,16.0001,19,16.0001z"/>
        </g>

        <g id="climacell_cloudy" transform="scale(4.4)">
            <rect fill="none" width="24" height="24"/>
            <path fill-rule="evenodd" clip-rule="evenodd" d="M20.8403,6.4685C20.274,4.0722,18.2131,2.2941,15.75,2.2941
                c-2.2434,0-4.1527,1.4763-4.9044,3.5506c0.3456,0.0278,0.6844,0.0732,1.0164,0.1465c0.6582-1.585,2.1508-2.6974,3.8883-2.6974
                c1.9502,0,3.6426,1.3999,4.1162,3.4048l0.1768,0.7441l0.7637,0.0254c1.2295,0.0405,2.1934,1.0986,2.1934,2.4082
                c0,1.333-1.0146,2.4175-2.2627,2.4175h-0.9351c0.4901,0.2424,0.927,0.5667,1.2916,0.9625C22.7262,13.0681,24,11.6356,24,9.8762
                C24,8.0251,22.5937,6.5268,20.8403,6.4685z"/>
            <path d="M10.2442,6.2941c3.2065,0,5.9841,2.1664,6.7546,5.2684l0.1824,0.7346l0.7565,0.0239
                c2.146,0.0677,3.827,1.7899,3.827,3.9207c0,2.1697-1.7726,3.9348-3.9513,3.9348H3.6993C2.2109,20.1764,1,18.9711,1,17.4894
                c0-1.0995,0.6649-2.0764,1.694-2.4888l0.7008-0.2808l-0.0781-0.751c-0.027-0.2595-0.0402-0.4995-0.0402-0.7336
                C3.2765,9.4079,6.4023,6.2941,10.2442,6.2941 M10.2442,5.2941c-4.4005,0-7.9677,3.5543-7.9677,7.9412
                c0,0.2836,0.017,0.5627,0.0455,0.8372C0.9629,14.6171,0,15.9387,0,17.4894c0,2.0353,1.6561,3.687,3.6992,3.687h14.1141
                c2.7352,0,4.9513-2.2099,4.9513-4.9348c0-2.6729-2.1342-4.8361-4.7954-4.9202C17.1099,7.8614,13.9821,5.2941,10.2442,5.2941
                L10.2442,5.2941z"/>
        </g>

        <g id="climacell_drizzle" transform="scale(4.4)">
            <rect fill="none" width="24" height="24"/>
            <path fill-rule="evenodd" clip-rule="evenodd" d="M11.5342,20.0402c-0.064,0-0.129-0.012-0.192-0.0381
            c-0.255-0.1059-0.376-0.399-0.27-0.6529l0.478-1.155c0.106-0.2561,0.401-0.375,0.654-0.2711c0.255,0.1061,0.376,0.399,0.27,0.654
            l-0.478,1.1541C11.9162,19.9241,11.7302,20.0402,11.5342,20.0402 M8.2602,19.7312l0.478-1.1541c0.106-0.255-0.015-0.5479-0.27-0.654
            c-0.253-0.1039-0.547,0.015-0.653,0.2711l-0.479,1.155c-0.105,0.2539,0.016,0.5471,0.271,0.6529
            c0.062,0.0261,0.127,0.0381,0.191,0.0381C7.9942,20.0402,8.1802,19.9241,8.2602,19.7312 M15.7322,19.7312l0.478-1.1541
            c0.106-0.255-0.016-0.5479-0.27-0.654c-0.253-0.1039-0.548,0.015-0.654,0.2711l-0.478,1.155c-0.106,0.2539,0.015,0.5471,0.27,0.6529
            c0.063,0.0261,0.128,0.0381,0.192,0.0381C15.4652,20.0402,15.6522,19.9241,15.7322,19.7312"/>
            <g>
                <path d="M10.9999,2.9999c2.7609,0,5.1526,1.8724,5.8163,4.5533l0.182,0.7352l0.757,0.024
                c1.8195,0.0577,3.2448,1.5238,3.2448,3.3376c0,1.8472-1.5028,3.35-3.35,3.35h-12.4c-1.2406,0-2.25-1.0094-2.25-2.2501
                c0-0.921,0.5547-1.7391,1.4131-2.0842l0.6992-0.2811L5.0347,9.6351C5.0112,9.4092,4.9999,9.2014,4.9999,9
                C4.9999,5.6916,7.6915,2.9999,10.9999,2.9999 M10.9999,1.9999c-3.866,0-7,3.1331-7,7.0001c0,0.2501,0.015,0.4961,0.04,0.738
                c-1.194,0.48-2.04,1.6451-2.04,3.012c0,1.794,1.4551,3.2501,3.25,3.2501h12.4c2.403,0,4.35-1.9481,4.35-4.35
                c0-2.3561-1.875-4.263-4.213-4.3372C17.0319,4.263,14.2839,1.9999,10.9999,1.9999L10.9999,1.9999z"/>
            </g>
        </g>


        <g id="climacell_flurries" transform="scale(4.4)">
            <path d="M18.4042,22c-0.8018,0-1.5547-0.312-2.1211-0.8784c-0.1953-0.1953-0.1953-0.5117,0-0.707s0.5117-0.1953,0.707,0
            C17.3681,20.7919,17.8701,21,18.4042,21c1.1025,0,2-0.897,2-2s-0.8975-2-2-2H3.2499c-0.2764,0-0.5-0.2236-0.5-0.5
            s0.2236-0.5,0.5-0.5h15.1543c1.6543,0,3,1.3457,3,3S20.0585,22,18.4042,22z M13.9042,21c0-1.6543-1.3457-3-3-3H3.2499
            c-0.2764,0-0.5,0.2236-0.5,0.5s0.2236,0.5,0.5,0.5h7.6543c1.1025,0,2,0.897,2,2s-0.8975,2-2,2s-2-0.897-2-2
            c0-0.2764-0.2236-0.5-0.5-0.5s-0.5,0.2236-0.5,0.5c0,1.6543,1.3457,3,3,3S13.9042,22.6542,13.9042,21z"/>
            <rect fill="none" width="24" height="24"/>
            <g>
                <path d="M10.9999,1.9999c2.7609,0,5.1526,1.8724,5.8163,4.5533l0.182,0.7352l0.757,0.024
                c1.8195,0.0577,3.2448,1.5237,3.2448,3.3376c0,1.8472-1.5028,3.35-3.35,3.35h-12.4c-1.2406,0-2.25-1.0094-2.25-2.2501
                c0-0.921,0.5547-1.7391,1.4131-2.0842l0.6992-0.2811L5.0347,8.6351C5.0112,8.4092,4.9999,8.2015,4.9999,8
                C4.9999,4.6916,7.6915,1.9999,10.9999,1.9999 M10.9999,0.9999c-3.866,0-7,3.1331-7,7.0001c0,0.2501,0.015,0.4961,0.04,0.738
                c-1.194,0.48-2.04,1.6451-2.04,3.012c0,1.794,1.4551,3.2501,3.25,3.2501h12.4c2.403,0,4.35-1.9481,4.35-4.35
                c0-2.3561-1.875-4.263-4.213-4.3372C17.0319,3.263,14.2839,0.9999,10.9999,0.9999L10.9999,0.9999z"/>
            </g>
        </g>


        <g id="climacell_fog" transform="scale(4.4)">
            <rect fill="none" width="24" height="24"/>
            <path fill-rule="evenodd" clip-rule="evenodd" d="M11.9968,21.8592c-2.577,0-3.886-0.4191-5.151-0.823
            c-1.247-0.4001-2.425-0.777-4.846-0.777c-0.276,0-0.5-0.223-0.5-0.4999c0-0.276,0.224-0.5001,0.5-0.5001
            c2.578,0,3.886,0.4191,5.151,0.8241c1.247,0.399,2.425,0.7759,4.846,0.7759c2.423,0,3.601-0.3769,4.849-0.7759
            c1.266-0.405,2.575-0.8241,5.154-0.8241c0.277,0,0.5,0.2241,0.5,0.5001c0,0.2769-0.223,0.4999-0.5,0.4999
            c-2.422,0-3.601,0.3769-4.849,0.777C15.8848,21.4401,14.5758,21.8592,11.9968,21.8592 M11.9968,15.8592
            c-2.577,0-3.886-0.4191-5.151-0.823c-1.247-0.4001-2.425-0.777-4.846-0.777c-0.276,0-0.5-0.223-0.5-0.4999
            c0-0.276,0.224-0.5001,0.5-0.5001c2.578,0,3.886,0.4191,5.151,0.8241c1.247,0.399,2.425,0.7759,4.846,0.7759
            c2.423,0,3.601-0.3769,4.849-0.7759c1.266-0.405,2.575-0.8241,5.154-0.8241c0.277,0,0.5,0.2241,0.5,0.5001
            c0,0.2769-0.223,0.4999-0.5,0.4999c-2.422,0-3.601,0.3769-4.849,0.777C15.8848,15.4401,14.5758,15.8592,11.9968,15.8592
            M11.9968,18.8592c-2.577,0-3.886-0.4191-5.151-0.823c-1.247-0.4001-2.425-0.777-4.846-0.777c-0.276,0-0.5-0.223-0.5-0.4999
            c0-0.276,0.224-0.5001,0.5-0.5001c2.578,0,3.886,0.4191,5.151,0.8241c1.247,0.399,2.425,0.7759,4.846,0.7759
            c2.423,0,3.601-0.3769,4.849-0.7759c1.266-0.405,2.575-0.8241,5.154-0.8241c0.277,0,0.5,0.2241,0.5,0.5001
            c0,0.2769-0.223,0.4999-0.5,0.4999c-2.422,0-3.601,0.3769-4.849,0.777C15.8848,18.4401,14.5758,18.8592,11.9968,18.8592"/>
            <path d="M2.3633,11.267c0.4232,0.0064,0.8167,0.0233,1.1829,0.0494c0.2323-0.2743,0.5154-0.5091,0.8667-0.6503l0.6992-0.2811
            L5.0347,9.6353c-0.0234-0.226-0.0349-0.4337-0.0349-0.6351c0-3.3084,2.6917-6,6-6c2.761,0,5.1526,1.8724,5.8164,4.5533
            l0.1819,0.7352l0.7571,0.024c1.693,0.0536,3.0288,1.3314,3.2086,2.9693c0.3131-0.014,0.6459-0.0213,0.9974-0.0219
            c-0.1964-2.1701-1.969-3.8771-4.1743-3.9469c-0.7551-3.05-3.5029-5.313-6.7871-5.313c-3.866,0-7,3.133-7,7
            c0,0.25,0.0151,0.496,0.04,0.738C3.314,10.0301,2.72,10.5773,2.3633,11.267z"/>
        </g>

        <g id="climacell_fog_light" transform="scale(4.4)">
            <rect fill-rule="evenodd" clip-rule="evenodd" fill="none" width="24" height="24"/>
            <path d="M11.9969,17.3595c-2.5781,0-3.8857-0.4189-5.1514-0.8237c-1.2471-0.3994-2.4248-0.7764-4.8457-0.7764
            c-0.2764,0-0.5-0.2236-0.5-0.5s0.2236-0.5,0.5-0.5c2.5771,0,3.8848,0.4189,5.1504,0.8237c1.2471,0.3994,2.4248,0.7764,4.8467,0.7764
            s3.6006-0.377,4.8486-0.7764c1.2656-0.4048,2.5752-0.8237,5.1543-0.8237c0.2764,0,0.5,0.2236,0.5,0.5s-0.2236,0.5-0.5,0.5
            c-2.4229,0-3.6016,0.377-4.8496,0.7764C15.8846,16.9405,14.575,17.3595,11.9969,17.3595z"/>
            <path d="M11.9969,20.3595c-0.8301,0-1.5664-0.0425-2.251-0.1299C9.4725,20.1944,9.2781,19.944,9.3133,19.67
            c0.0352-0.2744,0.2852-0.4644,0.5596-0.4326c0.6416,0.082,1.3369,0.1221,2.124,0.1221c0.6387,0,1.2109-0.0259,1.75-0.0791
            c0.2734-0.0205,0.5195,0.1738,0.5469,0.4482c0.0264,0.2749-0.1738,0.5195-0.4492,0.5469
            C13.2733,20.3321,12.6688,20.3595,11.9969,20.3595z M17.6678,19.3497c-0.2148,0-0.4141-0.1396-0.4785-0.356
            c-0.0801-0.2646,0.0703-0.5435,0.335-0.623c0.9824-0.2949,2.1553-0.5728,4.0703-0.6074c0.2861-0.0039,0.5039,0.2148,0.5088,0.4912
            c0.0049,0.2759-0.2148,0.5039-0.4912,0.5088c-1.7939,0.0322-2.8867,0.2905-3.8008,0.5654
            C17.7635,19.3429,17.7156,19.3497,17.6678,19.3497z M5.95,19.2403c-0.0439,0-0.0889-0.0059-0.1328-0.0181
            c-0.8301-0.229-1.9316-0.4629-3.8174-0.4629c-0.2764,0-0.5-0.2236-0.5-0.5s0.2236-0.5,0.5-0.5c2.0049,0,3.1895,0.2524,4.083,0.499
            c0.2666,0.0732,0.4229,0.3486,0.3496,0.6147C6.3709,19.0948,6.1697,19.2403,5.95,19.2403z"/>
            <path d="M4.4131,10.6658l0.6992-0.2811L5.0348,9.6351C5.0114,9.4091,5,9.2014,5,9c0-3.3084,2.6917-6,6-6
            c2.7609,0,5.1526,1.8724,5.8163,4.5533l0.182,0.7352l0.7571,0.024C19.5748,8.3701,21,9.8361,21,11.65
            c0,0.3873-0.0791,0.7536-0.2007,1.1h1.043C21.9351,12.3966,22,12.0325,22,11.65c0-2.356-1.875-4.263-4.213-4.337
            C17.032,4.263,14.2841,2,11,2C7.134,2,4,5.133,4,9c0,0.25,0.015,0.496,0.04,0.738C2.8459,10.218,2,11.383,2,12.75h1
            C3,11.829,3.5547,11.0109,4.4131,10.6658z"/>
        </g>


        <g id="climacell_freezing_drizzle" transform="scale(4.4)">
            <path fill-rule="evenodd" clip-rule="evenodd" d="M11.753,9.5257c-0.064,0-0.129-0.012-0.192-0.0381
            c-0.255-0.1059-0.376-0.399-0.27-0.6529l0.478-1.155c0.106-0.256,0.401-0.375,0.654-0.2711c0.255,0.1061,0.376,0.399,0.27,0.654
            l-0.478,1.1541C12.135,9.4096,11.949,9.5257,11.753,9.5257 M8.479,9.2167l0.478-1.1541c0.106-0.255-0.015-0.5479-0.27-0.654
            C8.434,7.3047,8.14,7.4236,8.034,7.6797l-0.479,1.155C7.45,9.0886,7.571,9.3817,7.826,9.4876
            c0.062,0.0261,0.127,0.0381,0.191,0.0381C8.213,9.5257,8.399,9.4096,8.479,9.2167 M15.951,9.2167l0.478-1.1541
            c0.106-0.255-0.016-0.5479-0.27-0.654c-0.253-0.1039-0.548,0.015-0.654,0.2711l-0.478,1.155c-0.106,0.2539,0.015,0.5471,0.27,0.6529
            c0.063,0.0261,0.128,0.0381,0.192,0.0381C15.684,9.5257,15.871,9.4096,15.951,9.2167"/>
            <rect fill="none" width="24" height="24"/>
            <path fill-rule="evenodd" clip-rule="evenodd" d="M21.0001,11.9998h-18c-0.552,0-1,1.0001-1,1.0001s0.448,1.0001,1,1.0001h1.0004
            c0.0022,0.001,0.9996,0.4485,0.9996,0.9999v2c0,0.553,1,1,1,1s1-0.447,1-1v-2c0-0.5514,0.9974-0.9989,0.9996-0.9999h0.0007
            c0.0022,0.001,0.9996,0.4485,0.9996,0.9999v2c0,0.553,1,1,1,1s1-0.447,1-1v-2c0-0.5514,0.9974-0.9989,0.9996-0.9999h0.0007
            c0.0022,0.001,0.9996,0.4485,0.9996,0.9999v2c0,0.553,1,1,1,1s1-0.447,1-1v-2c0-0.5514,0.9974-0.9989,0.9996-0.9999h0.0007
            c0.0022,0.001,0.9996,0.4485,0.9996,0.9999v2c0,0.553,1,1,1,1s1-0.447,1-1v-2c0-0.5514,0.9974-0.9989,0.9996-0.9999h1.0004
            c0.552,0,1-1.0001,1-1.0001S21.5521,11.9998,21.0001,11.9998z"/>
        </g>

        <g id="climacell_freezing_rain" transform="scale(4.4)">
            <rect fill="none" width="24" height="24"/>
            <path fill-rule="evenodd" clip-rule="evenodd" d="M11.7611,6.1546c-0.064,0-0.129-0.0109-0.192-0.0379
            c-0.255-0.105-0.376-0.3981-0.27-0.6531l0.478-1.1539c0.106-0.2561,0.399-0.375,0.654-0.2711c0.255,0.1061,0.376,0.399,0.27,0.654
            l-0.478,1.1541C12.1431,6.0386,11.9571,6.1546,11.7611,6.1546 M8.4871,5.8466l0.478-1.1541c0.106-0.255-0.015-0.5479-0.27-0.654
            c-0.255-0.1039-0.548,0.015-0.653,0.2711l-0.479,1.1539c-0.105,0.255,0.016,0.5481,0.271,0.6531
            c0.062,0.027,0.127,0.0379,0.191,0.0379C8.2211,6.1546,8.4071,6.0386,8.4871,5.8466 M9.6331,9.2176l0.478-1.155
            c0.106-0.255-0.015-0.5479-0.27-0.654c-0.253-0.104-0.547,0.016-0.653,0.271l-0.478,1.155c-0.106,0.255,0.015,0.5479,0.27,0.654
            c0.063,0.0249,0.127,0.0379,0.191,0.0379C9.3681,9.5266,9.5541,9.4096,9.6331,9.2176 M5.8891,9.2176l0.479-1.155
            c0.105-0.255-0.016-0.5479-0.271-0.654c-0.254-0.105-0.548,0.016-0.653,0.271l-0.479,1.155c-0.105,0.255,0.016,0.5479,0.271,0.654
            c0.062,0.0249,0.127,0.0379,0.191,0.0379C5.6231,9.5266,5.8101,9.4096,5.8891,9.2176 M4.7511,5.8466l0.479-1.155
            c0.105-0.255-0.016-0.5481-0.271-0.654c-0.254-0.105-0.548,0.0159-0.653,0.2709l-0.479,1.155
            c-0.105,0.2561,0.016,0.5481,0.271,0.6531c0.062,0.027,0.127,0.0379,0.191,0.0379C4.4851,6.1546,4.6711,6.0386,4.7511,5.8466
            M19.6941,5.8466l0.479-1.1541c0.105-0.255-0.016-0.5479-0.271-0.654c-0.254-0.1039-0.547,0.015-0.653,0.2711l-0.478,1.1539
            c-0.106,0.255,0.015,0.5481,0.27,0.6531c0.063,0.027,0.128,0.0379,0.191,0.0379C19.4281,6.1546,19.6151,6.0386,19.6941,5.8466
            M15.9591,5.8466l0.478-1.1541c0.106-0.255-0.016-0.5479-0.27-0.654c-0.255-0.1039-0.548,0.015-0.654,0.2711l-0.478,1.1539
            c-0.106,0.255,0.015,0.5481,0.27,0.6531c0.063,0.027,0.128,0.0379,0.192,0.0379C15.6921,6.1546,15.8791,6.0386,15.9591,5.8466
            M17.1211,9.2176l0.478-1.155c0.106-0.255-0.015-0.5479-0.27-0.654c-0.255-0.105-0.548,0.016-0.654,0.271l-0.478,1.155
            c-0.106,0.255,0.015,0.5479,0.27,0.654c0.063,0.0249,0.128,0.0379,0.192,0.0379C16.8551,9.5266,17.0411,9.4096,17.1211,9.2176
            M13.3771,9.2176l0.479-1.155c0.105-0.255-0.016-0.5479-0.271-0.654c-0.254-0.105-0.548,0.016-0.653,0.271l-0.479,1.155
            c-0.105,0.255,0.016,0.5479,0.271,0.654c0.062,0.0249,0.127,0.0379,0.191,0.0379C13.1111,9.5266,13.2971,9.4096,13.3771,9.2176"/>
            <path fill-rule="evenodd" clip-rule="evenodd" d="M21.0001,11.9998h-18c-0.552,0-1,1.0001-1,1.0001s0.217,0.7189,0.535,0.8859
            c0.302,0.159,0.465,0.5,0.465,0.842v4.272c0,0.553,1,1,1,1s1-0.447,1-1v-4c0-0.552,1-1,1-1s1,0.448,1,1v2c0,0.553,1,1,1,1
            s1-0.447,1-1v-2c0-0.552,1-1,1-1s1,0.448,1,1v6c0,0.553,1,1,1,1s1-0.447,1-1v-6c0-0.552,1-1,1-1s1,0.448,1,1v2c0,0.553,1,1,1,1
            s1-0.447,1-1v-2c0-0.552,1-1,1-1s1,0.448,1,1v4c0,0.553,1,1,1,1s1-0.447,1-1v-4.272c0-0.342,0.162-0.683,0.465-0.842
            c0.318-0.1669,0.535-0.8859,0.535-0.8859S21.5521,11.9998,21.0001,11.9998"/>
        </g>

        <g id="climacell_freezing_rain_heavy" transform="scale(4.4)">
            <rect fill="none" width="24" height="24"/>
            <path fill-rule="evenodd" clip-rule="evenodd" d="M21.0001,11.9998h-18c-0.552,0-1,1.0001-1,1.0001s0.217,0.7189,0.535,0.8859
            c0.302,0.159,0.465,0.5,0.465,0.842v4.272c0,0.553,1,1,1,1s1-0.447,1-1v-4c0-0.552,1-1,1-1s1,0.448,1,1v4c0,0.553,1,1,1,1
            s1-0.447,1-1v-4c0-0.552,1-1,1-1s1,0.448,1,1v6c0,0.553,1,1,1,1s1-0.447,1-1v-6c0-0.552,1-1,1-1s1,0.448,1,1v4c0,0.553,1,1,1,1
            s1-0.447,1-1v-4c0-0.552,1-1,1-1s1,0.448,1,1v4c0,0.553,1,1,1,1s1-0.447,1-1v-4.272c0-0.342,0.162-0.683,0.465-0.842
            c0.318-0.1669,0.535-0.8859,0.535-0.8859S21.5521,11.9998,21.0001,11.9998"/>
            <path fill-rule="evenodd" clip-rule="evenodd" d="M19.0093,9.8126L19.0093,9.8126c-0.2552-0.1059-0.3764-0.3983-0.2705-0.6535
            l2.0099-4.8499c0.1057-0.2552,0.3981-0.3764,0.6535-0.2707c0.2552,0.1059,0.3762,0.3985,0.2705,0.6536l-2.0099,4.8499
            C19.557,9.7973,19.2643,9.9183,19.0093,9.8126 M4.7197,9.543l2.0099-4.8497c0.1057-0.2552-0.0154-0.5478-0.2705-0.6535
            C6.2039,3.9341,5.9113,4.0551,5.8056,4.3103L3.7957,9.1602C3.6899,9.4154,3.8111,9.708,4.0663,9.8137
            C4.3214,9.9194,4.614,9.7984,4.7197,9.543 M8.4554,9.5428l2.0099-4.8499c0.1057-0.2552-0.0154-0.5478-0.2705-0.6535
            C9.9396,3.9337,9.6471,4.0548,9.5413,4.3099L7.5314,9.16C7.4257,9.4152,7.5468,9.7076,7.802,9.8135
            C8.0571,9.9191,8.3497,9.7982,8.4554,9.5428 M12.1911,9.5425l2.0099-4.8499c0.1059-0.255-0.0154-0.5476-0.2705-0.6533
            c-0.2552-0.1059-0.5478,0.0154-0.6535,0.2705l-2.0099,4.8499c-0.1057,0.2552,0.0154,0.5478,0.2705,0.6535
            C11.7929,9.9189,12.0854,9.7978,12.1911,9.5425 M15.9269,9.5425l2.0101-4.8501c0.1057-0.2552-0.0155-0.5478-0.2705-0.6535
            c-0.2554-0.1057-0.5479,0.0153-0.6535,0.2705l-2.0101,4.8501c-0.1057,0.255,0.0155,0.5476,0.2705,0.6535
            C15.5286,9.9185,15.8213,9.7975,15.9269,9.5425 M17.7948,9.5423l0.7261-1.7527c0.1059-0.2552-0.0152-0.5476-0.2705-0.6535
            c-0.2552-0.1057-0.5476,0.0155-0.6535,0.2705l-0.7261,1.7527c-0.1059,0.2552,0.0154,0.5476,0.2705,0.6535
            C17.3965,9.9183,17.6891,9.7973,17.7948,9.5423 M14.0591,9.5425L14.7853,7.79c0.1055-0.2552-0.0155-0.5478-0.2707-0.6535
            c-0.2552-0.1059-0.5478,0.0153-0.6535,0.2705l-0.7261,1.7527c-0.1059,0.255,0.0154,0.5476,0.2705,0.6533
            C13.6606,9.9187,13.9534,9.7976,14.0591,9.5425 M10.3232,9.5427l0.7263-1.7525c0.1057-0.255-0.0154-0.5476-0.2705-0.6535
            c-0.2552-0.1057-0.5478,0.0155-0.6535,0.2707L9.3992,9.1599C9.2935,9.4151,9.4146,9.7076,9.6699,9.8133
            C9.9249,9.9191,10.2175,9.798,10.3232,9.5427 M6.5875,9.5428l0.7263-1.7524C7.4195,7.5353,7.2982,7.2427,7.0431,7.137
            c-0.255-0.1059-0.5478,0.0154-0.6535,0.2705L5.6635,9.1602C5.5578,9.4152,5.6789,9.7078,5.934,9.8137
            C6.1894,9.9192,6.4818,9.7982,6.5875,9.5428 M19.1911,6.1729l0.6138-1.4808c0.1055-0.2552-0.0155-0.5478-0.2707-0.6535
            c-0.2552-0.1057-0.5478,0.0155-0.6533,0.2707l-0.6138,1.4808c-0.1057,0.255,0.0155,0.5478,0.2705,0.6533
            C18.7928,6.5494,19.0856,6.4281,19.1911,6.1729 M15.4554,6.1733l0.6136-1.4808c0.1059-0.2552-0.0154-0.5478-0.2705-0.6535
            c-0.2554-0.1057-0.5478,0.0153-0.6535,0.2705l-0.6136,1.4808c-0.1059,0.2552,0.0154,0.5479,0.2705,0.6535
            C15.0573,6.5497,15.3497,6.4285,15.4554,6.1733 M11.7197,6.1735l0.6136-1.4808c0.1057-0.2552-0.0154-0.5478-0.2705-0.6535
            c-0.2552-0.1057-0.5478,0.0155-0.6535,0.2705l-0.6136,1.481c-0.1059,0.255,0.0154,0.5478,0.2705,0.6535
            S11.614,6.4287,11.7197,6.1735 M7.984,6.1738l0.6136-1.4808c0.1057-0.2552-0.0155-0.5478-0.2707-0.6535
            c-0.255-0.1057-0.5478,0.0154-0.6535,0.2705L7.06,5.7909C6.9543,6.0461,7.0753,6.3388,7.3305,6.4444
            C7.5857,6.5502,7.8783,6.429,7.984,6.1738"/>
        </g>

        <g id="climacell_freezing_rain_light" transform="scale(4.4)">
            <path fill-rule="evenodd" clip-rule="evenodd" d="M11.753,9.5257c-0.064,0-0.129-0.012-0.192-0.0381
            c-0.255-0.1059-0.376-0.399-0.27-0.6529l0.478-1.155c0.106-0.256,0.401-0.375,0.654-0.2711c0.255,0.1061,0.376,0.399,0.27,0.654
            l-0.478,1.1541C12.135,9.4096,11.949,9.5257,11.753,9.5257 M4.743,9.2167l0.479-1.155c0.105-0.255-0.016-0.5481-0.271-0.6531
            c-0.253-0.1059-0.547,0.015-0.653,0.27L3.819,8.8347C3.714,9.0897,3.835,9.3817,4.09,9.4876c0.062,0.0261,0.127,0.0381,0.191,0.0381
            C4.477,9.5257,4.663,9.4096,4.743,9.2167 M19.686,9.2167l0.479-1.1541c0.105-0.255-0.016-0.5479-0.271-0.654
            c-0.253-0.1039-0.547,0.015-0.653,0.2711l-0.478,1.155c-0.106,0.2539,0.015,0.5471,0.27,0.6529
            c0.063,0.0261,0.128,0.0381,0.191,0.0381C19.42,9.5257,19.607,9.4096,19.686,9.2167 M8.479,9.2167l0.478-1.1541
            c0.106-0.255-0.015-0.5479-0.27-0.654C8.434,7.3047,8.14,7.4236,8.034,7.6797l-0.479,1.155C7.45,9.0886,7.571,9.3817,7.826,9.4876
            c0.062,0.0261,0.127,0.0381,0.191,0.0381C8.213,9.5257,8.399,9.4096,8.479,9.2167 M15.951,9.2167l0.478-1.1541
            c0.106-0.255-0.016-0.5479-0.27-0.654c-0.253-0.1039-0.548,0.015-0.654,0.2711l-0.478,1.155c-0.106,0.2539,0.015,0.5471,0.27,0.6529
            c0.063,0.0261,0.128,0.0381,0.192,0.0381C15.684,9.5257,15.871,9.4096,15.951,9.2167"/>
            <rect fill="none" width="24" height="24"/>
            <path fill-rule="evenodd" clip-rule="evenodd" d="M21.0001,11.9998h-18c-0.552,0-1,1.0001-1,1.0001s0.217,0.7189,0.535,0.8859
            c0.302,0.159,0.465,0.5,0.465,0.842v4.272c0,0.553,1,1,1,1s1-0.447,1-1v-4c0-0.552,1-1,1-1s1,0.448,1,1v2c0,0.553,1,1,1,1
            s1-0.447,1-1v-2c0-0.552,1-1,1-1s1,0.448,1,1v2c0,0.553,1,1,1,1s1-0.447,1-1v-2c0-0.552,1-1,1-1s1,0.448,1,1v2c0,0.553,1,1,1,1
            s1-0.447,1-1v-2c0-0.552,1-1,1-1s1,0.448,1,1v4c0,0.553,1,1,1,1s1-0.447,1-1v-4.272c0-0.342,0.162-0.683,0.465-0.842
            c0.318-0.1669,0.535-0.8859,0.535-0.8859S21.5521,11.9998,21.0001,11.9998"/>
        </g>

        <g id="climacell_ice_pellets" transform="scale(4.4)">
            <rect fill="none" width="24" height="24"/>
            <path fill-rule="evenodd" clip-rule="evenodd" d="M13.5059,20.9617l-1.531-3.696l-3.695,1.531l1.531,3.696L13.5059,20.9617z
            M9.5079,13.5866l-1.848,0.765l0.766,1.848l1.847-0.7659L9.5079,13.5866z M4.7979,15.3206l-1.848,0.7661l0.766,1.847l1.847-0.764
            L4.7979,15.3206z M17.4899,13.4897l-1.848,0.765l0.765,1.848l1.848-0.765L17.4899,13.4897z"/>
            <path fill-rule="evenodd" clip-rule="evenodd" d="M20.4719,4.9827c0.106-0.255,0.4-0.3769,0.654-0.27
            c0.255,0.105,0.376,0.3981,0.27,0.6531l-2.679,6.468c-0.08,0.192-0.266,0.3079-0.462,0.3079c-0.064,0-0.129-0.0109-0.191-0.038
            c-0.255-0.105-0.376-0.3981-0.271-0.6531L20.4719,4.9827z M14.2919,2.0388c0.255,0.105,0.376,0.398,0.27,0.6529l-3.827,9.2381
            c-0.079,0.1929-0.266,0.309-0.462,0.309c-0.064,0-0.129-0.012-0.191-0.0381c-0.255-0.1059-0.376-0.3979-0.271-0.6529l3.827-9.2389
            C13.7439,2.0527,14.0379,1.9308,14.2919,2.0388z M8.1629,5.8908c0.106-0.255,0.4-0.3772,0.653-0.27
            c0.255,0.105,0.376,0.3979,0.271,0.6529l-3.062,7.391c-0.079,0.192-0.266,0.3081-0.462,0.3081c-0.064,0-0.129-0.0111-0.191-0.0381
            c-0.255-0.105-0.376-0.3979-0.271-0.6529L8.1629,5.8908z M16.1059,5.9876c0.105-0.255,0.399-0.3769,0.653-0.27
            c0.255,0.105,0.376,0.3981,0.271,0.6531l-3.827,9.2389c-0.08,0.1931-0.266,0.309-0.462,0.309c-0.064,0-0.129-0.012-0.191-0.038
            c-0.255-0.1061-0.376-0.399-0.271-0.654L16.1059,5.9876z"/>

        </g>

        <g id="climacell_ice_pellets_heavy" transform="scale(4.4)">
            <rect fill="none" width="24" height="24"/>
            <path fill-rule="evenodd" clip-rule="evenodd" d="M13.0059,20.9617l-1.531-3.696l-3.695,1.531l1.531,3.696L13.0059,20.9617z
            M9.5079,13.5866l-1.848,0.765l0.766,1.848l1.847-0.7659L9.5079,13.5866z M19.4879,20.8648l-1.531-3.696l-3.695,1.531l1.531,3.696
            L19.4879,20.8648z M6.1007,20.9617l-1.531-3.696l-3.695,1.531l1.531,3.696L6.1007,20.9617z M15.9899,13.4897l-1.848,0.765
            l0.765,1.848l1.848-0.765L15.9899,13.4897z"/>
            <path fill-rule="evenodd" clip-rule="evenodd" d="M14.2919,2.0388c0.255,0.105,0.376,0.398,0.27,0.6529l-3.827,9.2381
            c-0.079,0.1929-0.266,0.309-0.462,0.309c-0.064,0-0.129-0.012-0.191-0.0381c-0.255-0.1059-0.376-0.3979-0.271-0.6529l3.827-9.2389
            C13.7439,2.0527,14.0379,1.9308,14.2919,2.0388z M15.6059,5.9876c0.105-0.255,0.399-0.3769,0.653-0.27
            c0.255,0.105,0.376,0.3981,0.271,0.6531l-3.827,9.2389c-0.08,0.1931-0.266,0.309-0.462,0.309c-0.064,0-0.129-0.012-0.191-0.038
            c-0.255-0.1061-0.376-0.399-0.271-0.654L15.6059,5.9876z M22.0879,5.8907c0.105-0.255,0.399-0.3769,0.653-0.27
            c0.255,0.105,0.376,0.3981,0.271,0.6531l-3.827,9.2389c-0.08,0.1931-0.266,0.309-0.462,0.309c-0.064,0-0.129-0.012-0.191-0.038
            c-0.255-0.1061-0.376-0.399-0.271-0.654L22.0879,5.8907z M8.7007,5.9876c0.105-0.255,0.399-0.3769,0.653-0.27
            c0.255,0.105,0.376,0.3981,0.271,0.6531l-3.827,9.2389c-0.08,0.1931-0.266,0.309-0.462,0.309c-0.064,0-0.129-0.012-0.191-0.038
            c-0.255-0.1061-0.376-0.399-0.271-0.654L8.7007,5.9876z M20.7739,1.9419c0.255,0.105,0.376,0.398,0.27,0.6529l-3.827,9.2381
            c-0.079,0.1929-0.266,0.309-0.462,0.309c-0.064,0-0.129-0.012-0.191-0.0381c-0.255-0.1059-0.376-0.3979-0.271-0.6529l3.827-9.2389
            C20.2259,1.9558,20.5199,1.8339,20.7739,1.9419z"/>
        </g>

        <g id="climacell_ice_pellets_light" transform="scale(4.4)">
            <rect fill="none" width="24" height="24"/>
            <path fill-rule="evenodd" clip-rule="evenodd" d="M12.2645,12.3374l-1.848,0.765l0.766,1.848l1.847-0.7659L12.2645,12.3374z
            M7.0545,14.0714l-1.848,0.7661l0.766,1.847l1.847-0.764L7.0545,14.0714z M15.2325,16.0175l-1.848,0.765l0.765,1.848l1.848-0.765
            L15.2325,16.0175z"/>
            <path fill-rule="evenodd" clip-rule="evenodd" d="M15.1349,5.4088c0.255,0.105,0.376,0.398,0.27,0.6529l-1.9134,4.6188
            c-0.079,0.1929-0.266,0.309-0.462,0.309c-0.064,0-0.129-0.012-0.191-0.0381c-0.255-0.1059-0.376-0.3979-0.271-0.6529l1.9134-4.6196
            C14.5869,5.4228,14.8809,5.3008,15.1349,5.4088z M8.8886,8.337c0.106-0.255,0.4-0.3772,0.653-0.27
            c0.255,0.105,0.376,0.3979,0.271,0.6529l-1.5311,3.6955c-0.079,0.192-0.266,0.3081-0.462,0.3081c-0.064,0-0.129-0.0111-0.191-0.0381
            c-0.255-0.105-0.376-0.3979-0.271-0.6529L8.8886,8.337z M17.8316,8.4339c0.105-0.255,0.399-0.3769,0.653-0.27
            c0.255,0.105,0.376,0.3981,0.271,0.6531l-2.2961,5.5435c-0.08,0.1931-0.266,0.309-0.462,0.309c-0.064,0-0.129-0.012-0.191-0.038
            c-0.255-0.1061-0.376-0.399-0.271-0.654L17.8316,8.4339z"/>
        </g>


        <g id="climacell_mostly_clear_day" transform="scale(4.4)">
            <path fill-rule="evenodd" clip-rule="evenodd" d="M11.3215,3.5328L11.3215,3.5328c-0.2551,0.1057-0.5476-0.0155-0.6533-0.2706
                L9.9028,1.4145c-0.1057-0.2551,0.0155-0.5476,0.2706-0.6533l0,0c0.2551-0.1057,0.5476,0.0155,0.6533,0.2706l0.7654,1.8478
                C11.6977,3.1347,11.5766,3.4272,11.3215,3.5328z"/>
            <path fill-rule="evenodd" clip-rule="evenodd" d="M23.239,6.1732L23.239,6.1732c0.1057,0.2551-0.0155,0.5476-0.2706,0.6533
                l-1.8478,0.7654c-0.2551,0.1057-0.5476-0.0155-0.6533-0.2706v0c-0.1057-0.2551,0.0155-0.5476,0.2706-0.6533l1.8478-0.7654
                C22.8409,5.7969,23.1334,5.918,23.239,6.1732z"/>
            <path fill-rule="evenodd" clip-rule="evenodd" d="M16.679,3.5328L16.679,3.5328c-0.2551-0.1057-0.3763-0.3982-0.2706-0.6533
                l0.7654-1.8478c0.1057-0.2551,0.3982-0.3763,0.6533-0.2706l0,0c0.2551,0.1057,0.3763,0.3982,0.2706,0.6533l-0.7654,1.8478
                C17.2266,3.5174,16.9342,3.6385,16.679,3.5328z"/>
            <path fill-rule="evenodd" clip-rule="evenodd" d="M7.5331,7.3212L7.5331,7.3212C7.4274,7.5763,7.1349,7.6975,6.8798,7.5918
                L5.0321,6.8264C4.7769,6.7208,4.6558,6.4283,4.7615,6.1732l0,0C4.8671,5.918,5.1596,5.7969,5.4147,5.9026l1.8478,0.7654
                C7.5176,6.7736,7.6388,7.0661,7.5331,7.3212z"/>
            <path fill-rule="evenodd" clip-rule="evenodd" d="M23.239,13.8268L23.239,13.8268c-0.1057,0.2551-0.3982,0.3763-0.6533,0.2706
                l-1.8478-0.7654c-0.2551-0.1057-0.3763-0.3982-0.2706-0.6533v0c0.1057-0.2551,0.3982-0.3763,0.6533-0.2706l1.8478,0.7654
                C23.2236,13.2792,23.3447,13.5717,23.239,13.8268z"/>
            <path fill-rule="evenodd" clip-rule="evenodd" d="M11.3214,3.5329L11.3214,3.5329c-0.2551,0.1057-0.5476-0.0155-0.6533-0.2706
                L9.9027,1.4145C9.797,1.1594,9.9182,0.8669,10.1733,0.7613l0,0c0.2551-0.1057,0.5476,0.0155,0.6533,0.2706l0.7654,1.8478
                C11.6976,3.1347,11.5765,3.4272,11.3214,3.5329z"/>
            <path fill-rule="evenodd" clip-rule="evenodd" d="M23.2389,6.1732L23.2389,6.1732c0.1057,0.2551-0.0155,0.5476-0.2706,0.6533
                l-1.8478,0.7654c-0.2551,0.1057-0.5476-0.0155-0.6533-0.2706v0c-0.1057-0.2551,0.0155-0.5476,0.2706-0.6533l1.8478-0.7654
                C22.8408,5.7969,23.1333,5.9181,23.2389,6.1732z"/>
            <path fill-rule="evenodd" clip-rule="evenodd" d="M16.6789,3.5329L16.6789,3.5329c-0.2551-0.1057-0.3763-0.3982-0.2706-0.6533
                l0.7654-1.8478c0.1057-0.2551,0.3982-0.3763,0.6533-0.2706l0,0c0.2551,0.1057,0.3763,0.3982,0.2706,0.6533l-0.7654,1.8478
                C17.2265,3.5174,16.934,3.6386,16.6789,3.5329z"/>
            <path fill-rule="evenodd" clip-rule="evenodd" d="M7.533,7.3213L7.533,7.3213C7.4273,7.5764,7.1348,7.6975,6.8797,7.5919
                L5.0319,6.8265C4.7768,6.7208,4.6557,6.4283,4.7613,6.1732l0,0C4.867,5.9181,5.1595,5.7969,5.4146,5.9026L7.2624,6.668
                C7.5175,6.7737,7.6387,7.0661,7.533,7.3213z"/>
            <rect x="0.0002" fill="none" width="24" height="24"/>
            <path fill-rule="evenodd" clip-rule="evenodd" d="M9.0005,9.5004c0.0168,0,0.0327,0.004,0.0494,0.0042
                C9.303,6.9828,11.4127,5,13.9999,5c2.7568,0,5,2.2432,5,5c0,2.2724-1.5334,4.1741-3.613,4.7798l0.0052,0.0213l0.3789,0.0117
                c0.4835,0.0154,0.9387,0.1255,1.3593,0.299c1.7192-1.0551,2.87-2.9467,2.87-5.1118c0-3.3137-2.6863-6-6-6
                c-3.1727,0-5.7635,2.4643-5.9789,5.5823C8.3416,9.5336,8.6668,9.5004,9.0005,9.5004z"/>
            <path d="M9,10.0003c2.7609,0,5.1526,1.8724,5.8163,4.5533l0.182,0.7352l0.7571,0.024C17.5748,15.3704,19,16.8364,19,18.6503
                c0,1.8472-1.5028,3.35-3.35,3.35H3.25c-1.2406,0-2.25-1.0093-2.25-2.25c0-0.921,0.5547-1.7391,1.4131-2.0842l0.6992-0.2811
                l-0.0775-0.7496C3.0114,16.4094,3,16.2017,3,16.0003C3,12.6919,5.6917,10.0003,9,10.0003 M9,9.0003c-3.866,0-7,3.133-7,7
                c0,0.25,0.015,0.496,0.04,0.738c-1.194,0.48-2.04,1.645-2.04,3.012c0,1.794,1.4551,3.25,3.25,3.25h12.4
                c2.403,0,4.35-1.948,4.35-4.35c0-2.356-1.875-4.263-4.213-4.337C15.032,11.2633,12.2841,9.0003,9,9.0003L9,9.0003z"/>
        </g>


        <g id="climacell_mostly_clear_night" transform="scale(4.4)">
            <path fill-rule="evenodd" clip-rule="evenodd" d="M17.3018,12.4331l0.0908,0.3677l0.3789,0.0117
                c0.2974,0.0095,0.5818,0.0594,0.8574,0.1309c1.8618-0.4913,3.3795-1.8293,4.0901-3.5908
                c-0.4448,0.1034-0.9082,0.1583-1.3844,0.1583c-3.3574,0-6.0792-2.7217-6.0792-6.0792c0-0.8036,0.156-1.571,0.4392-2.2733
                C13.0043,1.785,11,4.1981,11,7.0791c0,0.1427,0.0117,0.2824,0.0214,0.4227C14.0034,7.5117,16.5847,9.5358,17.3018,12.4331z"/>
            <path d="M10.9998,8.0002c2.7609,0,5.1527,1.8724,5.8164,4.5533l0.182,0.7351l0.757,0.024
                c1.8195,0.0577,3.2446,1.5237,3.2446,3.3376c0,1.8472-1.5028,3.35-3.35,3.35h-12.4c-1.2406,0-2.25-1.0094-2.25-2.2501
                c0-0.921,0.5547-1.7391,1.4131-2.0842l0.6992-0.2811l-0.0775-0.7496c-0.0234-0.2259-0.0348-0.4337-0.0348-0.6351
                C4.9998,10.6919,7.6914,8.0002,10.9998,8.0002 M10.9998,7.0002c-3.866,0-7,3.1331-7,7.0001c0,0.2501,0.015,0.496,0.04,0.738
                c-1.194,0.48-2.04,1.6451-2.04,3.012c0,1.794,1.4551,3.2501,3.25,3.2501h12.4c2.403,0,4.35-1.9481,4.35-4.35
                c0-2.3561-1.875-4.263-4.2129-4.3372C17.0317,9.2633,14.2838,7.0002,10.9998,7.0002L10.9998,7.0002z"/>
        </g>

        <g id="climacell_mostly_cloudy" transform="scale(4.4)">
            <path d="M10.9998,6.0003c2.7609,0,5.1527,1.8724,5.8164,4.5533l0.182,0.7352l0.7571,0.024
                c1.8193,0.0576,3.2445,1.5236,3.2445,3.3375c0,1.8472-1.5028,3.35-3.35,3.35h-12.4c-1.2406,0-2.25-1.0093-2.25-2.2499
                c0-0.921,0.5547-1.7391,1.4131-2.0842l0.6991-0.2811l-0.0774-0.7496c-0.0234-0.2261-0.0348-0.4339-0.0348-0.6351
                C4.9998,8.6919,7.6914,6.0003,10.9998,6.0003 M10.9998,5.0003c-3.866,0-7,3.133-7,7.0001c0,0.2499,0.015,0.4958,0.04,0.738
                c-1.194,0.48-2.04,1.6449-2.04,3.012c0,1.794,1.4551,3.2499,3.25,3.2499h12.4c2.403,0,4.35-1.9479,4.35-4.35
                c0-2.3559-1.875-4.263-4.2129-4.337C17.0317,7.2634,14.2838,5.0003,10.9998,5.0003L10.9998,5.0003z"/>
        </g>

        <g id="climacell_partly_cloudy_day" transform="scale(4.4)">
            <rect fill="none" width="24" height="24"/>
            <path fill-rule="evenodd" clip-rule="evenodd" d="M13.5633,6.5883C14.1184,6.2178,14.7838,6,15.4996,6c1.9297,0,3.5,1.5703,3.5,3.5
                c0,0.657-0.1931,1.2654-0.5095,1.7914c0.2981,0.1616,0.5735,0.3554,0.8163,0.5865C19.7392,11.1865,20,10.3759,20,9.4999
                c0-2.4852-2.0148-4.5-4.5-4.5c-1.1035,0-2.101,0.4127-2.8838,1.072C12.9476,6.2183,13.2628,6.3901,13.5633,6.5883z"/>
            <path d="M9.9998,6.0003c2.7609,0,5.1526,1.8724,5.8163,4.5533l0.182,0.7352l0.7571,0.024
                c1.8195,0.0576,3.2446,1.5235,3.2446,3.3374c0,1.8472-1.5028,3.35-3.35,3.35h-12.4c-1.2406,0-2.25-1.0093-2.25-2.2499
                c0-0.921,0.5547-1.7391,1.4131-2.0841l0.6991-0.2811l-0.0774-0.7496c-0.0234-0.2261-0.0348-0.4339-0.0348-0.6352
                C3.9998,8.6919,6.6914,6.0003,9.9998,6.0003 M9.9998,5.0003c-3.866,0-7,3.1331-7,7c0,0.2499,0.015,0.4959,0.04,0.738
                c-1.194,0.48-2.04,1.6448-2.04,3.012c0,1.794,1.4551,3.2499,3.25,3.2499h12.4c2.403,0,4.35-1.9479,4.35-4.35
                c0-2.3559-1.875-4.2629-4.213-4.3369C16.0317,7.2633,13.2838,5.0003,9.9998,5.0003L9.9998,5.0003z"/>
            <g>
                <path d="M13.1562,4.3413c-0.1963,0-0.3818-0.1162-0.4619-0.3086L12.1201,2.647c-0.1055-0.2549,0.0156-0.5474,0.2705-0.6533
                    c0.2529-0.1045,0.5469,0.0151,0.6533,0.2705l0.5742,1.3857c0.1055,0.2549-0.0156,0.5474-0.2705,0.6533
                    C13.2852,4.3291,13.2207,4.3413,13.1562,4.3413z"/>
            </g>
            <g>
                <path d="M21.1582,7.6558c-0.1963,0-0.3818-0.1162-0.4619-0.3091c-0.1055-0.2549,0.0156-0.5474,0.2705-0.6528l1.3867-0.5737
                    c0.2578-0.105,0.5479,0.0161,0.6533,0.271s-0.0156,0.5474-0.2705,0.6528l-1.3867,0.5737
                    C21.2871,7.6436,21.2217,7.6558,21.1582,7.6558z"/>
            </g>
            <g>
                <path d="M17.8438,4.3413c-0.0645,0-0.1289-0.0122-0.1914-0.0381c-0.2549-0.106-0.376-0.3984-0.2705-0.6533l0.5742-1.3857
                    c0.1064-0.2554,0.4004-0.375,0.6533-0.2705c0.2549,0.106,0.376,0.3984,0.2705,0.6533l-0.5742,1.3857
                    C18.2256,4.2251,18.04,4.3413,17.8438,4.3413z"/>
            </g>
            <g>
                <path d="M22.5449,12.918c-0.0635,0-0.1289-0.0122-0.1914-0.0381l-1.3867-0.5742c-0.2549-0.1055-0.376-0.3979-0.2705-0.6533
                    c0.1064-0.2544,0.3975-0.3765,0.6533-0.2705l1.3867,0.5742c0.2549,0.1055,0.376,0.3979,0.2705,0.6533
                    C22.9268,12.8018,22.7412,12.918,22.5449,12.918z"/>
            </g>
        </g>

        <g id="climacell_partly_cloudy_night" transform="scale(4.4)">
            <path fill-rule="evenodd" clip-rule="evenodd" d="M17.3018,10.4336l0.0908,0.3677l0.3789,0.0117
                c0.4255,0.0135,0.8248,0.1093,1.2029,0.2466c1.3015-0.1574,2.3879-1.0129,2.8618-2.1874
                c-0.2594,0.0605-0.5298,0.0925-0.8076,0.0925c-1.9585,0-3.5463-1.5878-3.5463-3.5462c0-0.4689,0.0909-0.9164,0.256-1.326
                c-1.3716,0.3194-2.4368,1.4349-2.6837,2.8329C16.1385,7.7931,16.9482,9.0055,17.3018,10.4336z"/>
            <path d="M10.9998,6.0003c2.7609,0,5.1527,1.8724,5.8164,4.5533l0.182,0.7352l0.7571,0.024
                c1.8193,0.0576,3.2445,1.5236,3.2445,3.3375c0,1.8472-1.5028,3.35-3.35,3.35h-12.4c-1.2406,0-2.25-1.0093-2.25-2.2499
                c0-0.921,0.5547-1.7391,1.4131-2.0842l0.6991-0.2811l-0.0774-0.7496c-0.0234-0.2261-0.0348-0.4339-0.0348-0.6351
                C4.9998,8.6919,7.6914,6.0003,10.9998,6.0003 M10.9998,5.0003c-3.866,0-7,3.1331-7,7.0001c0,0.2499,0.015,0.4958,0.04,0.738
                c-1.194,0.48-2.04,1.6449-2.04,3.012c0,1.794,1.4551,3.2499,3.25,3.2499h12.4c2.403,0,4.35-1.9479,4.35-4.35
                c0-2.3559-1.875-4.263-4.2129-4.337C17.0317,7.2634,14.2838,5.0003,10.9998,5.0003L10.9998,5.0003z"/>
        </g>

        <g id="climacell_rain" transform="scale(4.4)">
            <rect fill-rule="evenodd" clip-rule="evenodd" fill="none" width="24" height="24"/>
            <g>
                <path d="M10.9998,3c2.761,0,5.1527,1.8724,5.8163,4.5533l0.182,0.7353l0.7571,0.024c1.8195,0.0576,3.2446,1.5236,3.2446,3.3375
                c0,1.8472-1.5028,3.35-3.35,3.35h-12.4c-1.2406,0-2.25-1.0094-2.25-2.25c0-0.921,0.5547-1.7391,1.4131-2.0842l0.6992-0.2811
                L5.0345,9.6351C5.0111,9.4091,4.9998,9.2014,4.9998,9C4.9998,5.6916,7.6914,3,10.9998,3 M10.9998,2c-3.866,0-7,3.133-7,7
                c0,0.25,0.015,0.496,0.04,0.738c-1.194,0.48-2.04,1.645-2.04,3.012c0,1.794,1.4551,3.25,3.25,3.25h12.4
                c2.4031,0,4.35-1.948,4.35-4.35c0-2.356-1.875-4.263-4.213-4.337C17.0319,4.263,14.2838,2,10.9998,2L10.9998,2z"/>
            </g>
            <path fill-rule="evenodd" clip-rule="evenodd" d="M11.5342,19.04c-0.0645,0-0.1289-0.0122-0.1914-0.0381
            c-0.2549-0.1055-0.376-0.3984-0.2705-0.6533l0.4785-1.1548c0.1064-0.2559,0.4014-0.375,0.6533-0.2705
            c0.2549,0.1055,0.376,0.3984,0.2705,0.6533l-0.4785,1.1548C11.916,18.9238,11.7305,19.04,11.5342,19.04z M8.2598,18.7314
            l0.4785-1.1548c0.1055-0.2549-0.0156-0.5479-0.2705-0.6533c-0.2529-0.1045-0.5469,0.0146-0.6533,0.2705l-0.4785,1.1548
            c-0.1055,0.2549,0.0156,0.5479,0.2705,0.6533c0.0625,0.0259,0.127,0.0381,0.1914,0.0381C7.9941,19.04,8.1797,18.9238,8.2598,18.7314
            z M9.4062,21.6021l0.4785-1.1548c0.1055-0.2549-0.0156-0.5479-0.2705-0.6533c-0.2539-0.105-0.5469,0.0151-0.6533,0.2705
            l-0.4785,1.1548c-0.1055,0.2549,0.0156,0.5479,0.2705,0.6533c0.0625,0.0259,0.127,0.0381,0.1914,0.0381
            C9.1406,21.9106,9.3262,21.7944,9.4062,21.6021z M5.6631,21.6016l0.4775-1.1548c0.1055-0.2549-0.0156-0.5474-0.2705-0.6528
            c-0.2549-0.106-0.5488,0.0156-0.6533,0.271l-0.4775,1.1548c-0.1055,0.2549,0.0156,0.5474,0.2705,0.6528
            c0.0625,0.0259,0.1279,0.0381,0.1914,0.0381C5.3975,21.9106,5.584,21.7944,5.6631,21.6016z M4.5244,18.7314l0.4785-1.1553
            c0.1055-0.2554-0.0156-0.5479-0.2705-0.6533c-0.2559-0.1064-0.5469,0.0156-0.6533,0.2705l-0.4785,1.1553
            c-0.1055,0.2554,0.0156,0.5479,0.2705,0.6533C3.9336,19.0278,3.999,19.04,4.0625,19.04C4.2588,19.04,4.4443,18.9238,4.5244,18.7314z
            M19.4678,18.7314l0.4785-1.1548c0.1055-0.2549-0.0156-0.5479-0.2705-0.6533c-0.2529-0.1045-0.5469,0.0146-0.6533,0.2705
            l-0.4785,1.1548c-0.1055,0.2549,0.0156,0.5479,0.2705,0.6533c0.0625,0.0259,0.127,0.0381,0.1914,0.0381
            C19.2021,19.04,19.3877,18.9238,19.4678,18.7314z M15.7314,18.7314l0.4785-1.1548c0.1055-0.2549-0.0156-0.5479-0.2705-0.6533
            c-0.252-0.1045-0.5469,0.0146-0.6533,0.2705l-0.4785,1.1548c-0.1055,0.2549,0.0156,0.5479,0.2705,0.6533
            c0.0625,0.0259,0.127,0.0381,0.1914,0.0381C15.4658,19.04,15.6514,18.9238,15.7314,18.7314z M16.8945,21.6016l0.4775-1.1548
            c0.1055-0.2549-0.0156-0.5474-0.2705-0.6528c-0.2549-0.106-0.5479,0.0156-0.6533,0.271l-0.4775,1.1548
            c-0.1055,0.2549,0.0156,0.5474,0.2705,0.6528c0.0625,0.0259,0.1279,0.0381,0.1914,0.0381
            C16.6289,21.9106,16.8154,21.7944,16.8945,21.6016z M13.1504,21.6021l0.4785-1.1548c0.1055-0.2549-0.0156-0.5479-0.2705-0.6533
            c-0.2529-0.105-0.5469,0.0151-0.6533,0.2705l-0.4785,1.1548c-0.1055,0.2549,0.0156,0.5479,0.2705,0.6533
            c0.0625,0.0259,0.127,0.0381,0.1914,0.0381C12.8848,21.9106,13.0703,21.7944,13.1504,21.6021z"/>
        </g>


        <g id="climacell_rain_heavy" transform="scale(4.4)">
            <rect fill="none" width="24" height="24"/>
            <path fill-rule="evenodd" clip-rule="evenodd" d="M17.2613,22.1666L17.2613,22.1666c-0.2552-0.1059-0.3764-0.3983-0.2705-0.6535
            l1.6271-3.9261c0.1057-0.2552,0.3981-0.3764,0.6535-0.2707c0.2552,0.1059,0.3762,0.3985,0.2705,0.6536l-1.6271,3.9261
            C17.8091,22.1513,17.5163,22.2723,17.2613,22.1666 M2.9718,21.897l1.6271-3.9259c0.1057-0.2552-0.0154-0.5478-0.2705-0.6535
            c-0.2552-0.1057-0.5478,0.0153-0.6535,0.2705l-1.6271,3.9261c-0.1059,0.2552,0.0154,0.5478,0.2705,0.6535
            S2.8661,22.1524,2.9718,21.897 M6.7075,21.8968l1.6271-3.9261c0.1057-0.2552-0.0154-0.5478-0.2705-0.6535
            c-0.2552-0.1057-0.5478,0.0154-0.6535,0.2705l-1.6271,3.9263c-0.1057,0.2552,0.0154,0.5476,0.2705,0.6535
            C6.3092,22.2731,6.6018,22.1522,6.7075,21.8968 M10.4432,21.8965l1.6271-3.9261c0.1059-0.255-0.0154-0.5476-0.2705-0.6533
            c-0.2552-0.1059-0.5478,0.0154-0.6535,0.2705l-1.6271,3.9261c-0.1057,0.2552,0.0154,0.5478,0.2705,0.6535
            S10.3375,22.1518,10.4432,21.8965 M14.1789,21.8965l1.6272-3.9263c0.1057-0.2552-0.0155-0.5478-0.2705-0.6535
            c-0.2554-0.1057-0.5479,0.0153-0.6535,0.2705l-1.6272,3.9263c-0.1057,0.255,0.0155,0.5476,0.2705,0.6535
            C13.7806,22.2725,14.0734,22.1515,14.1789,21.8965 M16.0469,21.8963l0.3432-0.8289c0.1059-0.2552-0.0152-0.5476-0.2705-0.6535
            c-0.2552-0.1057-0.5476,0.0155-0.6535,0.2705l-0.3432,0.8289c-0.1059,0.2552,0.0154,0.5476,0.2705,0.6535
            C15.6486,22.2723,15.9412,22.1513,16.0469,21.8963 M12.3112,21.8965l0.3434-0.8287c0.1055-0.2552-0.0155-0.5478-0.2707-0.6535
            c-0.2552-0.1059-0.5478,0.0153-0.6535,0.2705l-0.3432,0.8289c-0.1059,0.255,0.0154,0.5476,0.2705,0.6533
            C11.9127,22.2727,12.2055,22.1516,12.3112,21.8965 M8.5753,21.8967l0.3434-0.8287c0.1057-0.255-0.0154-0.5476-0.2705-0.6535
            C8.393,20.3088,8.1004,20.43,7.9947,20.6852l-0.3434,0.8287c-0.1057,0.2552,0.0154,0.5478,0.2707,0.6535
            C8.177,22.2731,8.4696,22.152,8.5753,21.8967 M4.8396,21.8968l0.3434-0.8285c0.1057-0.2552-0.0155-0.5478-0.2707-0.6535
            c-0.255-0.1059-0.5478,0.0154-0.6535,0.2705l-0.3432,0.8289c-0.1057,0.255,0.0154,0.5476,0.2705,0.6535
            C4.4415,22.2732,4.7339,22.1522,4.8396,21.8968 M17.0603,19.4508l0.6138-1.4808c0.1055-0.2552-0.0155-0.5478-0.2707-0.6535
            c-0.2552-0.1057-0.5478,0.0155-0.6533,0.2707l-0.6138,1.4808c-0.1057,0.255,0.0155,0.5478,0.2705,0.6533
            C16.662,19.8272,16.9548,19.7059,17.0603,19.4508 M13.3246,19.4511l0.6136-1.4808c0.1059-0.2552-0.0154-0.5478-0.2705-0.6535
            c-0.2554-0.1057-0.5478,0.0153-0.6535,0.2705l-0.6136,1.4808c-0.1059,0.2552,0.0154,0.5479,0.2705,0.6535
            C12.9265,19.8275,13.2189,19.7063,13.3246,19.4511 M9.5889,19.4513l0.6136-1.4808c0.1057-0.2552-0.0154-0.5478-0.2705-0.6535
            c-0.2552-0.1057-0.5478,0.0155-0.6535,0.2705l-0.6136,1.481c-0.1059,0.255,0.0154,0.5478,0.2705,0.6535
            C9.1906,19.8277,9.4832,19.7065,9.5889,19.4513 M5.8532,19.4516l0.6136-1.4808c0.1057-0.2552-0.0155-0.5478-0.2707-0.6535
            c-0.255-0.1057-0.5478,0.0154-0.6535,0.2705l-0.6134,1.4808c-0.1057,0.2552,0.0154,0.5479,0.2705,0.6535
            C5.4549,19.8281,5.7475,19.7068,5.8532,19.4516"/>
            <g>
                <path d="M10.9994,2.9994c2.7609,0,5.1526,1.8724,5.8163,4.5533l0.182,0.7353l0.7571,0.0239
                c1.8195,0.0575,3.2446,1.5235,3.2446,3.3374c0,1.8472-1.5028,3.35-3.35,3.35h-12.4c-1.2406,0-2.25-1.0093-2.25-2.2499
                c0-0.921,0.5547-1.7391,1.4131-2.0842l0.6991-0.2811L5.0342,9.6346C5.0107,9.4085,4.9994,9.2008,4.9994,8.9995
                C4.9994,5.691,7.691,2.9994,10.9994,2.9994 M10.9994,1.9994c-3.866,0-7,3.1331-7,7.0001c0,0.2499,0.015,0.4959,0.04,0.738
                c-1.194,0.48-2.04,1.6449-2.04,3.012c0,1.794,1.4551,3.2499,3.25,3.2499h12.4c2.403,0,4.35-1.9479,4.35-4.35
                c0-2.3559-1.875-4.263-4.213-4.3369C17.0314,4.2625,14.2834,1.9994,10.9994,1.9994L10.9994,1.9994z"/>
            </g>
        </g>

        <g id="climacell_rain_light" transform="scale(4.4)">
            <rect fill="none" width="24" height="24"/>
            <path fill-rule="evenodd" clip-rule="evenodd" d="M11.5342,20.0402c-0.064,0-0.129-0.012-0.192-0.0381
            c-0.255-0.1059-0.376-0.399-0.27-0.6529l0.478-1.155c0.106-0.256,0.401-0.375,0.654-0.2711c0.255,0.1061,0.376,0.399,0.27,0.654
            l-0.478,1.1541C11.9162,19.9241,11.7302,20.0402,11.5342,20.0402 M4.5242,19.7312l0.479-1.155
            c0.105-0.255-0.016-0.5481-0.271-0.6531c-0.253-0.1059-0.547,0.015-0.653,0.27l-0.479,1.1561
            c-0.105,0.255,0.016,0.5471,0.271,0.6529c0.062,0.0261,0.127,0.0381,0.191,0.0381C4.2582,20.0402,4.4442,19.9241,4.5242,19.7312
            M19.4672,19.7312l0.479-1.1541c0.105-0.255-0.016-0.5479-0.271-0.654c-0.253-0.1039-0.547,0.015-0.653,0.2711l-0.478,1.155
            c-0.106,0.2539,0.015,0.5471,0.27,0.6529c0.063,0.0261,0.128,0.0381,0.191,0.0381C19.2012,20.0402,19.3882,19.9241,19.4672,19.7312
            M8.2602,19.7312l0.478-1.1541c0.106-0.255-0.015-0.5479-0.27-0.654c-0.253-0.1039-0.547,0.015-0.653,0.2711l-0.479,1.155
            c-0.105,0.2539,0.016,0.5471,0.271,0.6529c0.062,0.0261,0.127,0.0381,0.191,0.0381C7.9942,20.0402,8.1802,19.9241,8.2602,19.7312
            M15.7322,19.7312l0.478-1.1541c0.106-0.255-0.016-0.5479-0.27-0.654c-0.253-0.1039-0.548,0.015-0.654,0.2711l-0.478,1.155
            c-0.106,0.2539,0.015,0.5471,0.27,0.6529c0.063,0.0261,0.128,0.0381,0.192,0.0381C15.4652,20.0402,15.6522,19.9241,15.7322,19.7312" />
            <g>
                <path d="M10.9999,2.9999c2.7609,0,5.1526,1.8724,5.8163,4.5533l0.182,0.7352l0.757,0.024
                c1.8195,0.0577,3.2448,1.5237,3.2448,3.3376c0,1.8472-1.5028,3.35-3.35,3.35h-12.4c-1.2406,0-2.25-1.0094-2.25-2.2501
                c0-0.921,0.5547-1.7391,1.4131-2.0842l0.6992-0.2811L5.0347,9.6351C5.0112,9.4092,4.9999,9.2014,4.9999,9
                C4.9999,5.6916,7.6915,2.9999,10.9999,2.9999 M10.9999,1.9999c-3.866,0-7,3.1331-7,7.0001c0,0.2501,0.015,0.4961,0.04,0.738
                c-1.194,0.48-2.04,1.6451-2.04,3.012c0,1.794,1.4551,3.2501,3.25,3.2501h12.4c2.403,0,4.35-1.9481,4.35-4.35
                c0-2.356-1.875-4.263-4.213-4.3371C17.0319,4.263,14.2839,1.9999,10.9999,1.9999L10.9999,1.9999z"/>
            </g>
        </g>

        <g id="climacell_snow" transform="scale(4.4)">
            <rect x="0" y="0" fill="none" width="24" height="24"/>
            <g>
                <path d="M10.9999,2.9999c2.7609,0,5.1526,1.8724,5.8163,4.5533l0.182,0.7352l0.757,0.024
                c1.8195,0.0577,3.2448,1.5238,3.2448,3.3376c0,1.8472-1.5028,3.35-3.35,3.35h-12.4c-1.2406,0-2.25-1.0094-2.25-2.2501
                c0-0.921,0.5547-1.7391,1.4131-2.0842l0.6992-0.2811L5.0347,9.6351C5.0112,9.4092,4.9999,9.2014,4.9999,9
                C4.9999,5.6916,7.6915,2.9999,10.9999,2.9999 M10.9999,1.9999c-3.866,0-7,3.1331-7,7.0001c0,0.2501,0.015,0.4961,0.04,0.738
                c-1.194,0.48-2.04,1.6451-2.04,3.012c0,1.794,1.4551,3.2501,3.25,3.2501h12.4c2.403,0,4.35-1.9481,4.35-4.35
                c0-2.3561-1.875-4.263-4.213-4.3372C17.0319,4.263,14.2839,1.9999,10.9999,1.9999L10.9999,1.9999z"/>
            </g>
            <path d="M6.3198,19.6601l-0.8167,0.4714l0.8167,0.4714c0.2393,0.1382,0.3213,0.4438,0.1826,0.6831
            c-0.0918,0.1602-0.2607,0.25-0.4326,0.25c-0.085,0-0.1709-0.0215-0.25-0.0669l-0.8164-0.4713v0.943c0,0.2764-0.2236,0.5-0.5,0.5
            s-0.5-0.2236-0.5-0.5v-0.9435L3.186,21.4692c-0.0791,0.0454-0.165,0.0669-0.25,0.0669c-0.1719,0-0.3408-0.0898-0.4326-0.25
            c-0.1387-0.2393-0.0566-0.5449,0.1826-0.6831l0.8167-0.4714L2.686,19.6601c-0.2393-0.1382-0.3213-0.4438-0.1826-0.6831
            c0.1377-0.2388,0.4443-0.3203,0.6826-0.1831l0.8174,0.4719v-0.9435c0-0.2764,0.2236-0.5,0.5-0.5s0.5,0.2236,0.5,0.5v0.943
            l0.8164-0.4713c0.2383-0.1387,0.5449-0.0566,0.6826,0.1831C6.6411,19.2163,6.5591,19.5219,6.3198,19.6601z M21.314,20.603
            l-0.8167-0.4714l0.8167-0.4714c0.2393-0.1382,0.3213-0.4438,0.1826-0.6831c-0.1377-0.2397-0.4453-0.3218-0.6826-0.1831
            l-0.8174,0.4719v-0.9435c0-0.2764-0.2236-0.5-0.5-0.5s-0.5,0.2236-0.5,0.5v0.943l-0.8164-0.4713
            c-0.2383-0.1372-0.5449-0.0557-0.6826,0.1831c-0.1387,0.2393-0.0566,0.5449,0.1826,0.6831l0.8167,0.4714l-0.8167,0.4714
            c-0.2393,0.1382-0.3213,0.4438-0.1826,0.6831c0.0918,0.1602,0.2607,0.25,0.4326,0.25c0.085,0,0.1709-0.0215,0.25-0.0669
            l0.8164-0.4713v0.943c0,0.2764,0.2236,0.5,0.5,0.5s0.5-0.2236,0.5-0.5v-0.9435l0.8174,0.4719
            c0.0791,0.0454,0.165,0.0669,0.25,0.0669c0.1719,0,0.3408-0.0898,0.4326-0.25C21.6352,21.0468,21.5532,20.7412,21.314,20.603z
            M13.9995,18.977c-0.1377-0.2397-0.4443-0.3218-0.6826-0.1831l-0.8164,0.4713v-0.943c0-0.2764-0.2236-0.5-0.5-0.5
            s-0.5,0.2236-0.5,0.5v0.9435l-0.8174-0.4719c-0.2383-0.1372-0.5449-0.0557-0.6826,0.1831
            c-0.1387,0.2393-0.0566,0.5449,0.1826,0.6831l0.8167,0.4714l-0.8167,0.4714c-0.2393,0.1382-0.3213,0.4438-0.1826,0.6831
            c0.0918,0.1602,0.2607,0.25,0.4326,0.25c0.085,0,0.1709-0.0215,0.25-0.0669l0.8174-0.4719v0.9435c0,0.2764,0.2236,0.5,0.5,0.5
            s0.5-0.2236,0.5-0.5v-0.943l0.8164,0.4713c0.0791,0.0454,0.165,0.0669,0.25,0.0669c0.1719,0,0.3408-0.0898,0.4326-0.25
            c0.1387-0.2393,0.0566-0.5449-0.1826-0.6831l-0.8167-0.4714l0.8167-0.4714C14.0561,19.5219,14.1382,19.2163,13.9995,18.977z"/>
        </g>

        <g id="climacell_snow_heavy" transform="scale(4.4)">
            <rect x="0" y="0.0001" fill="none" width="24" height="24"/>
            <g>
                <path d="M10.9999,1c2.7609,0,5.1526,1.8724,5.8163,4.5533l0.182,0.7352l0.757,0.024c1.8195,0.0577,3.2448,1.5238,3.2448,3.3376
                c0,1.8472-1.5028,3.35-3.35,3.35h-12.4c-1.2406,0-2.25-1.0094-2.25-2.2501c0-0.921,0.5547-1.7391,1.4131-2.0842l0.6992-0.2811
                L5.0347,7.6351C5.0112,7.4092,4.9999,7.2015,4.9999,7.0001C4.9999,3.6916,7.6915,1,10.9999,1 M10.9999,0
                c-3.866,0-7,3.1331-7,7.0001c0,0.2501,0.015,0.4961,0.04,0.738c-1.194,0.48-2.04,1.6451-2.04,3.012
                c0,1.794,1.4551,3.2501,3.25,3.2501h12.4c2.403,0,4.35-1.9481,4.35-4.35c0-2.3561-1.875-4.263-4.213-4.3372
                C17.0319,2.2631,14.2839,0,10.9999,0L10.9999,0z"/>
            </g>
            <path d="M6.5029,18.2862c-0.0918,0.1602-0.2607,0.25-0.4326,0.25c-0.085,0-0.1709-0.0215-0.25-0.0669l-0.8174-0.4719v0.9435
            c0,0.2764-0.2236,0.5-0.5,0.5s-0.5-0.2236-0.5-0.5v-0.943l-0.8164,0.4713c-0.0791,0.0454-0.165,0.0669-0.25,0.0669
            c-0.1719,0-0.3408-0.0898-0.4326-0.25c-0.1387-0.2393-0.0566-0.5449,0.1826-0.6831l0.8167-0.4714l-0.8167-0.4714
            c-0.2393-0.1382-0.3213-0.4438-0.1826-0.6831c0.1377-0.2388,0.4443-0.3193,0.6826-0.1831l0.8164,0.4713v-0.943
            c0-0.2764,0.2236-0.5,0.5-0.5s0.5,0.2236,0.5,0.5v0.9435l0.8174-0.4719c0.2383-0.1377,0.5449-0.0562,0.6826,0.1831
            c0.1387,0.2393,0.0566,0.5449-0.1826,0.6831l-0.8167,0.4714l0.8167,0.4714C6.5596,17.7413,6.6416,18.0469,6.5029,18.2862z
            M21.3135,17.6031l-0.8167-0.4714l0.8167-0.4714c0.2393-0.1382,0.3213-0.4438,0.1826-0.6831
            c-0.1377-0.2393-0.4443-0.3208-0.6826-0.1831l-0.8164,0.4713v-0.943c0-0.2764-0.2236-0.5-0.5-0.5s-0.5,0.2236-0.5,0.5v0.9435
            l-0.8174-0.4719c-0.2373-0.1362-0.5449-0.0557-0.6826,0.1831c-0.1387,0.2393-0.0566,0.5449,0.1826,0.6831l0.8167,0.4714
            l-0.8167,0.4714c-0.2393,0.1382-0.3213,0.4438-0.1826,0.6831c0.0918,0.1602,0.2607,0.25,0.4326,0.25
            c0.085,0,0.1709-0.0215,0.25-0.0669l0.8174-0.4719v0.9435c0,0.2764,0.2236,0.5,0.5,0.5s0.5-0.2236,0.5-0.5v-0.943l0.8164,0.4713
            c0.0791,0.0454,0.165,0.0669,0.25,0.0669c0.1719,0,0.3408-0.0898,0.4326-0.25C21.6348,18.0469,21.5527,17.7413,21.3135,17.6031z
            M13.8164,17.6031L13,17.1317l0.8164-0.4714c0.2393-0.1382,0.3213-0.4438,0.1826-0.6831c-0.1377-0.2407-0.4443-0.3208-0.6826-0.1831
            L12.5,16.2654v-0.9431c0-0.2764-0.2236-0.5-0.5-0.5s-0.5,0.2236-0.5,0.5v0.9431l-0.8164-0.4714
            c-0.2383-0.1362-0.5449-0.0571-0.6826,0.1831c-0.1387,0.2393-0.0566,0.5449,0.1826,0.6831L11,17.1317l-0.8164,0.4714
            c-0.2393,0.1382-0.3213,0.4438-0.1826,0.6831c0.0918,0.1606,0.2607,0.25,0.4326,0.25c0.085,0,0.1709-0.0215,0.25-0.0669
            L11.5,17.9979v0.9431c0,0.2764,0.2236,0.5,0.5,0.5s0.5-0.2236,0.5-0.5v-0.9431l0.8164,0.4714
            c0.0791,0.0454,0.165,0.0669,0.25,0.0669c0.1719,0,0.3408-0.0894,0.4326-0.25C14.1377,18.0469,14.0557,17.7413,13.8164,17.6031z
            M10.251,19.8306c-0.1367-0.2397-0.4434-0.3203-0.6826-0.1831L8.752,20.1188v-0.943c0-0.2764-0.2236-0.5-0.5-0.5
            s-0.5,0.2236-0.5,0.5v0.9435l-0.8174-0.4719c-0.2383-0.1357-0.5449-0.0557-0.6826,0.1831
            c-0.1387,0.2393-0.0566,0.5449,0.1826,0.6831l0.8167,0.4714l-0.8167,0.4714c-0.2393,0.1382-0.3213,0.4438-0.1826,0.6831
            c0.0918,0.1602,0.2607,0.25,0.4326,0.25c0.085,0,0.1709-0.0215,0.25-0.0669L7.752,21.851v0.9435c0,0.2764,0.2236,0.5,0.5,0.5
            s0.5-0.2236,0.5-0.5v-0.943l0.8164,0.4713c0.0791,0.0454,0.165,0.0669,0.25,0.0669c0.1719,0,0.3408-0.0898,0.4326-0.25
            c0.1387-0.2393,0.0566-0.5449-0.1826-0.6831l-0.8167-0.4714l0.8167-0.4714C10.3076,20.3755,10.3896,20.0699,10.251,19.8306z
            M17.748,19.8306c-0.1377-0.2397-0.4434-0.3203-0.6826-0.1831l-0.8174,0.4719v-0.9435c0-0.2764-0.2236-0.5-0.5-0.5
            s-0.5,0.2236-0.5,0.5v0.943l-0.8164-0.4713c-0.2393-0.1357-0.5449-0.0557-0.6826,0.1831c-0.1387,0.2393-0.0566,0.5449,0.1826,0.6831
            l0.8167,0.4714l-0.8167,0.4714c-0.2393,0.1382-0.3213,0.4438-0.1826,0.6831c0.0918,0.1602,0.2607,0.25,0.4326,0.25
            c0.085,0,0.1709-0.0215,0.25-0.0669l0.8164-0.4713v0.943c0,0.2764,0.2236,0.5,0.5,0.5s0.5-0.2236,0.5-0.5V21.851l0.8174,0.4719
            c0.0791,0.0454,0.165,0.0669,0.25,0.0669c0.1719,0,0.3408-0.0898,0.4326-0.25c0.1387-0.2393,0.0566-0.5449-0.1826-0.6831
            l-0.8167-0.4714l0.8167-0.4714C17.8047,20.3755,17.8867,20.0699,17.748,19.8306z"/>
        </g>

        <g id="climacell_snow_light" transform="scale(4.4)">
            <rect x="0" y="0" fill="none" width="24" height="24"/>
            <g>
                <path d="M10.9999,2.9999c2.7609,0,5.1526,1.8724,5.8163,4.5533l0.182,0.7352l0.757,0.024
                c1.8195,0.0577,3.2448,1.5237,3.2448,3.3376c0,1.8472-1.5028,3.35-3.35,3.35h-12.4c-1.2406,0-2.25-1.0094-2.25-2.2501
                c0-0.921,0.5547-1.7391,1.4131-2.0842l0.6992-0.2811L5.0347,9.6351C5.0112,9.4092,4.9999,9.2015,4.9999,9
                C4.9999,5.6916,7.6915,2.9999,10.9999,2.9999 M10.9999,1.9999c-3.866,0-7,3.1331-7,7.0001c0,0.2501,0.015,0.4961,0.04,0.738
                c-1.194,0.48-2.04,1.6451-2.04,3.012c0,1.794,1.4551,3.2501,3.25,3.2501h12.4c2.403,0,4.35-1.9481,4.35-4.35
                c0-2.3561-1.875-4.263-4.213-4.3372C17.0319,4.263,14.2839,1.9999,10.9999,1.9999L10.9999,1.9999z"/>
            </g>
            <path d="M13.8164,20.603L13,20.1316l0.8164-0.4714c0.2393-0.1382,0.3213-0.4438,0.1826-0.6831
            c-0.1377-0.2407-0.4443-0.3213-0.6826-0.1831L12.5,19.2654v-0.9431c0-0.2764-0.2236-0.5-0.5-0.5s-0.5,0.2236-0.5,0.5v0.9431
            l-0.8164-0.4714c-0.2383-0.1367-0.5449-0.0566-0.6826,0.1831c-0.1387,0.2393-0.0566,0.5449,0.1826,0.6831L11,20.1316l-0.8164,0.4714
            c-0.2393,0.1382-0.3213,0.4438-0.1826,0.6831c0.0918,0.1606,0.2607,0.25,0.4326,0.25c0.085,0,0.1709-0.0215,0.25-0.0669
            L11.5,20.9978v0.9431c0,0.2764,0.2236,0.5,0.5,0.5s0.5-0.2236,0.5-0.5v-0.9431l0.8164,0.4714
            c0.0791,0.0454,0.165,0.0669,0.25,0.0669c0.1719,0,0.3408-0.0894,0.4326-0.25C14.1377,21.0469,14.0557,20.7412,13.8164,20.603z"/>
        </g>

        <g id="climacell_tstorm" transform="scale(4.4)">
            <rect fill="none" width="24" height="24"/>
            <path fill-rule="evenodd" clip-rule="evenodd" d="M16.7667,22.1674L16.7667,22.1674c-0.2552-0.1059-0.3764-0.3983-0.2705-0.6535
                l1.6271-3.9261c0.1057-0.2552,0.3981-0.3764,0.6535-0.2707c0.2552,0.1059,0.3762,0.3985,0.2705,0.6536l-1.6271,3.9261
                C17.3145,22.152,17.0217,22.2731,16.7667,22.1674 M2.9772,21.8977l1.6271-3.926c0.1057-0.2552-0.0154-0.5478-0.2705-0.6535
                c-0.2552-0.1057-0.5478,0.0154-0.6535,0.2705l-1.6271,3.9261c-0.1059,0.2552,0.0154,0.5478,0.2705,0.6535
                C2.5789,22.2741,2.8715,22.1531,2.9772,21.8977 M6.7129,21.8975l1.6271-3.9261c0.1057-0.2552-0.0154-0.5478-0.2705-0.6535
                c-0.2552-0.1057-0.5478,0.0154-0.6535,0.2705l-1.6271,3.9263c-0.1057,0.2552,0.0154,0.5476,0.2705,0.6535
                C6.3146,22.2738,6.6072,22.1529,6.7129,21.8975 M15.5522,21.897l0.3432-0.8289c0.1059-0.2552-0.0152-0.5476-0.2705-0.6535
                c-0.2552-0.1057-0.5476,0.0155-0.6535,0.2705l-0.3432,0.8289c-0.1059,0.2552,0.0154,0.5476,0.2705,0.6535
                C15.1539,22.2731,15.4465,22.152,15.5522,21.897 M8.5807,21.8973l0.3434-0.8287c0.1057-0.255-0.0154-0.5476-0.2705-0.6535
                c-0.2552-0.1057-0.5478,0.0155-0.6535,0.2707l-0.3434,0.8287c-0.1057,0.2552,0.0154,0.5478,0.2707,0.6535
                C8.1824,22.2738,8.4749,22.1527,8.5807,21.8973 M4.8449,21.8975l0.3434-0.8285c0.1057-0.2552-0.0155-0.5478-0.2707-0.6535
                c-0.255-0.1059-0.5478,0.0154-0.6535,0.2705l-0.3432,0.8289c-0.1057,0.255,0.0154,0.5476,0.2705,0.6535
                C4.4468,22.2739,4.7392,22.1529,4.8449,21.8975 M16.5657,19.4515l0.6138-1.4808c0.1055-0.2552-0.0155-0.5478-0.2707-0.6535
                c-0.2552-0.1057-0.5478,0.0155-0.6533,0.2707l-0.6138,1.4808c-0.1057,0.255,0.0155,0.5478,0.2705,0.6533
                C16.1674,19.8279,16.4602,19.7066,16.5657,19.4515 M5.8586,19.4523l0.6136-1.4808c0.1057-0.2552-0.0155-0.5478-0.2707-0.6535
                c-0.255-0.1057-0.5478,0.0154-0.6535,0.2705l-0.6134,1.4808c-0.1057,0.2552,0.0154,0.5479,0.2705,0.6535
                C5.4603,19.8288,5.7529,19.7075,5.8586,19.4523"/>
            <path fill-rule="evenodd" clip-rule="evenodd" d="M15.6378,13.6998h-2.9958l0.5339-3.1912c0.0674-0.4025-0.2429-0.769-0.6509-0.769
                H9.2763c-0.3258,0-0.6029,0.2375-0.6525,0.5594L7.709,16.2395c-0.0615,0.3997,0.2478,0.7604,0.6523,0.7604h2.5162l-0.0994,0.7466
                l-0.546,3.9535c-0.0312,0.2256,0.0563,0.4515,0.2314,0.5975c0.1091,0.0795,0.1091,0.0795,0.2322,0.1288
                c0.2874,0.0958,0.603-0.0162,0.7656-0.2718l4.7332-7.4405C16.4739,14.2747,16.1585,13.6998,15.6378,13.6998z"/>
            <path d="M17.7869,7.3133c-0.7551-3.0499-3.5031-5.313-6.7871-5.313c-3.866,0-7,3.1331-7,7.0001c0,0.2499,0.015,0.4958,0.04,0.738
                c-1.194,0.48-2.04,1.6449-2.04,3.012c0,1.794,1.4551,3.2499,3.25,3.2499h1.4844l0.1541-1H5.2498c-1.2406,0-2.25-1.0093-2.25-2.2499
                c0-0.921,0.5547-1.7391,1.4131-2.0842l0.6991-0.2811L5.0345,9.6355C5.0111,9.4094,4.9998,9.2016,4.9998,9.0004
                c0-3.3085,2.6917-6.0001,6-6.0001c2.7609,0,5.1527,1.8724,5.8164,4.5533l0.182,0.7352l0.7571,0.0239
                c1.8193,0.0575,3.2445,1.5235,3.2445,3.3374c0,1.8472-1.5028,3.35-3.35,3.35h-0.4962c-0.0356,0.0847-0.0652,0.1716-0.1155,0.2507
                l-0.4766,0.7493h1.0883c2.403,0,4.35-1.9479,4.35-4.35C21.9998,9.2944,20.1248,7.3872,17.7869,7.3133z"/>
            <path fill-rule="evenodd" clip-rule="evenodd" d="M24.0001,8.5821c0-1.851-1.4062-3.3494-3.1597-3.4077
                c-0.5664-2.3963-2.6272-4.1744-5.0903-4.1744c-1.4375,0-2.7334,0.6107-3.6799,1.592l1.0925,0.3585
                c0.7173-0.5899,1.6104-0.9507,2.5876-0.9507c1.9502,0,3.6426,1.3999,4.1162,3.4048l0.1768,0.7441l0.7637,0.0254
                c1.2295,0.0405,2.1934,1.0986,2.1934,2.4082c0,1.0565-0.6414,1.9471-1.5271,2.2752l0.1562,0.9901
                C22.9954,11.4419,24.0001,10.1431,24.0001,8.5821z"/>
        </g>

    </defs>

    <g transform="scale(1.2) translate(75 165)" id="currentweather">
        <use id="currentweathericon" href="icons/ICON_ONE.svg" />
    </g>


    <text id="alertmessage" x="0" y="35" font-size="30px" style="font-weight:bold;font-size:30px;line-height:0%;font-family:'Nimbus Mono PS';text-anchor:beginning">ALERT_MESSAGE</text>
    <text id="temphighlow" x="155" y="360" font-size="38px" style="font-size:38px;line-height:0%;font-family:'Nimbus Sans L';text-anchor:middle">HIGH_ONE/LOW_ONE</text>
    <text id="temphighlow" x="155" y="390" font-size="38px" style="font-size:28px;line-height:0%;font-family:'Nimbus Sans L';text-anchor:middle">WEATHER_DESC_1</text>
    <text id="temphighlow" x="155" y="415" font-size="38px" style="font-size:28px;line-height:0%;font-family:'Nimbus Sans L';text-anchor:middle">WEATHER_DESC_2</text>
    <path d="m 301.08466,394.8254 v 70 h 3 v -235.5 h -3 z" id="divider" inkscape:connector-curvature="0" />




    <g id="calendaricon" transform="scale(0.1) translate(3300,2000)">
        <path style="fill:#090509" d="M 506.645,89.372 C 502.609,76.437 491.008,66.87 476.738,66.87 h -31.782 v 49.326 c 0,26.284 -21.39,47.674 -47.674,47.674 -26.284,0 -47.674,-21.39 -47.674,-47.674 V 66.87 H 158.753 v 49.326 c 0,26.284 -21.39,47.674 -47.674,47.674 -26.284,0 -47.674,-21.39 -47.674,-47.674 V 66.87 H 31.782 c -14.27,0 -25.903,9.567 -29.907,22.502 H 0 v 387.365 c 0,17.544 14.239,31.782 31.782,31.782 h 444.955 c 17.544,0 31.782,-14.239 31.782,-31.782 V 89.372 Z M 476.737,476.737 H 31.782 v -254.26 h 444.955 z" id="path132" inkscape:connector-curvature="0" />
        <path style="fill:#090509" d="m 111.08,132.088 c 8.772,0 15.891,-7.119 15.891,-15.891 V 15.891 C 126.971,7.119 119.852,0 111.08,0 102.308,0 95.189,7.119 95.189,15.891 v 100.306 c 0,8.772 7.119,15.891 15.891,15.891 z" id="path134" inkscape:connector-curvature="0" />
        <path style="fill:#090509" d="m 397.281,132.088 c 8.74,0 15.891,-7.119 15.891,-15.891 V 15.891 C 413.172,7.119 406.021,0 397.281,0 388.541,0 381.39,7.119 381.39,15.891 v 100.306 c 0,8.772 7.151,15.891 15.891,15.891 z" id="path136" inkscape:connector-curvature="0" />
    </g>

    <text id="calendarentry1" x="330" y="255" font-size="29px" style="font-size:29px;line-height:0%;font-family:'Nimbus Sans L';text-anchor:beginning">
        <tspan x="330" dy="25" style="font-size:23px;">CAL_DATETIME_1</tspan>
        <tspan style="font-weight:bold;" x="330" dy="25">CAL_DESC_1</tspan>
    </text>

    <text id="calendarentry2" x="330" y="305" font-size="29px" style="font-size:29px;line-height:0%;font-family:'Nimbus Sans L';text-anchor:beginning">
        <tspan x="330" dy="25" style="font-size:23px;">CAL_DATETIME_2</tspan>
        <tspan style="font-weight:bold;" x="330" dy="25">CAL_DESC_2</tspan>
    </text>

    <text id="calendarentry3" x="330" y="355" font-size="29px" style="font-size:29px;line-height:0%;font-family:'Nimbus Sans L';text-anchor:beginning">
        <tspan x="330" dy="25" style="font-size:23px;">CAL_DATETIME_3</tspan>
        <tspan style="font-weight:bold;" x="330" dy="25">CAL_DESC_3</tspan>
    </text>

    <text id="calendarentry4" x="330" y="405" font-size="29px" style="font-size:29px;line-height:0%;font-family:'Nimbus Sans L';text-anchor:beginning">
        <tspan x="330" dy="25" style="font-size:23px;">CAL_DATETIME_4</tspan>
        <tspan style="font-weight:bold;" x="330" dy="25">CAL_DESC_4</tspan>
    </text>


    <text id="textday" x="600" y="75" style="text-anchor:middle;font-weight:600;font-size:47px;line-height:0%;font-family:'Nimbus Sans L';">DAY_NAME</text>

    <text id="textdate" x="600" y="130" style="text-anchor:middle;font-size:40px;line-height:0%;font-family:'Nimbus Sans L';">DAY_ONE</text>

    <text id="texttime" x="30" y="125" font-size="100px" style="font-weight:bold;font-size:100px;line-height:0%;font-family:'Nimbus Sans L';text-anchor:beginning">TIME_NOW</text>

</svg>
