<svg xmlns="http://www.w3.org/2000/svg">
    <path id="blizzard" d="m40.969,0.0010566c-1.0006,0.015157-2.0151,0.19516-3.0312,0.56249-0.43506,0.15727-1.228,0.5569-1.4062,0.68749-0.06475,0.047442-0.04471,0.094866,0.40625,0.90624l0.5,0.87499,0.375-0.21875c1.0499-0.55498,2.0713-0.78254,3.3125-0.78124,1.8787,0.00185,3.6166,0.6879,4.9375,2,0.9352,0.92897,1.6147,2.102,1.9062,3.3125,0.41842,1.7371,0.19508,3.5043-0.625,5.0624-1.0854,2.0622-3.1458,3.4496-5.5,3.7187-0.22746,0.02601-7.1115,0.03102-21.094,0.03125h-20.75v2h21.062l21.062-0.03125,0.46875-0.09375c1.9627-0.36965,3.611-1.2099,4.9375-2.5312,1.5461-1.54,2.4586-3.5881,2.625-5.8437,0.11542-1.5649-0.24926-3.3615-1-4.7812-1.111-2.099-2.963-3.6868-5.157-4.4063-1.026-0.3364-2.031-0.4839-3.031-0.46874zm23.781,0.125c-1.782,0.18419-3.361,0.71027-4.844,1.5624-2.428,1.3953-4.342,3.6561-5.281,6.2812-0.07242,0.20257-0.10195,0.3667-0.09375,0.375,0.0083,0.00827,0.40346,0.16682,0.90625,0.34375,0.70479,0.248,0.94506,0.28735,0.96875,0.25,0.0169-0.026648,0.05993-0.11557,0.09375-0.21875,0.08655-0.26389,0.33268-0.85474,0.5-1.1875,1.1642-2.3151,3.217-4.1125,5.6875-4.9374,1.0388-0.34686,2.0544-0.50129,3.125-0.49999,1.6064,0.00177,2.9752,0.32514,4.4062,1.0312,1.4656,0.72313,2.6236,1.6894,3.5625,2.9687,0.81055,1.1044,1.3278,2.2157,1.6562,3.5312,1.1791,4.7224-1.3093,9.6519-5.8438,11.531-1.331,0.55162-2.9948,0.8216-4.4062,0.71874-0.35108-0.02559-11.234-0.06227-32.844-0.0625h-32.344v2.0312l32.625,0.03125c17.948,0.0052,32.867-0.0051,33.156,0,2.8002,0.0493,5.8234-1.0739,7.9375-2.9687,1.1943-1.0704,2.0605-2.2173,2.75-3.5937,2.022-4.035,1.598-8.8132-1.093-12.437-1.884-2.537-4.614-4.1574-7.813-4.6562-0.625-0.09759-2.192-0.15786-2.812-0.09374zm-64.75,25.781v2h12.719c8.6705,0,12.845,0.0043,13.094,0.03125,2.1221,0.23064,4.0485,1.4088,5.1875,3.1562,0.46371,0.71139,0.85868,1.6855,1.0312,2.5312,0.31197,1.5289,0.09489,3.1277-0.625,4.5625-0.75782,1.5104-2.0875,2.7443-3.6562,3.375-1.9089,0.76738-3.985,0.66985-5.8438-0.25-0.2748-0.13599-0.4916-0.22705-0.5-0.21875-0.0083,0.0083-0.24197,0.38048-0.5,0.84374-0.42821,0.76868-0.46506,0.86205-0.40625,0.90624,0.11508,0.08644,0.84816,0.43906,1.1562,0.56249,0.80416,0.32216,1.7522,0.54006,2.625,0.62499,0.46505,0.04525,1.6095,0.0076,2.0625-0.0625,1.598-0.24716,2.966-0.78627,4.2188-1.7187,0.48023-0.35744,1.4115-1.3187,1.7812-1.8125,2.2148-2.9576,2.4239-6.9016,0.53125-10.094-0.70833-1.1946-1.5739-2.1151-2.7188-2.875-1.1243-0.74629-2.1973-1.1611-3.6562-1.4375-0.41249-0.07812-0.39749-0.08181-13.438-0.09375l-13.062-0.029zm68.438,2.4687-3.0312,1.9687,0,9.4686-5.2812-3-2.6875,1.5625,0,3.3125,7.8438,4.4687,0,6.2187-5.8438-3.125,0.03125,6.4374-5.5625-3.1875,0.03125-9.0937-3.0625-1.7812-2.5,1.6875,0,6.0937-8.25-4.7812-3.2188,1.6562,0,3.7812,8.375,4.5625-5.25,2.9375,0,3.4375,2.9062,1.4687,7.7812-4.5625,5.375,3.0937-5.375,3.3437,5.5312,3.1562,0.125,0.09375-5.4062,3.125-7.75-4.5937-3.0938,1.6875,0,3.4687,5.4375,2.7187-8.6562,4.7187,0,3.7812,3.5,1.5,8.25-4.6562,0,5.9687,2.5312,1.6562,2.9688-1.8437,0-8.9062,5.4375-3.1562,0,6.5937,5.6875-3.6562,0,6.2187-7.8438,4.4687,0,3.3125,2.6875,1.5625,5.2812-2.9687,0,9.4374l3.033,1.968,3.062-1.969v-9.4374l5.25,2.9687,2.6875-1.375v-3.5l-7.8438-4.4687v-6.2187l5.5625,3.375v-6.1874l5.7812,3.2812v8.9687l2.7812,1.5625,2.8125-1.5625v-5.9062l7.8125,4.4687,3.375-1.5625v-3.7187l-7.9688-4.7187,5-2.8125v-3.2187l-2.5625-1.8125-7.9688,4.4687-5.6875-3,5.5-3.1562-5.3438-3.3125,5.5312-3.5,7.9688,4.7187,2.6875-1.5v-3.375l-5.1875-2.9062,8.3125-4.7187v-3.5312l-2.9688-1.8125-8.5,4.5937v-6.2187l-2.9062-1.2812-2.75,1.2812v9.7186l-5.7188,3.125v-6.7499l-5.5312,3.375v-6.2187l8.0938-4.5937v-2.9687l-2.75-1.8437-5.4688,3.0625v-9.4686l-3.0625-1.9687zm-2.5,31.562,5.2812,0,2.5625,4.4687-2.4375,4.1562-5.2812,0-2.8125-4.1562,2.6875-4.4687z" />
</svg>