<svg xmlns="http://www.w3.org/2000/svg">
    <g id="clearnight" transform="scale(0.3)">
        <g>
            <path d="M313.283,275.341c-17.198,5.692-35.086,8.574-53.197,8.574c-93.377,0-169.347-75.96-169.347-169.353     c0-37.692,12.157-73.397,35.155-103.234c1.057-1.381,1.087-3.273,0.09-4.69c-1-1.398-2.795-2.011-4.443-1.453     C48.834,29.223,0,96.842,0,173.428C0,271.144,79.498,350.66,177.217,350.66c55.374,0,106.558-25.221,140.413-69.176     c1.075-1.375,1.105-3.267,0.108-4.672C316.735,275.395,314.927,274.789,313.283,275.341z" />
        </g>
        <g>
            <path d="M226.044,104.805l26.013-18.903l26.001,18.903l-9.932-30.571l26.001-18.897H261.99l-9.926-30.57l-9.927,30.57h-32.161     l26,18.897L226.044,104.805z" />
        </g>
        <g>
            <path d="M355.64,110.924h-13.162l-4.065-12.52l-4.071,12.52h-13.156l10.634,7.74l-4.059,12.514l10.646-7.734l10.64,7.734     l-4.059-12.514L355.64,110.924z" />
        </g>
    </g>
</svg>