<svg xmlns="http://www.w3.org/2000/svg">
    <path id="clear_sky_day" d="M47.812,0v17.062h4.469v-17.062h-4.469zm-19.718,4.875l-3.782,2.375,9,14.438,3.782-2.344-9-14.469zm44.187,0.4375l-8.25,14.906,3.938,2.187,8.219-14.906-3.907-2.1875zm-63.625,16.25l-2.1874,3.938,14.843,8.25,2.188-3.906-14.844-8.282zm41.406,0.657c-15.25,0-27.624,12.417-27.624,27.719,0,15.3,12.374,27.721,27.624,27.718,15.24,0,27.594-12.416,27.594-27.718s-12.356-27.719-27.594-27.719zm41.75,0.531l-14.718,8.531,2.218,3.907,14.719-8.532-2.219-3.906zm-91.812,23.688v4.468h17v-4.468h-17zm83,0.25v4.5h17v-4.5h-17zm-63.594,15.687l-14.406,9.031,2.3438,3.813,14.406-9.063-2.344-3.781zm60.5,0.969l-2.187,3.906,14.875,8.281,2.187-3.937-14.875-8.25zm-11.312,13.625l-3.875,2.219,8.5,14.781,3.875-2.25-8.5-14.75zm-37.156,0.093l-8.25,14.938,3.906,2.156,8.25-14.937-3.906-2.157zm16.093,5.876v17.062h4.469v-17.062h-4.469z" />
</svg>