<svg xmlns="http://www.w3.org/2000/svg">


    <g id="climacell_flurries" transform="scale(4.4)">
        <path d="M18.4042,22c-0.8018,0-1.5547-0.312-2.1211-0.8784c-0.1953-0.1953-0.1953-0.5117,0-0.707s0.5117-0.1953,0.707,0
        C17.3681,20.7919,17.8701,21,18.4042,21c1.1025,0,2-0.897,2-2s-0.8975-2-2-2H3.2499c-0.2764,0-0.5-0.2236-0.5-0.5
        s0.2236-0.5,0.5-0.5h15.1543c1.6543,0,3,1.3457,3,3S20.0585,22,18.4042,22z M13.9042,21c0-1.6543-1.3457-3-3-3H3.2499
        c-0.2764,0-0.5,0.2236-0.5,0.5s0.2236,0.5,0.5,0.5h7.6543c1.1025,0,2,0.897,2,2s-0.8975,2-2,2s-2-0.897-2-2
        c0-0.2764-0.2236-0.5-0.5-0.5s-0.5,0.2236-0.5,0.5c0,1.6543,1.3457,3,3,3S13.9042,22.6542,13.9042,21z" />
        <rect fill="none" width="24" height="24" />
        <g>
            <path d="M10.9999,1.9999c2.7609,0,5.1526,1.8724,5.8163,4.5533l0.182,0.7352l0.757,0.024
            c1.8195,0.0577,3.2448,1.5237,3.2448,3.3376c0,1.8472-1.5028,3.35-3.35,3.35h-12.4c-1.2406,0-2.25-1.0094-2.25-2.2501
            c0-0.921,0.5547-1.7391,1.4131-2.0842l0.6992-0.2811L5.0347,8.6351C5.0112,8.4092,4.9999,8.2015,4.9999,8
            C4.9999,4.6916,7.6915,1.9999,10.9999,1.9999 M10.9999,0.9999c-3.866,0-7,3.1331-7,7.0001c0,0.2501,0.015,0.4961,0.04,0.738
            c-1.194,0.48-2.04,1.6451-2.04,3.012c0,1.794,1.4551,3.2501,3.25,3.2501h12.4c2.403,0,4.35-1.9481,4.35-4.35
            c0-2.3561-1.875-4.263-4.213-4.3372C17.0319,3.263,14.2839,0.9999,10.9999,0.9999L10.9999,0.9999z" />
        </g>
    </g>
</svg>