<svg xmlns="http://www.w3.org/2000/svg">
    <g id="climacell_partly_cloudy_day" transform="scale(4.4)">
        <rect fill="none" width="24" height="24"/>
        <path fill-rule="evenodd" clip-rule="evenodd" d="M13.5633,6.5883C14.1184,6.2178,14.7838,6,15.4996,6c1.9297,0,3.5,1.5703,3.5,3.5
            c0,0.657-0.1931,1.2654-0.5095,1.7914c0.2981,0.1616,0.5735,0.3554,0.8163,0.5865C19.7392,11.1865,20,10.3759,20,9.4999
            c0-2.4852-2.0148-4.5-4.5-4.5c-1.1035,0-2.101,0.4127-2.8838,1.072C12.9476,6.2183,13.2628,6.3901,13.5633,6.5883z"/>
        <path d="M9.9998,6.0003c2.7609,0,5.1526,1.8724,5.8163,4.5533l0.182,0.7352l0.7571,0.024
            c1.8195,0.0576,3.2446,1.5235,3.2446,3.3374c0,1.8472-1.5028,3.35-3.35,3.35h-12.4c-1.2406,0-2.25-1.0093-2.25-2.2499
            c0-0.921,0.5547-1.7391,1.4131-2.0841l0.6991-0.2811l-0.0774-0.7496c-0.0234-0.2261-0.0348-0.4339-0.0348-0.6352
            C3.9998,8.6919,6.6914,6.0003,9.9998,6.0003 M9.9998,5.0003c-3.866,0-7,3.1331-7,7c0,0.2499,0.015,0.4959,0.04,0.738
            c-1.194,0.48-2.04,1.6448-2.04,3.012c0,1.794,1.4551,3.2499,3.25,3.2499h12.4c2.403,0,4.35-1.9479,4.35-4.35
            c0-2.3559-1.875-4.2629-4.213-4.3369C16.0317,7.2633,13.2838,5.0003,9.9998,5.0003L9.9998,5.0003z"/>
        <g>
            <path d="M13.1562,4.3413c-0.1963,0-0.3818-0.1162-0.4619-0.3086L12.1201,2.647c-0.1055-0.2549,0.0156-0.5474,0.2705-0.6533
                c0.2529-0.1045,0.5469,0.0151,0.6533,0.2705l0.5742,1.3857c0.1055,0.2549-0.0156,0.5474-0.2705,0.6533
                C13.2852,4.3291,13.2207,4.3413,13.1562,4.3413z"/>
        </g>
        <g>
            <path d="M21.1582,7.6558c-0.1963,0-0.3818-0.1162-0.4619-0.3091c-0.1055-0.2549,0.0156-0.5474,0.2705-0.6528l1.3867-0.5737
                c0.2578-0.105,0.5479,0.0161,0.6533,0.271s-0.0156,0.5474-0.2705,0.6528l-1.3867,0.5737
                C21.2871,7.6436,21.2217,7.6558,21.1582,7.6558z"/>
        </g>
        <g>
            <path d="M17.8438,4.3413c-0.0645,0-0.1289-0.0122-0.1914-0.0381c-0.2549-0.106-0.376-0.3984-0.2705-0.6533l0.5742-1.3857
                c0.1064-0.2554,0.4004-0.375,0.6533-0.2705c0.2549,0.106,0.376,0.3984,0.2705,0.6533l-0.5742,1.3857
                C18.2256,4.2251,18.04,4.3413,17.8438,4.3413z"/>
        </g>
        <g>
            <path d="M22.5449,12.918c-0.0635,0-0.1289-0.0122-0.1914-0.0381l-1.3867-0.5742c-0.2549-0.1055-0.376-0.3979-0.2705-0.6533
                c0.1064-0.2544,0.3975-0.3765,0.6533-0.2705l1.3867,0.5742c0.2549,0.1055,0.376,0.3979,0.2705,0.6533
                C22.9268,12.8018,22.7412,12.918,22.5449,12.918z"/>
        </g>
    </g>
</svg>