<svg xmlns="http://www.w3.org/2000/svg">
    <g id="climacell_tstorm" transform="scale(4.4)">
        <rect fill="none" width="24" height="24"/>
        <path fill-rule="evenodd" clip-rule="evenodd" d="M16.7667,22.1674L16.7667,22.1674c-0.2552-0.1059-0.3764-0.3983-0.2705-0.6535
            l1.6271-3.9261c0.1057-0.2552,0.3981-0.3764,0.6535-0.2707c0.2552,0.1059,0.3762,0.3985,0.2705,0.6536l-1.6271,3.9261
            C17.3145,22.152,17.0217,22.2731,16.7667,22.1674 M2.9772,21.8977l1.6271-3.926c0.1057-0.2552-0.0154-0.5478-0.2705-0.6535
            c-0.2552-0.1057-0.5478,0.0154-0.6535,0.2705l-1.6271,3.9261c-0.1059,0.2552,0.0154,0.5478,0.2705,0.6535
            C2.5789,22.2741,2.8715,22.1531,2.9772,21.8977 M6.7129,21.8975l1.6271-3.9261c0.1057-0.2552-0.0154-0.5478-0.2705-0.6535
            c-0.2552-0.1057-0.5478,0.0154-0.6535,0.2705l-1.6271,3.9263c-0.1057,0.2552,0.0154,0.5476,0.2705,0.6535
            C6.3146,22.2738,6.6072,22.1529,6.7129,21.8975 M15.5522,21.897l0.3432-0.8289c0.1059-0.2552-0.0152-0.5476-0.2705-0.6535
            c-0.2552-0.1057-0.5476,0.0155-0.6535,0.2705l-0.3432,0.8289c-0.1059,0.2552,0.0154,0.5476,0.2705,0.6535
            C15.1539,22.2731,15.4465,22.152,15.5522,21.897 M8.5807,21.8973l0.3434-0.8287c0.1057-0.255-0.0154-0.5476-0.2705-0.6535
            c-0.2552-0.1057-0.5478,0.0155-0.6535,0.2707l-0.3434,0.8287c-0.1057,0.2552,0.0154,0.5478,0.2707,0.6535
            C8.1824,22.2738,8.4749,22.1527,8.5807,21.8973 M4.8449,21.8975l0.3434-0.8285c0.1057-0.2552-0.0155-0.5478-0.2707-0.6535
            c-0.255-0.1059-0.5478,0.0154-0.6535,0.2705l-0.3432,0.8289c-0.1057,0.255,0.0154,0.5476,0.2705,0.6535
            C4.4468,22.2739,4.7392,22.1529,4.8449,21.8975 M16.5657,19.4515l0.6138-1.4808c0.1055-0.2552-0.0155-0.5478-0.2707-0.6535
            c-0.2552-0.1057-0.5478,0.0155-0.6533,0.2707l-0.6138,1.4808c-0.1057,0.255,0.0155,0.5478,0.2705,0.6533
            C16.1674,19.8279,16.4602,19.7066,16.5657,19.4515 M5.8586,19.4523l0.6136-1.4808c0.1057-0.2552-0.0155-0.5478-0.2707-0.6535
            c-0.255-0.1057-0.5478,0.0154-0.6535,0.2705l-0.6134,1.4808c-0.1057,0.2552,0.0154,0.5479,0.2705,0.6535
            C5.4603,19.8288,5.7529,19.7075,5.8586,19.4523"/>
        <path fill-rule="evenodd" clip-rule="evenodd" d="M15.6378,13.6998h-2.9958l0.5339-3.1912c0.0674-0.4025-0.2429-0.769-0.6509-0.769
            H9.2763c-0.3258,0-0.6029,0.2375-0.6525,0.5594L7.709,16.2395c-0.0615,0.3997,0.2478,0.7604,0.6523,0.7604h2.5162l-0.0994,0.7466
            l-0.546,3.9535c-0.0312,0.2256,0.0563,0.4515,0.2314,0.5975c0.1091,0.0795,0.1091,0.0795,0.2322,0.1288
            c0.2874,0.0958,0.603-0.0162,0.7656-0.2718l4.7332-7.4405C16.4739,14.2747,16.1585,13.6998,15.6378,13.6998z"/>
        <path d="M17.7869,7.3133c-0.7551-3.0499-3.5031-5.313-6.7871-5.313c-3.866,0-7,3.1331-7,7.0001c0,0.2499,0.015,0.4958,0.04,0.738
            c-1.194,0.48-2.04,1.6449-2.04,3.012c0,1.794,1.4551,3.2499,3.25,3.2499h1.4844l0.1541-1H5.2498c-1.2406,0-2.25-1.0093-2.25-2.2499
            c0-0.921,0.5547-1.7391,1.4131-2.0842l0.6991-0.2811L5.0345,9.6355C5.0111,9.4094,4.9998,9.2016,4.9998,9.0004
            c0-3.3085,2.6917-6.0001,6-6.0001c2.7609,0,5.1527,1.8724,5.8164,4.5533l0.182,0.7352l0.7571,0.0239
            c1.8193,0.0575,3.2445,1.5235,3.2445,3.3374c0,1.8472-1.5028,3.35-3.35,3.35h-0.4962c-0.0356,0.0847-0.0652,0.1716-0.1155,0.2507
            l-0.4766,0.7493h1.0883c2.403,0,4.35-1.9479,4.35-4.35C21.9998,9.2944,20.1248,7.3872,17.7869,7.3133z"/>
        <path fill-rule="evenodd" clip-rule="evenodd" d="M24.0001,8.5821c0-1.851-1.4062-3.3494-3.1597-3.4077
            c-0.5664-2.3963-2.6272-4.1744-5.0903-4.1744c-1.4375,0-2.7334,0.6107-3.6799,1.592l1.0925,0.3585
            c0.7173-0.5899,1.6104-0.9507,2.5876-0.9507c1.9502,0,3.6426,1.3999,4.1162,3.4048l0.1768,0.7441l0.7637,0.0254
            c1.2295,0.0405,2.1934,1.0986,2.1934,2.4082c0,1.0565-0.6414,1.9471-1.5271,2.2752l0.1562,0.9901
            C22.9954,11.4419,24.0001,10.1431,24.0001,8.5821z"/>
    </g>
</svg>