<svg xmlns="http://www.w3.org/2000/svg">
    <g id="climacell_snow_heavy" transform="scale(4.4)">
        <rect x="0" y="0.0001" fill="none" width="24" height="24" />
        <g>
            <path d="M10.9999,1c2.7609,0,5.1526,1.8724,5.8163,4.5533l0.182,0.7352l0.757,0.024c1.8195,0.0577,3.2448,1.5238,3.2448,3.3376
            c0,1.8472-1.5028,3.35-3.35,3.35h-12.4c-1.2406,0-2.25-1.0094-2.25-2.2501c0-0.921,0.5547-1.7391,1.4131-2.0842l0.6992-0.2811
            L5.0347,7.6351C5.0112,7.4092,4.9999,7.2015,4.9999,7.0001C4.9999,3.6916,7.6915,1,10.9999,1 M10.9999,0
            c-3.866,0-7,3.1331-7,7.0001c0,0.2501,0.015,0.4961,0.04,0.738c-1.194,0.48-2.04,1.6451-2.04,3.012
            c0,1.794,1.4551,3.2501,3.25,3.2501h12.4c2.403,0,4.35-1.9481,4.35-4.35c0-2.3561-1.875-4.263-4.213-4.3372
            C17.0319,2.2631,14.2839,0,10.9999,0L10.9999,0z" />
        </g>
        <path d="M6.5029,18.2862c-0.0918,0.1602-0.2607,0.25-0.4326,0.25c-0.085,0-0.1709-0.0215-0.25-0.0669l-0.8174-0.4719v0.9435
        c0,0.2764-0.2236,0.5-0.5,0.5s-0.5-0.2236-0.5-0.5v-0.943l-0.8164,0.4713c-0.0791,0.0454-0.165,0.0669-0.25,0.0669
        c-0.1719,0-0.3408-0.0898-0.4326-0.25c-0.1387-0.2393-0.0566-0.5449,0.1826-0.6831l0.8167-0.4714l-0.8167-0.4714
        c-0.2393-0.1382-0.3213-0.4438-0.1826-0.6831c0.1377-0.2388,0.4443-0.3193,0.6826-0.1831l0.8164,0.4713v-0.943
        c0-0.2764,0.2236-0.5,0.5-0.5s0.5,0.2236,0.5,0.5v0.9435l0.8174-0.4719c0.2383-0.1377,0.5449-0.0562,0.6826,0.1831
        c0.1387,0.2393,0.0566,0.5449-0.1826,0.6831l-0.8167,0.4714l0.8167,0.4714C6.5596,17.7413,6.6416,18.0469,6.5029,18.2862z
        M21.3135,17.6031l-0.8167-0.4714l0.8167-0.4714c0.2393-0.1382,0.3213-0.4438,0.1826-0.6831
        c-0.1377-0.2393-0.4443-0.3208-0.6826-0.1831l-0.8164,0.4713v-0.943c0-0.2764-0.2236-0.5-0.5-0.5s-0.5,0.2236-0.5,0.5v0.9435
        l-0.8174-0.4719c-0.2373-0.1362-0.5449-0.0557-0.6826,0.1831c-0.1387,0.2393-0.0566,0.5449,0.1826,0.6831l0.8167,0.4714
        l-0.8167,0.4714c-0.2393,0.1382-0.3213,0.4438-0.1826,0.6831c0.0918,0.1602,0.2607,0.25,0.4326,0.25
        c0.085,0,0.1709-0.0215,0.25-0.0669l0.8174-0.4719v0.9435c0,0.2764,0.2236,0.5,0.5,0.5s0.5-0.2236,0.5-0.5v-0.943l0.8164,0.4713
        c0.0791,0.0454,0.165,0.0669,0.25,0.0669c0.1719,0,0.3408-0.0898,0.4326-0.25C21.6348,18.0469,21.5527,17.7413,21.3135,17.6031z
        M13.8164,17.6031L13,17.1317l0.8164-0.4714c0.2393-0.1382,0.3213-0.4438,0.1826-0.6831c-0.1377-0.2407-0.4443-0.3208-0.6826-0.1831
        L12.5,16.2654v-0.9431c0-0.2764-0.2236-0.5-0.5-0.5s-0.5,0.2236-0.5,0.5v0.9431l-0.8164-0.4714
        c-0.2383-0.1362-0.5449-0.0571-0.6826,0.1831c-0.1387,0.2393-0.0566,0.5449,0.1826,0.6831L11,17.1317l-0.8164,0.4714
        c-0.2393,0.1382-0.3213,0.4438-0.1826,0.6831c0.0918,0.1606,0.2607,0.25,0.4326,0.25c0.085,0,0.1709-0.0215,0.25-0.0669
        L11.5,17.9979v0.9431c0,0.2764,0.2236,0.5,0.5,0.5s0.5-0.2236,0.5-0.5v-0.9431l0.8164,0.4714
        c0.0791,0.0454,0.165,0.0669,0.25,0.0669c0.1719,0,0.3408-0.0894,0.4326-0.25C14.1377,18.0469,14.0557,17.7413,13.8164,17.6031z
        M10.251,19.8306c-0.1367-0.2397-0.4434-0.3203-0.6826-0.1831L8.752,20.1188v-0.943c0-0.2764-0.2236-0.5-0.5-0.5
        s-0.5,0.2236-0.5,0.5v0.9435l-0.8174-0.4719c-0.2383-0.1357-0.5449-0.0557-0.6826,0.1831
        c-0.1387,0.2393-0.0566,0.5449,0.1826,0.6831l0.8167,0.4714l-0.8167,0.4714c-0.2393,0.1382-0.3213,0.4438-0.1826,0.6831
        c0.0918,0.1602,0.2607,0.25,0.4326,0.25c0.085,0,0.1709-0.0215,0.25-0.0669L7.752,21.851v0.9435c0,0.2764,0.2236,0.5,0.5,0.5
        s0.5-0.2236,0.5-0.5v-0.943l0.8164,0.4713c0.0791,0.0454,0.165,0.0669,0.25,0.0669c0.1719,0,0.3408-0.0898,0.4326-0.25
        c0.1387-0.2393,0.0566-0.5449-0.1826-0.6831l-0.8167-0.4714l0.8167-0.4714C10.3076,20.3755,10.3896,20.0699,10.251,19.8306z
        M17.748,19.8306c-0.1377-0.2397-0.4434-0.3203-0.6826-0.1831l-0.8174,0.4719v-0.9435c0-0.2764-0.2236-0.5-0.5-0.5
        s-0.5,0.2236-0.5,0.5v0.943l-0.8164-0.4713c-0.2393-0.1357-0.5449-0.0557-0.6826,0.1831c-0.1387,0.2393-0.0566,0.5449,0.1826,0.6831
        l0.8167,0.4714l-0.8167,0.4714c-0.2393,0.1382-0.3213,0.4438-0.1826,0.6831c0.0918,0.1602,0.2607,0.25,0.4326,0.25
        c0.085,0,0.1709-0.0215,0.25-0.0669l0.8164-0.4713v0.943c0,0.2764,0.2236,0.5,0.5,0.5s0.5-0.2236,0.5-0.5V21.851l0.8174,0.4719
        c0.0791,0.0454,0.165,0.0669,0.25,0.0669c0.1719,0,0.3408-0.0898,0.4326-0.25c0.1387-0.2393,0.0566-0.5449-0.1826-0.6831
        l-0.8167-0.4714l0.8167-0.4714C17.8047,20.3755,17.8867,20.0699,17.748,19.8306z" />
    </g>
</svg>