<svg xmlns="http://www.w3.org/2000/svg">
    <g id="climacell_mostly_clear_day" transform="scale(4.4)">
        <path fill-rule="evenodd" clip-rule="evenodd" d="M11.3215,3.5328L11.3215,3.5328c-0.2551,0.1057-0.5476-0.0155-0.6533-0.2706
            L9.9028,1.4145c-0.1057-0.2551,0.0155-0.5476,0.2706-0.6533l0,0c0.2551-0.1057,0.5476,0.0155,0.6533,0.2706l0.7654,1.8478
            C11.6977,3.1347,11.5766,3.4272,11.3215,3.5328z" />
        <path fill-rule="evenodd" clip-rule="evenodd" d="M23.239,6.1732L23.239,6.1732c0.1057,0.2551-0.0155,0.5476-0.2706,0.6533
            l-1.8478,0.7654c-0.2551,0.1057-0.5476-0.0155-0.6533-0.2706v0c-0.1057-0.2551,0.0155-0.5476,0.2706-0.6533l1.8478-0.7654
            C22.8409,5.7969,23.1334,5.918,23.239,6.1732z" />
        <path fill-rule="evenodd" clip-rule="evenodd" d="M16.679,3.5328L16.679,3.5328c-0.2551-0.1057-0.3763-0.3982-0.2706-0.6533
            l0.7654-1.8478c0.1057-0.2551,0.3982-0.3763,0.6533-0.2706l0,0c0.2551,0.1057,0.3763,0.3982,0.2706,0.6533l-0.7654,1.8478
            C17.2266,3.5174,16.9342,3.6385,16.679,3.5328z" />
        <path fill-rule="evenodd" clip-rule="evenodd" d="M7.5331,7.3212L7.5331,7.3212C7.4274,7.5763,7.1349,7.6975,6.8798,7.5918
            L5.0321,6.8264C4.7769,6.7208,4.6558,6.4283,4.7615,6.1732l0,0C4.8671,5.918,5.1596,5.7969,5.4147,5.9026l1.8478,0.7654
            C7.5176,6.7736,7.6388,7.0661,7.5331,7.3212z" />
        <path fill-rule="evenodd" clip-rule="evenodd" d="M23.239,13.8268L23.239,13.8268c-0.1057,0.2551-0.3982,0.3763-0.6533,0.2706
            l-1.8478-0.7654c-0.2551-0.1057-0.3763-0.3982-0.2706-0.6533v0c0.1057-0.2551,0.3982-0.3763,0.6533-0.2706l1.8478,0.7654
            C23.2236,13.2792,23.3447,13.5717,23.239,13.8268z" />
        <path fill-rule="evenodd" clip-rule="evenodd" d="M11.3214,3.5329L11.3214,3.5329c-0.2551,0.1057-0.5476-0.0155-0.6533-0.2706
            L9.9027,1.4145C9.797,1.1594,9.9182,0.8669,10.1733,0.7613l0,0c0.2551-0.1057,0.5476,0.0155,0.6533,0.2706l0.7654,1.8478
            C11.6976,3.1347,11.5765,3.4272,11.3214,3.5329z" />
        <path fill-rule="evenodd" clip-rule="evenodd" d="M23.2389,6.1732L23.2389,6.1732c0.1057,0.2551-0.0155,0.5476-0.2706,0.6533
            l-1.8478,0.7654c-0.2551,0.1057-0.5476-0.0155-0.6533-0.2706v0c-0.1057-0.2551,0.0155-0.5476,0.2706-0.6533l1.8478-0.7654
            C22.8408,5.7969,23.1333,5.9181,23.2389,6.1732z" />
        <path fill-rule="evenodd" clip-rule="evenodd" d="M16.6789,3.5329L16.6789,3.5329c-0.2551-0.1057-0.3763-0.3982-0.2706-0.6533
            l0.7654-1.8478c0.1057-0.2551,0.3982-0.3763,0.6533-0.2706l0,0c0.2551,0.1057,0.3763,0.3982,0.2706,0.6533l-0.7654,1.8478
            C17.2265,3.5174,16.934,3.6386,16.6789,3.5329z" />
        <path fill-rule="evenodd" clip-rule="evenodd" d="M7.533,7.3213L7.533,7.3213C7.4273,7.5764,7.1348,7.6975,6.8797,7.5919
            L5.0319,6.8265C4.7768,6.7208,4.6557,6.4283,4.7613,6.1732l0,0C4.867,5.9181,5.1595,5.7969,5.4146,5.9026L7.2624,6.668
            C7.5175,6.7737,7.6387,7.0661,7.533,7.3213z" />
        <rect x="0.0002" fill="none" width="24" height="24" />
        <path fill-rule="evenodd" clip-rule="evenodd" d="M9.0005,9.5004c0.0168,0,0.0327,0.004,0.0494,0.0042
            C9.303,6.9828,11.4127,5,13.9999,5c2.7568,0,5,2.2432,5,5c0,2.2724-1.5334,4.1741-3.613,4.7798l0.0052,0.0213l0.3789,0.0117
            c0.4835,0.0154,0.9387,0.1255,1.3593,0.299c1.7192-1.0551,2.87-2.9467,2.87-5.1118c0-3.3137-2.6863-6-6-6
            c-3.1727,0-5.7635,2.4643-5.9789,5.5823C8.3416,9.5336,8.6668,9.5004,9.0005,9.5004z" />
        <path d="M9,10.0003c2.7609,0,5.1526,1.8724,5.8163,4.5533l0.182,0.7352l0.7571,0.024C17.5748,15.3704,19,16.8364,19,18.6503
            c0,1.8472-1.5028,3.35-3.35,3.35H3.25c-1.2406,0-2.25-1.0093-2.25-2.25c0-0.921,0.5547-1.7391,1.4131-2.0842l0.6992-0.2811
            l-0.0775-0.7496C3.0114,16.4094,3,16.2017,3,16.0003C3,12.6919,5.6917,10.0003,9,10.0003 M9,9.0003c-3.866,0-7,3.133-7,7
            c0,0.25,0.015,0.496,0.04,0.738c-1.194,0.48-2.04,1.645-2.04,3.012c0,1.794,1.4551,3.25,3.25,3.25h12.4
            c2.403,0,4.35-1.948,4.35-4.35c0-2.356-1.875-4.263-4.213-4.337C15.032,11.2633,12.2841,9.0003,9,9.0003L9,9.0003z" />
    </g>
</svg>