<svg xmlns="http://www.w3.org/2000/svg">
    <path id="cold" d="M50,3.7812c-2.236,0.0561-4.242,0.829-5.812,2.125-1.961,1.617-3.219,4.0237-3.219,6.8438v55.812c-3.922,2.948-6.232,7.407-6.25,12.282-0.016,6.461,3.926,11.869,9.469,14.156,1.794,0.741,3.729,1.176,5.781,1.188,1.847,0.01,3.627-0.31,5.25-0.907,5.859-2.136,9.957-7.823,10.062-14.156,0.08-4.963-2.228-9.545-6.25-12.563v-56.218c0-2.9794-1.517-5.4549-3.812-6.969-1.479-0.978-3.296-1.5446-5.219-1.5938zm0,4c1.071,0.0273,2.082,0.3302,2.906,0.875,1.279,0.8435,2.125,2.2468,2.125,3.9058v18.75,30.563,8.937c3.707,1.85,6.25,5.67,6.25,10.094,0,6.231-5.05,11.282-11.281,11.282s-11.281-5.051-11.281-11.282c0-4.424,2.543-8.244,6.25-10.094v-8.937-30.344-18.75c0-1.571,0.689-2.9114,1.781-3.8122,0.875-0.7221,2.004-1.1564,3.25-1.1876zm-3.031,54.094v10.25c-3.636,1.258-6.25,4.718-6.25,8.781,0,5.127,4.155,9.282,9.281,9.282,5.127,0,9.281-4.155,9.281-9.282,0-4.063-2.614-7.523-6.25-8.781v-10.25h-6.062z" />
</svg>