<svg xmlns="http://www.w3.org/2000/svg">
    <g id="day_partly_cloudy_rain" transform="scale(0.22)">
        <path style="stroke-width:1" d="M 322.26562 66.265625 C 278.18981 66.265625 238.17143 89.293191 215.97852 126.87305 C 203.86856 120.25107 190.3459 116.48662 176.25195 116.01562 C 151.53705 115.19764 128.12302 124.1924 110.37109 141.36133 C 94.35316 156.85127 84.828275 177.12916 83.113281 199.08008 C 61.586365 200.76907 41.604596 210.00015 26.222656 225.49609 C 9.1357234 242.71003 -0.17509305 265.55155 0.00390625 289.81445 C 0.37090482 339.24826 41.357242 379.46484 91.373047 379.46484 L 265.06836 379.46484 C 269.21134 379.46484 272.56836 376.10783 272.56836 371.96484 C 272.56836 367.82186 269.21134 364.46484 265.06836 364.46484 L 91.373047 364.46484 C 49.56721 364.46484 15.309905 330.92696 15.003906 289.70312 C 14.853907 269.46721 22.618243 250.41649 36.867188 236.06055 C 51.118131 221.7056 70.107064 213.79883 90.333984 213.79883 C 94.476968 213.79883 97.833984 210.44181 97.833984 206.29883 C 97.833984 185.69991 105.98984 166.46752 120.80078 152.14258 C 135.60272 137.82663 155.10299 130.30177 175.75391 131.00977 C 215.86575 132.34976 248.5 166.591 248.5 207.33984 C 248.5 229.17176 266.26184 246.93359 288.09375 246.93359 L 321.2793 246.93359 C 353.80917 246.93359 380.6143 272.94414 381.0293 304.91602 C 381.2343 320.76895 375.21775 335.70851 364.0918 346.98047 C 352.96184 358.25542 338.10952 364.46484 322.26758 364.46484 L 295.06836 364.46484 C 290.92538 364.46484 287.56836 367.82186 287.56836 371.96484 C 287.56836 376.10783 290.92538 379.46484 295.06836 379.46484 L 322.26758 379.46484 C 342.1525 379.46484 360.79763 371.66952 374.76758 357.51758 C 388.73552 343.36763 396.28634 324.61763 396.02734 304.7207 C 395.96234 299.67572 395.3744 294.75017 394.31641 289.99219 C 426.60628 266.77928 445.73242 229.70127 445.73242 189.73242 C 445.73242 162.30953 436.93123 136.34259 420.2793 114.63867 C 417.75831 111.35368 413.05066 110.73192 409.76367 113.25391 C 406.47768 115.7749 405.85792 120.48254 408.37891 123.76953 C 423.00285 142.83146 430.73242 165.64052 430.73242 189.73242 C 430.73242 223.30829 415.36574 254.56239 389.21484 275.07031 C 377.35089 249.67541 351.27018 231.93164 321.2793 231.93164 L 288.09375 231.93164 C 274.5328 231.93164 263.49805 220.89884 263.49805 207.33789 C 263.49805 183.65998 254.52822 161.1706 238.23828 144.01367 C 235.18629 140.79968 231.93842 137.84147 228.52344 135.14648 C 247.94736 101.75761 283.30079 81.265625 322.26562 81.265625 C 346.47653 81.265625 369.37436 89.066319 388.48828 103.82227 C 391.76327 106.35226 396.47482 105.74778 399.00781 102.4668 C 401.5388 99.188807 400.93428 94.479256 397.6543 91.947266 C 375.89238 75.145331 349.82452 66.265625 322.26562 66.265625 z " id="path10" />
        <path d="m322.268 48.134c4.143 0 7.5-3.357 7.5-7.5v-33.134c0-4.143-3.357-7.5-7.5-7.5s-7.5 3.357-7.5 7.5v33.134c0 4.142 3.357 7.5 7.5 7.5z" id="path12" />
        <path d="m211.534 89.607c1.465 1.464 3.385 2.196 5.304 2.196s3.839-.732 5.304-2.196c2.929-2.93 2.929-7.678 0-10.607l-23.429-23.429c-2.93-2.928-7.678-2.928-10.607 0-2.929 2.93-2.929 7.678 0 10.607z" id="path14" />
        <path d="m433.001 289.859c-2.93-2.928-7.678-2.928-10.607 0-2.929 2.93-2.929 7.678 0 10.607l23.429 23.429c1.465 1.464 3.385 2.196 5.304 2.196s3.839-.732 5.304-2.196c2.929-2.93 2.929-7.678 0-10.607z" id="path16" />
        <path d="m504.501 182.233h-33.134c-4.143 0-7.5 3.357-7.5 7.5s3.357 7.5 7.5 7.5h33.134c4.143 0 7.5-3.357 7.5-7.5 0-4.142-3.357-7.5-7.5-7.5z" id="path18" />
        <path d="m445.823 55.571-23.429 23.429c-2.929 2.93-2.929 7.678 0 10.607 1.465 1.464 3.385 2.196 5.304 2.196s3.839-.732 5.304-2.196l23.429-23.429c2.929-2.93 2.929-7.678 0-10.607-2.931-2.927-7.679-2.927-10.608 0z" id="path20" />
        <path d="m159.955 398.392c-3.707-1.855-8.211-.351-10.063 3.353l-16.566 33.134c-1.852 3.705-.351 8.21 3.354 10.063 1.077.539 2.222.794 3.349.794 2.751 0 5.4-1.52 6.714-4.148l16.566-33.134c1.852-3.705.35-8.21-3.354-10.062z" id="path22" />
        <path d="m242.789 398.392c-3.706-1.852-8.211-.351-10.063 3.353l-16.567 33.134c-1.852 3.705-.351 8.21 3.354 10.063 1.077.538 2.222.794 3.349.794 2.751 0 5.4-1.52 6.714-4.148l16.567-33.134c1.852-3.705.35-8.21-3.354-10.062z" id="path24" />
        <path d="m 78.022348,398.28727 c -3.707,-1.854 -8.211,-0.352 -10.063,3.353 l -16.566,33.134 c -1.853,3.705 -0.351,8.21 3.354,10.063 1.077,0.539 2.222,0.794 3.349,0.794 2.751,0 5.4,-1.52 6.714,-4.148 l 16.566,-33.134 c 1.852,-3.704 0.35,-8.209 -3.354,-10.062 z" id="path28" />
        <path d="m325.622 398.392c-3.707-1.855-8.211-.351-10.063 3.353l-16.566 33.134c-1.853 3.705-.351 8.21 3.354 10.063 1.077.539 2.222.794 3.349.794 2.751 0 5.4-1.52 6.714-4.148l16.566-33.134c1.852-3.705.35-8.21-3.354-10.062z" id="path30" />
        <path style="fill:none;stroke:#000000;stroke-width:14.9000582;stroke-linecap:butt;stroke-linejoin:miter;stroke-miterlimit:4;stroke-dasharray:none;stroke-opacity:1" d="m 416.72246,122.31678 c -3.28666,-4.46835 -6.88903,-8.70444 -10.77136,-12.66622 -2.61766,-2.67123 -5.36147,-5.21698 -8.17788,-7.67777 -2.85575,-2.495168 -5.78704,-4.903877 -8.7885,-7.221715" id="path908" />
        <path style="fill:none;stroke:#000000;stroke-width:15.00005817;stroke-linecap:butt;stroke-linejoin:miter;stroke-miterlimit:4;stroke-dasharray:none;stroke-opacity:1" d="m 261.74318,371.95963 h 40.36253" id="path914" />
    </g>
</svg>