<svg xmlns="http://www.w3.org/2000/svg">
    <path id="drought" d="M51.312,0c-5.182,0-9.974,1.68-13.874,4.5h27.687c-3.879-2.82-8.641-4.5-13.813-4.5zm-18.312,8.625c-1.135,1.375-2.102,2.891-2.906,4.5h42.312c-0.806-1.614-1.771-3.121-2.906-4.5h-36.5zm-4.5,8.625c-0.41,1.451-0.686,2.95-0.812,4.5h63.718c-2.932-1.897-6.403-3-10.156-3-2.34,0-4.568,0.47-6.625,1.25-0.15-0.948-0.368-1.843-0.625-2.75h-45.5zm-7.438,8.625c-2.04,1.037-3.774,2.58-5,4.5h82.532c-0.668-1.626-1.551-3.141-2.625-4.5h-74.907zm-6.718,8.625c-0.192,0.879-0.282,1.814-0.282,2.75,0,0.087,0.032,0.163,0.032,0.25-1.008-0.302-2.054-0.531-3.156-0.531-2.3638,0-4.5566,0.758-6.3442,2.031h95.344c0.038-0.499,0.062-0.991,0.062-1.5,0-1.025-0.092-2.02-0.25-3h-85.406zm-13.25,8.625c-0.66562,1.366-1.0531,2.889-1.0938,4.5h97.031c0.893-1.385,1.589-2.896,2.094-4.5h-98.031zm-0.25005,8.625c1.6598,3.194,5.5612,4.5,10.094,4.5h70.312c4.652,0,8.91-1.698,12.188-4.5h-92.594zm38.468,10.75c-0.759-0.008-1.556,0.309-2.25,0.938-1.335,1.169-1.566,2.837-1.562,4.343,0,0.72,0.028,1.412,0.062,2.094-0.312-0.273-0.654-0.545-1.093-0.813-0.923-0.583-1.719-0.901-2.5-0.906-1.983,0.081-2.569,1.987-2.625,4.063-2.107,1.723-2.485,8.9,1.25,7.656,2.024-0.679,2.888-3.279,2.687-5.063,0,0-0.133-2.52-2.406-2.906,0.113-1.699,0.571-2.25,1.094-2.25,0.322-0.007,0.906,0.152,1.687,0.656,1.414,0.98,1.839,1.344,2,2.25,0.022,0.858,0.123,2.878,0.125,2.969,0.215,3.013,0.671,5.308,1,8.344h-15.375l2.406,1.125,10.188,3.406,9.406-1.625,6.594,2.313,5.219-1.625,1.562-3.594h-17.75c-0.332-3.103-1.537-5.565-1.75-8.563,0.025-1.026,0.014-1.776-0.125-2.75-0.014-0.558-0.062-1.052-0.062-1.624,0-1.092-0.094-2.176-0.094-3.157,0.005-1.388,0.215-2.473,1.062-3.219,0.506-0.442,0.912-0.556,1.25-0.562,0.889-0.094,2.063,1.286,2.657,2.844-0.523,0.425-0.813,0.812-0.813,0.812-2.021,2.831,5.595,10.919,8.625,6.563,1.297-1.864-0.371-7.221-3.437-8.281-1.201-0.418-2.252-0.24-3.094,0.124-0.718-1.754-1.95-3.466-3.938-3.562zm4.282,4.281s3.683,2.507,4.718,6.969l-5.781-6.312,1.063-0.657zm-13.032,6.063l-1.031,5.781c-0.517-1.831,0-5.344,0-5.344l1.031-0.437zm-30.562,11.031v6.375l5.2188-2.781,1.5624-3.594h-6.7812zm8.6875,0l-2.0937,4.187,4.7812,6,4.594-2.75,4.781-5.937-1.469-1.5h-10.594zm50,0l-2.094,4.187,4.781,6,4.594-2.75,4.781-5.937-1.469-1.5h-10.593zm12.718,0l2.406,1.125,10.188,3.406,7.938-1.125,8.062-2.562v-0.844h-28.594zm-48.718,2.281l-4.563,5.656,12.5,6.782,7.625-1.469-5.375-7.594-10.187-3.375zm50,0l-4.563,5.656,12.5,6.782,7.625-1.469-5.375-7.594-10.187-3.375zm27.312,0l-5.281,1.406,5.281,1.532v-2.938zm-56.781,2.594l-7.688,1.031,5.031,7.313,13.344,2.906,5.813-4.75-4.375-5.75-5.344,1.438-6.781-2.188zm50,0l-7.688,1.031,5.031,7.313,9.438,2.218v-8.374l-6.781-2.188zm-87.875,0.75l-5.3438,2.562v7.938h3.9062l5.8126-4.781-4.375-5.719zm11.406,3.625l-8.1562,5.531,1.0937,1.344h18.718l-0.062-0.281-11.594-6.594zm50,0l-8.156,5.531,1.094,1.344h18.718l-0.062-0.281-11.594-6.594zm-27.062,5.469l-6.376,1.406h12.219l-5.843-1.406zm50,0l-6.376,1.406h12.219l-5.843-1.406z" />
</svg>