<svg xmlns="http://www.w3.org/2000/svg">
    <!-- https://www.flaticon.com/free-icon/sand_874417 -->
    <g id="dust_ash_sand" transform="scale(0.22)">
        <g>
            <g>
                <path d="M287.203,111.257c-32.454,0-58.857,26.403-58.857,58.856h30c0-15.911,12.945-28.856,28.857-28.856
            s28.857,12.945,28.857,28.856s-12.945,28.856-28.857,28.856H91.533v30h195.67c32.454,0,58.857-26.403,58.857-58.856
            S319.657,111.257,287.203,111.257z" />
            </g>
        </g>
        <g>
            <g>
                <path d="M385.765,299.861H152.144v30h233.621c15.912,0,28.857,12.945,28.857,28.857c0,15.911-12.945,28.856-28.857,28.856
            s-28.856-12.945-28.856-28.856h-30c0,32.453,26.403,58.856,58.856,58.856s58.857-26.403,58.857-58.856
            C444.622,326.264,418.218,299.861,385.765,299.861z" />
            </g>
        </g>
        <g>
            <g>
                <path d="M443.936,143.287c-37.531,0-68.064,30.533-68.064,68.064h30c0-20.989,17.076-38.064,38.064-38.064
            c20.988,0,38.064,17.075,38.064,38.064c0,20.989-17.076,38.064-38.064,38.064H0v30h443.936c37.531,0,68.064-30.533,68.064-68.064
            C512,173.82,481.466,143.287,443.936,143.287z" />
            </g>
        </g>
        <g>
            <g>
                <rect x="54.46" y="48.974" width="30" height="30" />
            </g>
        </g>
        <g>
            <g>
                <rect x="138.07" y="101.16" width="30" height="30" />
            </g>
        </g>
        <g>
            <g>
                <rect x="233.27" y="26.94" width="30" height="30" />
            </g>
        </g>
        <g>
            <g>
                <rect x="461.53" y="26.94" width="30" height="30" />
            </g>
        </g>
        <g>
            <g>
                <rect x="360.76" y="65.21" width="30" height="30" />
            </g>
        </g>
        <g>
            <g>
                <rect x="17.789" y="323.29" width="30" height="30" />
            </g>
        </g>
        <g>
            <g>
                <rect x="58.24" y="434.08" width="30" height="30" />
            </g>
        </g>
        <g>
            <g>
                <rect x="179.07" y="378.33" width="30" height="30" />
            </g>
        </g>
        <g>
            <g>
                <rect x="461.53" y="387.79" width="30" height="30" />
            </g>
        </g>
        <g>
            <g>
                <rect x="256" y="434.08" width="30" height="30" />
            </g>
        </g>
        <g>
            <g>
                <rect x="380.09" y="455.06" width="30" height="30" />
            </g>
        </g>
    </g>
</svg>