<svg xmlns="http://www.w3.org/2000/svg">
    <path id="fire_smoke" d="M51.312,0c-5.182,0-9.974,1.68-13.874,4.5h27.687c-3.879-2.82-8.641-4.5-13.813-4.5zm-18.312,8.625c-1.135,1.375-2.102,2.891-2.906,4.5h42.312c-0.806-1.614-1.771-3.121-2.906-4.5h-36.5zm-4.5,8.625c-0.41,1.451-0.686,2.95-0.812,4.5h63.718c-2.932-1.897-6.403-3-10.156-3-2.34,0-4.568,0.47-6.625,1.25-0.15-0.948-0.368-1.843-0.625-2.75h-45.5zm-7.438,8.625c-2.04,1.037-3.774,2.58-5,4.5h82.532c-0.668-1.626-1.551-3.141-2.625-4.5h-74.907zm-6.718,8.625c-0.192,0.879-0.282,1.814-0.282,2.75,0,0.087,0.032,0.163,0.032,0.25-1.008-0.302-2.054-0.531-3.156-0.531-2.3638,0-4.5566,0.758-6.3442,2.031h95.344c0.038-0.499,0.062-0.991,0.062-1.5,0-1.025-0.092-2.02-0.25-3h-85.406zm-13.25,8.625c-0.66562,1.366-1.0531,2.889-1.0938,4.5h97.031c0.893-1.385,1.589-2.896,2.094-4.5h-98.031zm-0.25005,8.625c1.6598,3.194,5.5612,4.5,10.094,4.5h70.312c4.652,0,8.91-1.698,12.188-4.5h-92.594zm36.781,5.469c-1.524,1.269-2.656,2.59-2.656,3.969,0,0.735,0.502,1.755,1.312,2.624,0.926,1.072,1.199,2.288,1.344,2.657,0.959-0.765,1.313-1.671,1.313-2.657,0-0.735-0.801-1.727-1.313-2.624-0.66-1.214,0.153-2.866,0-3.969zm-6.625,2.625c-0.004,0.156-3.809,6.267-1.344,9.281,3.827,4.666,2.211,8.27,0,7.937-3.714-0.556-3.241-5.403-2.625-6.624-1.941-0.205-4.201,1.01-5.312,2.656-3.342,4.963,3.887,9.72,1.312,13.25-1.959,2.689-5.292-2.615-5.281-2.656-3.976,20.752,24.882,21.272,26.469,3.968,0.472-5.19,5.162-8.004,5.312-7.937-4.976-2.295-7.937,1.478-7.937,1.312,0-0.65,2.782-9.29-2.656-11.906-6.267-3.014-7.99-5.429-7.938-9.281zm-1.344,23.844c0.02,0.041,3.265,0.534,5.313,2.656,3.14,3.242,2.773,9.076-2.657,9.281-6.942,0.256-6.212-4.95-5.281-6.625,1.183-2.133,4.153-2.568,2.625-5.312z" />
</svg>