<svg xmlns="http://www.w3.org/2000/svg">
    <path id="foggy" d="M51.312,21.875c-5.183,0-9.974,1.68-13.874,4.5h27.687c-3.879-2.82-8.642-4.5-13.813-4.5zm-18.312,8.625c-1.135,1.375-2.102,2.891-2.906,4.5h42.312c-0.806-1.614-1.771-3.121-2.906-4.5h-36.5zm-4.5,8.625c-0.41,1.451-0.686,2.95-0.812,4.5h63.718c-2.932-1.897-6.403-3-10.156-3-2.34,0-4.568,0.47-6.625,1.25-0.15-0.948-0.368-1.843-0.625-2.75h-45.5zm-7.438,8.625c-2.041,1.037-3.774,2.58-5,4.5h82.532c-0.668-1.626-1.551-3.141-2.625-4.5h-74.907zm-6.718,8.625c-0.192,0.879-0.282,1.814-0.282,2.75,0,0.087,0.032,0.163,0.032,0.25-1.008-0.302-2.054-0.531-3.156-0.531-2.3633,0-4.5566,0.758-6.3442,2.031h95.344c0.039-0.499,0.062-0.991,0.062-1.5,0-1.025-0.092-2.02-0.25-3h-85.406zm-13.25,8.625c-0.66557,1.366-1.0531,2.889-1.0938,4.5h97.031c0.893-1.385,1.589-2.896,2.094-4.5h-98.031zm-0.25005,8.625c1.6598,3.194,5.5614,4.5,10.094,4.5h70.312c4.652,0,8.91-1.698,12.188-4.5h-92.594z" />
</svg>