<svg xmlns="http://www.w3.org/2000/svg">
    <path id="freezing_rain" d="M42.312,14.812c-10.476,0-18.937,8.499-18.937,18.969,0,0.237,0.052,0.451,0.063,0.688-0.237-0.016-0.451-0.063-0.688-0.063-5.636,0-10.219,4.583-10.219,10.219,0,0.07,0.031,0.118,0.031,0.187-0.806-0.241-1.648-0.406-2.531-0.406-4.8342,0-8.7498,3.921-8.7498,8.75,0,4.835,3.9156,6.656,8.7498,6.656h56.25c8.287,0,15-6.713,15-15s-6.713-15-15-15c-1.872,0-3.667,0.408-5.312,1.032-1.431-9.057-9.202-16.032-18.657-16.032zm48.126,20.376c-1.21,0.03-2.276,0.423-3.126,1.124-1.06,0.875-1.75,2.193-1.75,3.719v30.188c-2.122,1.594-3.365,4.018-3.374,6.656-0.009,3.496,2.126,6.419,5.124,7.656,0.971,0.401,2.015,0.651,3.126,0.657,0.999,0.006,1.965-0.177,2.843-0.5,3.171-1.156,5.381-4.23,5.438-7.657,0.043-2.685-1.199-5.179-3.375-6.812v-30.407c0-1.612-0.821-2.962-2.063-3.781-0.799-0.529-1.772-0.817-2.812-0.843h-0.031zm0,2.156c0.579,0.015,1.147,0.174,1.593,0.468,0.692,0.457,1.157,1.227,1.157,2.126v31.5c2.005,1,3.374,3.074,3.374,5.468,0,3.372-2.753,6.094-6.124,6.094-3.372,0-6.094-2.722-6.094-6.094,0-2.393,1.369-4.468,3.375-5.468v-31.407c0-0.85,0.378-1.575,0.969-2.062,0.473-0.391,1.076-0.608,1.75-0.625zm-70.376,27.437l-7.218,19.844,1.531,0.563,7.437-20.407h-1.75zm8.25,0l-7.218,19.844,1.562,0.563,7.406-20.407h-1.75zm8.282,0l-7.219,19.844,1.531,0.563,7.438-20.407h-1.75zm8.25,0l-7.219,19.844,1.531,0.563,7.438-20.407h-1.75zm8.25,0l-7.219,19.844,1.563,0.563,7.406-20.407h-1.75zm8.281,0l-7.219,19.844,1.532,0.563,7.437-20.407h-1.75zm27.437,1.844v5.531c-1.966,0.681-3.374,2.552-3.374,4.75,0,2.774,2.226,5.032,5,5.032s5.031-2.258,5.031-5.032c0-2.198-1.408-4.069-3.375-4.75v-5.531h-3.282z" />
</svg>