<svg xmlns="http://www.w3.org/2000/svg">
    <path id="mostly_cloudy" transform="scale(1.1)" d="M33.469,15v11.938h3.125v-11.938h-3.125zm-13.813,3.406l-2.656,1.656,6.312,10.126,2.657-1.657-6.313-10.125zm30.938,0.313l-4.719,8.531c-2.986,0.663-5.776,1.865-8.25,3.5-0.847-0.119-1.715-0.188-2.594-0.188-10.675,0-19.312,8.695-19.312,19.407,0,1.947,0.305,3.825,0.843,5.593-0.978,1.235-1.775,2.642-2.312,4.157l-0.688-1.063-10.062,6.344,0.3438,0.562c-2.3766,2.331-3.8438,5.561-3.8438,9.126,0,3.52,1.6295,6.439,4.0938,8.093,2.4642,1.654,5.5401,2.219,8.7182,2.219h20.469,3.125,9.125,17.844,16.375c11.15,0,20.25-9.098,20.25-20.25s-9.099-20.219-20.25-20.219c-1.607,0-3.124,0.264-4.594,0.625-2.866-10.607-12.411-18.5-23.906-18.5-0.499,0-0.977,0.034-1.469,0.063l3.563-6.469-2.75-1.531zm-44.532,11.375l-1.5313,2.75,10.407,5.781,1.5-2.75-10.376-5.781zm45.188,1.344c10.088,0,18.319,7.377,19.844,17.031l0.468,2.906,2.75-1.031c1.734-0.658,3.538-1.063,5.438-1.063,8.58,0,15.5,6.89,15.5,15.469s-6.921,15.5-15.5,15.5h-16.375-17.844-32.719c-2.576,0-4.757-0.53-6.062-1.406s-2-1.922-2-4.156c0-4.463,3.5946-8.032,8.062-8.032,0.74,0,1.486,0.128,2.313,0.375l3.063,0.938v-3.219c0-0.288,0.007-0.458,0-0.5,0.133-5.302,4.412-9.5,9.75-9.5-0.078,0,0.118,0.026,0.656,0.062l2.656,0.188-0.125-2.656c-0.029-0.651-0.063-0.871-0.063-0.719,0-11.178,9.002-20.187,20.188-20.187zm-51.25,16.062v3.125h11.906v-3.125h-11.906z" />
</svg>