<svg xmlns="http://www.w3.org/2000/svg">
    <!-- https://www.flaticon.com/free-icon/cloudy-night_1415411 -->
    <g id="mostly_cloudy_night" transform="scale(0.22)">
        <path d="m448.253906 368.128906c-.003906-23.996094-10.777344-46.71875-29.347656-61.910156-18.574219-15.191406-42.980469-21.246094-66.5-16.492188-4.332031.875-8.550781-1.929687-9.421875-6.261718-.234375-1.1875-.5625-2.335938-.867187-3.488282-.890626-3.40625-2.058594-6.730468-3.496094-9.945312l-.152344-.34375c-.644531-1.417969-1.34375-2.792969-2.078125-4.144531l-.457031-.800781c-.664063-1.175782-1.367188-2.320313-2.101563-3.445313-.289062-.441406-.585937-.882813-.882812-1.3125-.648438-.945313-1.320313-1.855469-2.007813-2.761719-.457031-.582031-.921875-1.15625-1.390625-1.726562-.601562-.730469-1.207031-1.449219-1.839843-2.144532-.632813-.695312-1.273438-1.367187-1.929688-2.03125-.53125-.535156-1.066406-1.066406-1.597656-1.601562-.800782-.75-1.601563-1.480469-2.464844-2.199219-.480469-.398437-.945312-.800781-1.433594-1.191406-.949218-.800781-1.941406-1.496094-2.941406-2.207031-.417969-.304688-.800781-.609375-1.257812-.90625-1.085938-.726563-2.207032-1.414063-3.335938-2.085938-.390625-.234375-.800781-.472656-1.167969-.699218-1.183593-.664063-2.398437-1.269532-3.617187-1.863282-.382813-.183594-.796875-.382812-1.148438-.558594-1.234375-.570312-2.507812-1.074218-3.777344-1.601562-.410156-.160156-.800781-.335938-1.214843-.480469-1.265625-.453125-2.5625-.847656-3.859375-1.222656-.445313-.128906-.878906-.28125-1.328125-.390625-1.277344-.34375-2.589844-.617188-3.894531-.875-.488282-.09375-.960938-.222656-1.449219-.308594-1.328125-.234375-2.679688-.386718-4.039063-.539062-.472656-.046875-.933594-.132813-1.414062-.175782-1.832032-.160156-3.679688-.246093-5.546875-.246093-9.230469 0-18.347657 2.019531-26.71875 5.910156-1.398438.59375-2.9375.769531-4.433594.503906-.667969-.039062-1.332031-.164062-1.972656-.367187-2.058594-.859375-3.667969-2.527344-4.449219-4.617188-1.070312-2.832031-2.289062-5.609375-3.648438-8.320312-.304687-.605469-.617187-1.214844-.929687-1.8125-2.808594-5.351563-6.160156-10.398438-10-15.066406-.390625-.472657-.796875-.941407-1.191406-1.40625-1.878907-2.191407-3.839844-4.304688-5.917969-6.296876l-.3125-.320312c-2.046875-1.945312-4.222656-3.742188-6.398438-5.480469-.800781-.617187-1.601562-1.214843-2.402343-1.808593-1.710938-1.246094-3.480469-2.398438-5.289063-3.550782-1.214844-.769531-2.453125-1.5-3.71875-2.191406-1.65625-.929688-3.351562-1.816406-5.070312-2.640625-1.167969-.53125-2.347656-1.066406-3.539063-1.601563-1.957031-.796874-3.949219-1.597656-5.964843-2.269531-9.039063-3.097656-18.527344-4.6875-28.082032-4.703125-28.609375-.074218-55.460937 13.804688-71.949218 37.183594-16.492188 23.378906-20.554688 53.328125-10.890626 80.253906.859376 2.410156.511719 5.085938-.929687 7.195313-1.445313 2.113281-3.808594 3.410156-6.367187 3.484375-39.425782 1.007812-70.695313 33.5625-70.1093755 72.996094.5859375 39.4375 32.8085935 71.050781 72.2460935 70.886718h296c44.164063-.050781 79.953125-35.839844 80-80zm0 0" />
        <path d="m344.40625.765625c-6.550781-.519531-13.136719-.636719-19.296875-.636719-74.203125.960938-133.628906 61.792969-132.855469 136 .035156 10.179688 1.199219 20.328125 3.472656 30.253906 1.105469.410157 2.152344.9375 3.246094 1.375 1.601563.640626 3.144532 1.265626 4.683594 1.976563 1.535156.710937 2.964844 1.464844 4.429688 2.234375 1.183593.613281 2.355468 1.25 3.511718 1.917969 1.34375.800781 2.695313 1.542969 4 2.402343 1.890625 1.199219 3.730469 2.460938 5.535156 3.773438 1.097657.800781 2.152344 1.601562 3.203126 2.449219 1.6875 1.335937 3.351562 2.710937 4.957031 4.144531.761719.679688 1.496093 1.359375 2.234375 2.054688 1.808594 1.707031 3.554687 3.480468 5.246094 5.320312.34375.375.714843.734375 1.058593 1.121094 2.0625 2.3125 4 4.734375 5.878907 7.238281.335937.457031.648437.921875.976562 1.382813 1.515625 2.109374 2.949219 4.277343 4.304688 6.515624.382812.613282.757812 1.230469 1.125 1.855469 1.601562 2.695313 3.058593 5.445313 4.386718 8.300781.621094-.214843 1.261719-.367187 1.894532-.566406 7.710937-2.46875 15.757812-3.734375 23.855468-3.75 2.167969 0 4.320313.09375 6.457032.261719.550781.046875 1.085937.136719 1.597656.191406 1.601562.167969 3.203125.335938 4.738281.59375.542969.085938 1.078125.214844 1.601563.320313 1.550781.289062 3.09375.582031 4.613281.960937.496093.117188.976562.277344 1.472656.40625 1.601563.414063 3.105469.855469 4.632813 1.359375.429687.144532.847656.3125 1.28125.464844 1.597656.550781 3.109374 1.128906 4.628906 1.777344.378906.160156.753906.34375 1.128906.511718 1.542969.679688 3.054688 1.390626 4.542969 2.160157l1.066406.582031c1.480469.796875 2.929687 1.628906 4.34375 2.503906l1.085937.703125c1.371094.882813 2.707032 1.792969 4 2.753907.402344.296874.800782.609374 1.191407.910156 1.21875.929687 2.402343 1.882812 3.570312 2.882812.464844.398438.917969.796875 1.375 1.214844 1.066407.929688 2.078125 1.882812 3.03125 2.863281.535157.535157 1.066407 1.085938 1.601563 1.65625.832031.875 1.632812 1.769531 2.398437 2.6875.632813.722657 1.242188 1.464844 1.847657 2.207031.609374.746094 1.21875 1.554688 1.808593 2.34375.710938.953126 1.402344 1.921876 2.074219 2.914063.40625.609375.796875 1.222656 1.207031 1.847656.769531 1.210938 1.507813 2.4375 2.222657 3.679688.234374.417969.457031.839843.6875 1.265625.800781 1.480468 1.558593 2.988281 2.273437 4.519531.097656.199219.175781.398437.273437.597656.796876 1.761719 1.527344 3.546875 2.191407 5.363281 36.65625-8.417968 67.761719-32.523437 85.054687-65.921874-12.035156 4.148437-24.703125 6.167968-37.429687 5.96875-61.347657-.707032-110.550781-50.929688-110-112.28125.417969-38.421876 19.703125-74.179688 51.582031-95.632813zm0 0" />
    </g>
</svg>        