<svg xmlns="http://www.w3.org/2000/svg">
    <g id="night_partly_cloudy_rain" transform="scale(0.22)">
        <g>
            <g>
                <path d="M486.733,244.871c-15.057-36.688-46.746-63.966-85.266-73.396h0.032c-13.419-64.566-76.474-106.166-141.112-93.096
                    c-18.821-38.233-57.746-62.435-100.36-62.4c-1.12,0-2.328,0-3.432,0.112h-0.12c-0.548,0.104-1.085,0.265-1.6,0.48
                    c-0.49,0.116-0.966,0.279-1.424,0.488h-0.128c-0.31,0.242-0.599,0.51-0.864,0.8c-0.501,0.345-0.96,0.748-1.368,1.2
                    c-0.296,0.43-0.548,0.888-0.752,1.368c-0.262,0.423-0.481,0.87-0.656,1.336c-0.142,0.611-0.211,1.237-0.208,1.864
                    c-0.064,0.365-0.104,0.734-0.12,1.104v0.12c0.1,0.549,0.258,1.085,0.472,1.6c0.116,0.488,0.277,0.965,0.48,1.424
                    c0,0.048,0,0.096,0.048,0.136c19.845,34.459,7.998,78.48-26.461,98.325c-19.621,11.3-43.416,12.712-64.235,3.811
                    c-0.136-0.056-0.28-0.04-0.416-0.088c-0.454-0.139-0.92-0.238-1.392-0.296c-0.554-0.123-1.12-0.187-1.688-0.192
                    c-0.128,0-0.248-0.048-0.376-0.04c-0.361,0.08-0.717,0.184-1.064,0.312c-0.526,0.102-1.041,0.258-1.536,0.464
                    c-0.472,0.234-0.917,0.519-1.328,0.848c-0.405,0.273-0.785,0.581-1.136,0.92c-0.369,0.425-0.691,0.889-0.96,1.384
                    c-0.226,0.276-0.429,0.571-0.608,0.88c-0.056,0.12,0,0.248-0.08,0.368c-0.166,0.52-0.276,1.057-0.328,1.6
                    c-0.108,0.527-0.165,1.062-0.168,1.6c0,0.128-0.056,0.24-0.048,0.376c1.649,18.08,7.691,35.483,17.6,50.696
                    C6.947,218.695-16.941,290.764,12.776,349.947c17.628,35.108,51.335,59.355,90.227,64.903c5.642,0.768,11.33,1.145,17.024,1.128
                    h252c16.136,0.053,32.123-3.087,47.04-9.24C482.451,380.725,512.746,308.255,486.733,244.871z M173.239,86.271
                    c4.602-17.792,3.495-36.58-3.164-53.708c31.661,3.286,59.618,22.095,74.592,50.184c-44.264,15.416-75.531,55.152-80.104,101.8
                    c-14.169-5.649-29.282-8.556-44.536-8.568c-13.245,0.022-26.393,2.253-38.904,6.6c-6.995-10.085-11.985-21.422-14.696-33.392
                    C113.296,161.308,161.117,133.14,173.239,86.271z M478.013,312.993c-7.054,35.577-31.485,65.242-65.051,78.985
                    c-12.984,5.341-26.897,8.06-40.936,8h-252c-4.949-0.004-9.891-0.352-14.792-1.04C48.386,390.735,8.951,338,17.154,281.152
                    c8.203-56.849,60.938-96.284,117.787-88.081c11.653,1.681,22.935,5.329,33.367,10.788c3.911,2.055,8.748,0.549,10.802-3.362
                    c0.602-1.147,0.917-2.422,0.917-3.718v-0.8c0.022-57.438,46.603-103.982,104.04-103.96c51.008,0.02,94.474,37.03,102.624,87.384
                    c0.529,3.306,3.06,5.933,6.344,6.584C451.573,197.592,489.619,254.455,478.013,312.993z" />
                <path d="M210.371,426.322l-40,40c-3.178,3.069-3.266,8.134-0.196,11.312c3.069,3.178,8.134,3.266,11.312,0.196
                    c0.067-0.064,0.132-0.13,0.196-0.196l40-40c3.07-3.178,2.982-8.242-0.196-11.312
                    C218.386,423.328,213.471,423.328,210.371,426.322z" />
                <path d="M130.371,426.322l-40,40c-3.178,3.069-3.266,8.134-0.196,11.312c3.069,3.178,8.134,3.266,11.312,0.196
                    c0.067-0.064,0.132-0.13,0.196-0.196l40-40c3.07-3.178,2.982-8.242-0.196-11.312
                    C138.386,423.328,133.471,423.328,130.371,426.322z" />
                <path d="M290.371,426.322l-40,40c-3.178,3.07-3.266,8.134-0.196,11.312c3.07,3.178,8.134,3.266,11.312,0.196
                    c0.066-0.064,0.132-0.13,0.196-0.196l40-40c3.07-3.178,2.982-8.242-0.196-11.312
                    C298.387,423.328,293.471,423.328,290.371,426.322z" />
                <path d="M370.371,426.322l-40,40c-3.178,3.07-3.266,8.134-0.196,11.312c3.07,3.178,8.134,3.266,11.312,0.196
                    c0.066-0.064,0.132-0.13,0.196-0.196l40-40c3.07-3.178,2.982-8.242-0.196-11.312
                    C378.387,423.328,373.471,423.328,370.371,426.322z" />
            </g>
        </g>
    </g>
</svg>