<svg xmlns="http://www.w3.org/2000/svg">
    <path id="partlycloudynight" transform="scale(1.7)" d="M73.223,24.588c0.015-0.502-0.291-0.956-0.766-1.133c-0.468-0.175-1-0.033-1.316,0.355   c-1.795,2.188-4.444,3.443-7.271,3.443c-5.184,0-9.396-4.215-9.396-9.397c0-2.608,1.054-5.036,2.963-6.835   c0.365-0.345,0.474-0.884,0.266-1.34c-0.208-0.459-0.684-0.734-1.184-0.684c-7.521,0.729-13.252,6.762-13.707,14.211   c-2.021-1.199-4.379-1.881-6.884-1.881c-0.119,0-0.236,0.012-0.355,0.015c-0.971,0.026-1.93,0.15-2.862,0.38   c-1.692,0.419-3.298,1.161-4.715,2.197c-2.861-1.698-6.107-2.592-9.442-2.592C8.323,21.327,0,29.649,0,39.88   c0,10.229,8.323,18.551,18.552,18.551c1.365,0,2.746-0.159,4.119-0.477c2.457,3.896,6.736,6.277,11.381,6.277   c5.648,0,10.625-3.513,12.575-8.706c1.831,0.896,3.84,1.364,5.885,1.364c7.418,0,13.451-6.034,13.451-13.452   c0-2-0.445-3.895-1.232-5.6C69.648,35.439,73.059,30.471,73.223,24.588z M63.559,35.8c-2.057-2.954-5.258-5.054-8.965-5.634   c-0.684-0.105-1.373-0.178-2.084-0.178c-0.123,0-0.244,0.01-0.367,0.013c-1.174,0.032-2.33,0.209-3.453,0.544   c-0.713-2.173-1.945-4.063-3.533-5.563c-0.018-0.272-0.042-0.543-0.042-0.821c0-5.594,3.519-10.375,8.563-12.151   c-1.018,1.758-1.559,3.755-1.559,5.847c0,6.479,5.271,11.747,11.748,11.747c2.367,0,4.639-0.704,6.55-1.992   C69.428,31.258,66.893,34.22,63.559,35.8z" />
</svg>