<svg xmlns="http://www.w3.org/2000/svg">
    <path id="rain_icepellets_mix" d="M30.219,2c-7.202,0-13.031,5.8326-13.031,13.031,0,0.163,0.024,0.306,0.031,0.469-0.163-0.011-0.306-0.031-0.469-0.031-3.875,0-7,3.125-7,7v0.156c-0.5544-0.166-1.112-0.281-1.7188-0.281-3.3236,0-6.0312,2.679-6.0312,6,0,3.323,2.7076,4.594,6.0312,4.594h38.657c5.696,0,10.312-4.615,10.312-10.313,0-5.697-4.616-10.313-10.312-10.313-1.288,0-2.525,0.259-3.657,0.688-0.983-6.2265-6.313-11-12.812-11zm63.719,1.9375l-90,90,2.125,2.124,90-90-2.124-2.125zm-79.032,32.406l-4.9685,13.625,1.0625,0.406,5.125-14.031h-1.219zm5.688,0l-4.969,13.625,1.063,0.406,5.124-14.031h-1.218zm5.687,0l-4.969,13.625,1.063,0.406,5.094-14.031h-1.188zm5.657,0l-4.938,13.625,1.062,0.406,5.094-14.031h-1.218zm5.687,0l-4.969,13.625,1.063,0.406,5.125-14.031h-1.219zm5.687,0l-4.968,13.625,1.062,0.406,5.094-14.031h-1.188zm27.907,11.812c-7.202,0-13.031,5.833-13.031,13.032,0,0.162,0.024,0.305,0.031,0.468-0.163-0.011-0.306-0.062-0.469-0.062-3.875,0-7,3.156-7,7.031v0.156c-0.554-0.166-1.112-0.312-1.719-0.312-3.323,0-6.031,2.711-6.031,6.031,0,3.324,2.708,4.594,6.031,4.594h38.657c5.696,0,10.312-4.616,10.312-10.313s-4.615-10.312-10.312-10.312c-1.288,0-2.525,0.258-3.657,0.687-0.983-6.226-6.313-11-12.812-11zm-5.25,32.782c-0.535,0.026-1.024,0.34-1.219,0.874-0.26,0.714,0.099,1.521,0.812,1.782,0.714,0.26,1.521-0.1,1.782-0.813,0.26-0.713-0.131-1.521-0.844-1.781-0.178-0.065-0.353-0.071-0.531-0.062zm18.937,0c-0.535,0.026-1.023,0.34-1.218,0.874-0.261,0.714,0.099,1.521,0.812,1.782,0.713,0.26,1.521-0.1,1.781-0.813,0.261-0.713-0.13-1.521-0.843-1.781-0.179-0.065-0.353-0.071-0.532-0.062zm-28.656,0.531c-0.428,0.021-0.844,0.291-1,0.719-0.208,0.57,0.086,1.197,0.656,1.406,0.571,0.208,1.198-0.086,1.406-0.656,0.209-0.571-0.054-1.198-0.624-1.407-0.143-0.052-0.295-0.069-0.438-0.062zm18.938,0c-0.429,0.021-0.844,0.291-1,0.719-0.209,0.57,0.085,1.197,0.656,1.406,0.57,0.208,1.198-0.086,1.406-0.656,0.208-0.571-0.086-1.198-0.656-1.407-0.143-0.052-0.264-0.069-0.406-0.062zm-10.532,3.031c-0.535,0.027-1.023,0.371-1.218,0.906-0.261,0.713,0.099,1.49,0.812,1.75,0.713,0.261,1.521-0.099,1.781-0.812,0.261-0.713-0.13-1.49-0.843-1.75-0.179-0.065-0.353-0.103-0.532-0.094zm18.938,0c-0.535,0.027-1.024,0.371-1.219,0.906-0.26,0.713,0.099,1.49,0.813,1.75,0.713,0.261,1.52-0.099,1.781-0.812,0.26-0.713-0.131-1.49-0.844-1.75-0.178-0.065-0.353-0.103-0.531-0.094zm-28.656,0.562c-0.429,0.022-0.813,0.291-0.969,0.719-0.209,0.571,0.086,1.198,0.656,1.407,0.571,0.208,1.198-0.086,1.406-0.657,0.209-0.57-0.086-1.198-0.656-1.406-0.143-0.052-0.295-0.07-0.437-0.063zm18.937,0c-0.428,0.022-0.844,0.291-1,0.719-0.208,0.571,0.086,1.198,0.656,1.407,0.571,0.208,1.229-0.086,1.438-0.657,0.208-0.57-0.086-1.198-0.657-1.406-0.142-0.052-0.294-0.07-0.437-0.063zm-10.531,3.032c-0.535,0.027-1.024,0.371-1.219,0.906-0.26,0.713,0.099,1.49,0.813,1.75,0.713,0.26,1.52-0.099,1.781-0.812,0.26-0.714-0.1-1.521-0.813-1.782-0.178-0.065-0.384-0.071-0.562-0.062zm18.937,0c-0.535,0.027-1.023,0.371-1.219,0.906-0.26,0.713,0.1,1.49,0.813,1.75s1.521-0.099,1.781-0.812c0.261-0.714-0.099-1.521-0.812-1.782-0.179-0.065-0.384-0.071-0.563-0.062zm-28.656,0.531c-0.428,0.021-0.812,0.291-0.969,0.719-0.208,0.57,0.086,1.229,0.656,1.437,0.571,0.209,1.198-0.086,1.407-0.656,0.208-0.571-0.086-1.229-0.657-1.437-0.142-0.053-0.294-0.07-0.437-0.063zm18.937,0c-0.428,0.021-0.812,0.291-0.968,0.719-0.209,0.57,0.086,1.229,0.656,1.437,0.571,0.209,1.198-0.085,1.406-0.656,0.209-0.571-0.086-1.229-0.656-1.437-0.143-0.053-0.295-0.07-0.438-0.063zm-10.531,3.031c-0.535,0.027-1.023,0.372-1.219,0.906-0.26,0.714,0.131,1.521,0.844,1.782,0.713,0.26,1.49-0.131,1.75-0.844,0.261-0.713-0.099-1.49-0.812-1.75-0.179-0.065-0.384-0.103-0.563-0.094zm18.938,0c-0.535,0.027-1.024,0.372-1.219,0.906-0.26,0.714,0.131,1.521,0.844,1.782,0.713,0.26,1.489-0.131,1.75-0.844,0.26-0.713-0.1-1.49-0.813-1.75-0.178-0.065-0.384-0.103-0.562-0.094zm-28.657,0.563c-0.428,0.021-0.812,0.291-0.968,0.719-0.209,0.57,0.086,1.197,0.656,1.406,0.571,0.208,1.198-0.086,1.406-0.656,0.209-0.571-0.086-1.198-0.656-1.407-0.143-0.052-0.295-0.069-0.438-0.062zm18.938,0c-0.428,0.021-0.812,0.291-0.969,0.719-0.208,0.57,0.086,1.197,0.657,1.406,0.57,0.208,1.197-0.086,1.406-0.656,0.208-0.571-0.086-1.198-0.656-1.407-0.143-0.052-0.295-0.069-0.438-0.062zm-13.656,1.219c-0.76,0-1.375,0.615-1.375,1.374,0,0.76,0.615,1.376,1.375,1.376,0.759,0,1.375-0.616,1.375-1.376,0-0.759-0.616-1.374-1.375-1.374zm18.937,0c-0.759,0-1.375,0.615-1.375,1.374,0,0.76,0.616,1.376,1.375,1.376,0.76,0,1.375-0.616,1.375-1.376,0-0.759-0.615-1.374-1.375-1.374zm-28.687,0.562c-0.608,0-1.094,0.486-1.094,1.094,0,0.607,0.486,1.094,1.094,1.094,0.607,0,1.094-0.487,1.094-1.094,0-0.608-0.487-1.094-1.094-1.094zm18.937,0c-0.607,0-1.093,0.486-1.093,1.094,0,0.607,0.486,1.094,1.093,1.094,0.608,0,1.094-0.487,1.094-1.094,0-0.608-0.486-1.094-1.094-1.094zm-6.031,1.25c-0.535,0.027-1.055,0.371-1.25,0.906-0.26,0.713,0.131,1.49,0.844,1.75,0.713,0.261,1.489-0.099,1.75-0.812,0.26-0.713-0.1-1.49-0.813-1.75-0.178-0.065-0.353-0.103-0.531-0.094zm18.938,0c-0.536,0.027-1.055,0.371-1.25,0.906-0.261,0.713,0.13,1.49,0.843,1.75,0.713,0.261,1.49-0.099,1.75-0.812,0.261-0.713-0.099-1.49-0.812-1.75-0.179-0.065-0.353-0.103-0.531-0.094zm-28.688,0.562c-0.428,0.022-0.812,0.291-0.969,0.719-0.208,0.571,0.086,1.198,0.657,1.407,0.57,0.208,1.197-0.086,1.406-0.657,0.208-0.57-0.086-1.198-0.656-1.406-0.143-0.052-0.295-0.07-0.438-0.063zm18.938,0c-0.429,0.022-0.813,0.291-0.969,0.719-0.209,0.571,0.086,1.198,0.656,1.407,0.571,0.208,1.198-0.086,1.406-0.657,0.209-0.57-0.086-1.198-0.656-1.406-0.143-0.052-0.295-0.07-0.437-0.063z" />
</svg>