<svg xmlns="http://www.w3.org/2000/svg">
    <g id="rain_night" transform="scale(1.9)">
        <path d="M20,47.13l-1.53,5.7a1,1,0,1,0,1.93.52l1.53-5.7A1,1,0,0,0,20,47.13Z" />
        <path d="M31.8,47.13l-1.53,5.7a1,1,0,1,0,1.93.52l1.53-5.7a1,1,0,0,0-1.93-.52Z" />
        <path d="M43.63,47.13l-1.53,5.7a1,1,0,1,0,1.93.52l1.53-5.7a1,1,0,0,0-1.93-.52Z" />
        <path d="M26,47.13,23.34,57a1,1,0,1,0,1.93.52l2.65-9.88A1,1,0,0,0,26,47.13Z" />
        <path d="M37.82,47.13,34.9,58a1,1,0,1,0,1.93.52l2.91-10.87a1,1,0,1,0-1.93-.52Z" />
        <path d="M53.3,24.71a1,1,0,0,1-.89-1.12,1.53,1.53,0,0,0,0-.18,6.1,6.1,0,0,0-7.49-5.95l-.07,0a6,6,0,0,0-.59.17l-.08,0a5.82,5.82,0,0,0-.6.26,6.1,6.1,0,0,0-2.53,8.59,1,1,0,1,1-1.72,1,8.1,8.1,0,0,1,2.64-11A13.4,13.4,0,0,0,29.13,6.74h0c-.45,0-.89,0-1.32.07l-.32,0c-.31,0-.61.08-.91.14l-.6.14-.57.15-.74.25-.37.14q-.42.16-.82.36l-.24.12c-.29.15-.58.3-.86.47l-.14.09c-.3.18-.59.37-.88.58l-.06,0a13.51,13.51,0,0,0-3.67,4.05l-.17.29c-.09.17-.17.35-.26.52s-.21.41-.3.62-.12.29-.17.44-.2.5-.28.76-.08.27-.12.41-.15.55-.22.84-.05.27-.08.41a13.33,13.33,0,0,0-.23,2.43q0,.5,0,1a1,1,0,0,1-.92,1.07h-.08a1,1,0,0,1-1-.93q0-.57,0-1.15c0-.35,0-.7.05-1a11.38,11.38,0,0,0,.56,22.75H52.44a8.56,8.56,0,0,0,.86-17.08ZM17.06,27.92a1,1,0,0,1-1.36-.39q-.31-.56-.57-1.14a1,1,0,1,1,1.82-.82q.23.51.5,1A1,1,0,0,1,17.06,27.92Z" />
    </g>
</svg>