<svg xmlns="http://www.w3.org/2000/svg">
    <path id="rain_snow_mix" d="M25.5,2l-2.25,1.4688v7.0312l-3.938-2.1875-2,1.1563v2.4692l5.844,3.312v4.625l-4.344-2.313v4.782l-4.124-2.375v-6.781l-2.25-1.313-1.876,1.25v4.531l-6.1558-3.531-2.4062,1.219v2.812l6.25,3.406-3.9062,2.188v2.562l2.1562,1.094,5.781-3.406,4.031,2.312-4,2.5,4.126,2.344,0.093,0.094-4.031,2.312-5.7812-3.406-2.3126,1.25v2.563l4.0626,2.031-6.4688,3.531v2.813l2.625,1.094,6.156-3.469v4.469l1.875,1.25,2.219-1.376v-6.656l4.031-2.344v4.907l4.25-2.719v4.625l-5.844,3.344v2.469l2,1.156,3.938-2.219v7.063l2.25,1.437,2.281-1.437v-7.063l3.938,2.219,2-1v-2.625l-5.844-3.344v-4.625l4.125,2.531v-4.625l4.344,2.438v6.687l2.031,1.157,2.094-1.157v-4.406l5.843,3.313,2.532-1.126v-2.781l-5.938-3.531,3.719-2.094v-2.406l-1.906-1.344-5.969,3.313-4.219-2.188,4.094-2.375-3.969-2.468,4.094-2.626,5.969,3.532,2-1.125v-2.5l-3.875-2.188,6.187-3.5v-2.625l-2.219-1.375-6.343,3.438v-4.657l-2.157-0.937-2.031,0.937v7.282l-4.281,2.312v-5.031l-4.125,2.5v-4.625l6.063-3.438v-2.187l-2.063-1.375-4.094,2.25v-7.0312l-2.281-1.4688zm68.438,1.9375l-90,90,2.125,2.124,90-90-2.124-2.125zm-70.282,21.594h3.938l1.906,3.313-1.812,3.125h-3.938l-2.125-3.125,2.031-3.313zm44.438,16.438c-8.046,0-14.563,6.521-14.563,14.562,0,0.182,0.024,0.35,0.031,0.531-0.181-0.012-0.349-0.062-0.531-0.062-4.328,0-7.843,3.515-7.843,7.844,0,0.053,0.031,0.103,0.031,0.156-0.62-0.186-1.26-0.312-1.938-0.312-3.713,0-6.719,3.009-6.719,6.718,0,3.713,3.006,5.125,6.719,5.125h43.188c6.364-0.002,11.531-5.166,11.531-11.531,0-6.364-5.167-11.5-11.531-11.5-1.438,0-2.799,0.271-4.063,0.75-1.098-6.956-7.051-12.281-14.312-12.281zm-17.094,38.343l-5.562,15.25,1.187,0.438,5.719-15.688h-1.344zm6.344,0l-5.563,15.25,1.188,0.438,5.719-15.688h-1.344zm6.344,0l-5.563,15.25,1.187,0.438,5.719-15.688h-1.343zm6.343,0l-5.562,15.25,1.187,0.438,5.719-15.688h-1.344zm6.344,0l-5.563,15.25,1.188,0.438,5.719-15.688h-1.344zm6.344,0l-5.563,15.25,1.188,0.438,5.718-15.688h-1.343z" />
</svg>