<svg xmlns="http://www.w3.org/2000/svg">
  <path id="scattered_clouds" transform="scale(1.2)" d="M33.469,15v11.938h3.125v-11.938h-3.125zm-13.813,3.406l-2.656,1.656,6.312,10.126,2.657-1.657-6.313-10.125zm30.938,0.313l-5.782,10.437,2.75,1.532,5.782-10.438-2.75-1.531zm-44.532,11.375l-1.5313,2.75,10.407,5.781,1.5-2.75-10.376-5.781zm28.968,0.468c-10.675,0-19.312,8.695-19.312,19.407,0,9.054,6.173,16.619,14.531,18.75-3.104,1.593-5.25,4.819-5.25,8.531,0,2.64,1.214,4.853,3.062,6.094,1.508,1.012,3.31,1.457,5.219,1.594v0.062h1.313,1.812,22.75,13.375,12.281c8.363,0,15.188-6.823,15.188-15.188,0-8.364-6.824-15.156-15.188-15.156-1.204,0-2.335,0.198-3.437,0.469-2.148-7.959-9.313-13.875-17.937-13.875-3.692,0-7.108,1.081-10,2.938-2.449-7.888-9.748-13.626-18.407-13.626zm29.219,0.376l-10.281,5.968,1.562,2.719,10.313-5.969-1.594-2.718zm-0.812,13.874c7.565,0,13.762,5.572,14.906,12.813l0.312,2.156,2.063-0.781c1.3-0.493,2.668-0.781,4.093-0.781,6.436,0,11.626,5.159,11.626,11.593,0,6.435-5.191,11.626-11.626,11.626h-12.281-13.375-24.562c-1.933,0-3.553-0.406-4.532-1.063-0.978-0.657-1.5-1.449-1.5-3.125,0-3.347,2.681-6.031,6.032-6.031,0.554,0,1.13,0.126,1.75,0.312l2.281,0.688v-2.407-0.187c0-4.067,3.246-7.313,7.313-7.313-0.059,0,0.097,0.036,0.5,0.063l2,0.125-0.094-2c-0.022-0.488-0.063-0.646-0.063-0.531,0-8.384,6.767-15.157,15.157-15.157zm-63.438,2.688v3.125h11.906v-3.125h-11.906zm13.562,11.156l-10.062,6.344,1.625,2.656,10.094-6.344-1.657-2.656zm8.438,10.282l-5.75,10.468,2.719,1.5,5.781-10.437-2.75-1.531z" />
</svg>