<svg xmlns="http://www.w3.org/2000/svg">
    <path id="scattered_thundershowers" d="M73.906,0v8.5312h2.219v-8.5312h-2.219zm-9.875,2.4375l-1.875,1.1875,4.5,7.219,1.906-1.1878-4.531-7.2187zm22.125,0.2187l-4.125,7.4378,1.938,1.094,4.125-7.438-1.938-1.0938zm-31.844,8.1248l-1.062,1.969,7.406,4.125,1.094-1.969-7.438-4.125zm20.719,0.344c-7.625,0-13.812,6.193-13.812,13.844s6.186,13.845,13.812,13.843c7.619,0,13.781-6.192,13.781-13.843,0-7.65-6.162-13.844-13.781-13.844zm20.875,0.25l-7.375,4.281,1.125,1.938,7.375-4.25-1.125-1.969zm-45.906,11.844v2.25h8.5v-2.25h-8.5zm41.5,0.125v2.25h8.5v-2.25h-8.5zm-31.812,7.844l-7.188,4.531,1.156,1.875,7.219-4.5-1.187-1.906zm30.25,0.468l-1.063,1.969,7.406,4.156,1.094-1.969-7.437-4.156zm-54.032,3.344c-9.166,0-16.594,7.432-16.594,16.594,0,0.207,0.054,0.386,0.063,0.594-0.207-0.014-0.387-0.032-0.594-0.032-4.931,0-8.9372,3.975-8.9372,8.906,0,0.061,0.0312,0.127,0.0312,0.188-0.7072-0.211-1.4466-0.375-2.2188-0.375-4.23,0-7.6562,3.43-7.6562,7.656,0,4.23,3.4262,5.844,7.6562,5.844h49.219c7.251-0.001,13.125-5.874,13.125-13.125,0-7.252-5.874-13.125-13.125-13.125-1.638,0-3.185,0.36-4.625,0.906-1.252-7.924-8.071-14.031-16.344-14.031zm48.375,3.469l-1.906,1.125,4.25,7.375,1.906-1.094-4.25-7.406zm-18.562,0.062l-4.125,7.469,1.968,1.094,4.126-7.469-1.969-1.094zm8.062,2.938v8.531h2.219v-8.531h-2.219zm-41.062,34.593l-8.375,14.376h5.968l-4.781,9.562,14.375-14.375h-7.187l5.969-9.563h-5.969zm-16.281,2.657l-6.313,17.343,1.344,0.5,6.5-17.843h-1.531zm7.218,0l-6.312,17.343,1.344,0.5,6.5-17.843h-1.532zm21.688,0l-6.313,17.343,1.344,0.5,6.5-17.843h-1.531zm7.218,0l-6.312,17.343,1.375,0.5,6.5-17.843h-1.563z" />
</svg>