<svg xmlns="http://www.w3.org/2000/svg">
    <path id="scattered_clouds_fog" d="M33.125,21.844c-2.855,0-5.477,0.915-7.625,2.468h15.25c-2.137-1.553-4.777-2.468-7.625-2.468zm-10.063,4.75c-0.625,0.757-1.182,1.582-1.624,2.468h23.312c-0.444-0.889-0.969-1.709-1.594-2.468h-20.094zm-2.5,4.75c-0.225,0.799-0.368,1.615-0.437,2.468h35.094c-1.615-1.044-3.527-1.656-5.594-1.656-1.289,0-2.523,0.258-3.656,0.688-0.083-0.522-0.202-1.001-0.344-1.5h-25.063zm-4.093,4.75c-1.125,0.571-2.075,1.411-2.75,2.468h45.469c-0.368-0.895-0.846-1.72-1.438-2.468h-41.281zm-3.688,4.75c-0.106,0.484-0.156,0.984-0.156,1.5v0.156c-0.555-0.166-1.112-0.312-1.719-0.312-1.3016,0-2.5151,0.423-3.4998,1.124h52.532c0.021-0.274,0.031-0.532,0.031-0.812,0-0.565-0.069-1.116-0.157-1.656h-47.031zm-7.3122,4.75c-0.3667,0.752-0.5714,1.581-0.5938,2.468h53.437c0.492-0.762,0.879-1.585,1.157-2.468h-54zm-0.125,4.75c0.9142,1.759,3.0657,2.468,5.5622,2.468h38.719c2.563,0,4.913-0.925,6.719-2.468h-51zm67.718,2.344c-2.347,0-4.514,0.754-6.281,2.031h12.563c-1.757-1.277-3.939-2.031-6.282-2.031zm-8.281,3.906c-0.514,0.623-0.948,1.302-1.312,2.031h19.156c-0.365-0.731-0.798-1.407-1.313-2.031h-16.531zm-2.031,3.906c-0.186,0.657-0.318,1.329-0.375,2.031h28.875c-1.328-0.859-2.925-1.343-4.625-1.343-1.06,0-2.068,0.209-3,0.562-0.068-0.429-0.165-0.839-0.281-1.25h-20.594zm-3.375,3.906c-0.924,0.47-1.695,1.162-2.25,2.032h37.375c-0.303-0.737-0.701-1.416-1.188-2.032h-33.937zm-3.031,3.906c-0.087,0.399-0.125,0.827-0.125,1.25v0.126c-0.457-0.137-0.939-0.25-1.438-0.25-1.07,0-2.065,0.329-2.875,0.906h43.188c0.017-0.226,0.031-0.426,0.031-0.656,0-0.465-0.053-0.932-0.125-1.376h-38.656zm-6,3.907c-0.302,0.618-0.482,1.301-0.5,2.031h43.937c0.405-0.627,0.709-1.305,0.938-2.031h-44.375zm-0.125,3.906c0.752,1.447,2.509,2.031,4.562,2.031h31.844c2.107,0,4.047-0.762,5.531-2.031h-41.937z" />
</svg>