<svg xmlns="http://www.w3.org/2000/svg">
    <path id="shower_spells" d="m73.078,1.875,0,8.5312,2.2188,0,0-8.5312-2.2188,0zm-9.875,2.4062-1.875,1.2188,4.5,7.2188,1.9062-1.1875-4.5312-7.25zm22.125,0.25-4.125,7.4375,1.9375,1.0938,4.125-7.4688-1.9375-1.0625zm-31.844,8.125-1.0625,1.9375,7.4062,4.1562,1.0938-1.9688-7.4375-4.125zm20.719,0.3125c-7.625,0-13.812,6.224-13.812,13.875,0,7.65,6.1875,13.845,13.812,13.844,7.619,0,13.781-6.1928,13.781-13.844,0-7.65-6.1622-13.875-13.781-13.875zm20.875,0.28125-7.375,4.25,1.125,1.9688,7.375-4.2812-1.125-1.9375zm-45.906,11.812,0,2.25,8.5,0,0-2.25-8.5,0zm41.5,0.15625,0,2.2188,8.5,0,0-2.2188-8.5,0zm-31.812,7.8125-7.1875,4.5312,1.1562,1.9062,7.2188-4.5312-1.1875-1.9062zm30.25,0.5-1.0625,1.9688,7.4062,4.125,1.0938-1.9688-7.4375-4.125zm-54.094,3.5625c-8.8406,0-15.952,7.0403-16.469,15.75-4.3198,0.41518-7.666,3.6658-8.4375,7.875-0.25345-0.02661-0.4506-0.125-0.71875-0.125-4.6961,0-8.5625,3.8389-8.5625,8.5312,0,2.3476,1.108,4.3341,2.75,5.4375,1.6436,1.1041,3.6939,1.4688,5.8125,1.4688h21.812,11.875,10.938c7.4348,0,13.5-6.0639,13.5-13.5s-6.0638-13.5-13.5-13.5c-1.1286,0-2.1604,0.29785-3.1875,0.5625-1.8785-7.1211-8.1131-12.5-15.812-12.5zm0,3.1875c6.7262,0,12.201,4.9699,13.219,11.406l0.3125,1.9375,1.8438-0.75c1.1552-0.43828,2.3578-0.65625,3.625-0.65625,5.7208,0,10.344,4.5931,10.344,10.312,0,5.7208-4.6229,10.312-10.344,10.312h-10.938-11.875-21.812c-1.7188,0-3.1608-0.35219-4.0312-0.9375-0.8702-0.58322-1.3438-1.2907-1.3438-2.7812,0-2.9749,2.3959-5.3438,5.375-5.3438,0.49359,0,0.94969,0.08547,1.5,0.25l2.0938,0.625v-2.125c0-0.09802-0.0576-0.10094-0.0625-0.15625,0-0.08962-0.008-0.1047,0-0.125-0.001-0.0084,0.001-0.02845,0-0.03125,0.0833-3.5413,2.9391-6.375,6.5-6.375-0.0518,0,0.14013,0.0373,0.5,0.0625l1.75,0.09375-0.0625-1.75c-0.01274-0.28261-0.06568-0.42474-0.09375-0.46875,0-0.02538-0.0087-0.03558,0-0.03125,0.01709-7.4384,6.052-13.469,13.5-13.469zm48.438,0.0625-1.9062,1.125,4.25,7.375,1.9062-1.125-4.25-7.375zm-18.562,0.0625-4.125,7.4375,1.9688,1.0938,4.125-7.4688-1.9688-1.0625zm8.0625,2.9375,0,8.5312,2.2188,0,0-8.5312-2.2188,0zm-57.344,36.938-6.3438,17.344,1.375,0.5,6.5-17.844-1.5312,0zm12.031,0-6.3125,17.344,1.3438,0.5,6.5-17.844-1.5312,0zm12.062,0-6.3125,17.344,1.3438,0.5,6.5-17.844-1.5312,0zm12.031,0-6.2812,17.344,1.3438,0.5,6.5-17.844-1.5625,0z" />
</svg>