<svg xmlns="http://www.w3.org/2000/svg">
    <!-- https://www.flaticon.com/free-icon/sleet_727808 -->
    <g id="sleet" transform="scale(0.2)">
        <g>
            <g>
                <path d="M412.864,144.032C397.952,70.016,333.088,16,256,16c-64.032,0-121.504,38.112-146.688,96.032
                    C48.8,113.472,0,163.136,0,224c0,61.76,50.24,112,112,112h304c52.928,0,96-43.072,96-96C512,186.016,468.8,142.88,412.864,144.032
                    z M416,304H112c-44.096,0-80-35.872-80-80c0-44.096,35.904-80,80-80c1.28,0,3.392,0,4.128,0.16
                    c8.096,2.08,16.288-2.432,19.008-10.272C152.928,82.528,201.504,48,256,48c66.016,0,120.8,49.536,127.456,115.232
                    c0.416,4.448,2.72,8.512,6.304,11.2c3.584,2.656,8.16,3.68,12.544,2.912c4.192-0.8,8.992-1.344,13.696-1.344
                    c35.296,0,64,28.704,64,64C480,275.296,451.296,304,416,304z" />
            </g>
        </g>
        <g>
            <g>
                <path d="M157.152,374.912c-5.984-8.64-20.32-8.64-26.336,0C120.352,390.048,96,427.552,96,448c0,26.464,21.536,48,48,48
                    s48-21.536,48-48C192,427.552,167.648,390.048,157.152,374.912z M144,464c-8.832,0-16-7.2-16-15.968
                    c0.128-4.896,6.784-18.848,16-34.368c9.216,15.52,15.872,29.44,16,34.336C160,456.8,152.8,464,144,464z" />
            </g>
        </g>
        <g>
            <g>
                <path d="M336,368c-8.832,0-16,7.168-16,16v96c0,8.832,7.168,16,16,16c8.832,0,16-7.168,16-16v-96C352,375.168,344.832,368,336,368
                    z" />
            </g>
        </g>
        <g>
            <g>
                <path d="M385.6,442.144l-83.136-48c-7.648-4.384-17.44-1.792-21.856,5.856c-4.448,7.648-1.824,17.44,5.824,21.856l83.136,48
                    c2.528,1.472,5.28,2.144,8,2.144c5.504,0,10.912-2.88,13.888-8C395.872,456.32,393.248,446.56,385.6,442.144z" />
            </g>
        </g>
        <g>
            <g>
                <path d="M391.424,400c-4.416-7.712-14.24-10.304-21.856-5.856l-83.136,48c-7.68,4.416-10.304,14.208-5.856,21.856
                    c2.944,5.12,8.352,8,13.856,8c2.72,0,5.472-0.672,8-2.144l83.136-48C393.248,417.44,395.872,407.648,391.424,400z" />
            </g>
        </g>
    </g>
</svg>