<svg xmlns="http://www.w3.org/2000/svg">
    <path id="snow" d="m42.732,50.287,3.955,5.841,7.365,0,3.398-5.841-3.58-6.22-7.379,0zm3.033,46.974,0-13.207-7.379,4.15-3.759-2.152,0-4.653,10.943-6.22,0-8.68-7.939,5.102,0-9.196-7.589,4.374,0,12.468-4.151,2.572-3.508-2.321,0-8.356-11.518,6.498-4.919-2.07,0-5.27,12.089-6.609-7.561-3.801,0-4.822,4.291-2.349,10.845,6.386,7.533-4.346-0.182-0.139-7.701-4.417,7.477-4.64-7.505-4.346-10.844,6.372-4.068-2.026,0-4.808,7.339-4.123-11.713-6.36,0-5.269,4.5-2.319,11.544,6.666,0-8.497,3.48-2.348,4.264,2.46-0.028,12.718,7.756,4.43-0.027-8.986,8.134,4.375,0-8.68-10.943-6.233,0-4.612,3.759-2.18,7.379,4.151,0-13.18,4.222-2.768,4.261,2.768,0,13.18,7.646-4.235,3.845,2.544,0,4.151-11.322,6.414,0,8.68,7.744-4.724,0,9.448,7.979-4.348,0-13.598,3.844-1.789,4.038,1.789,0,8.694,11.879-6.416,4.153,2.53,0,4.919-11.601,6.597,7.254,4.066,0,4.697-3.76,2.083-11.138-6.583-7.702,4.892,7.449,4.642-7.673,4.416,7.926,4.15,11.138-6.221,3.578,2.53,0,4.487-6.988,3.927,11.126,6.61,0,5.188-4.71,2.152-10.931-6.221,0,8.232-3.927,2.194-3.843-2.194,0-12.496-8.092-4.611,0,8.68-7.744-4.725,0,8.68,10.944,6.22,0,4.92-3.776,1.886-7.337-4.15,0,13.207-4.26,2.738z" />
</svg>