<svg xmlns="http://www.w3.org/2000/svg">
    <path id="thundershower_rain" d="M51.312,3.5625c-13.094,0-23.718,10.63-23.718,23.718,0,0.296,0.08,0.548,0.094,0.844-0.296-0.02-0.58-0.063-0.876-0.063-7.044,0-12.75,5.706-12.75,12.75,0,0.088,0.032,0.164,0.032,0.25-1.008-0.302-2.054-0.5-3.156-0.5-6.0435,0-10.938,4.901-10.938,10.938,0,6.043,4.8945,8.312,10.938,8.312h70.312c10.358,0,18.75-8.39,18.75-18.75,0-10.358-8.391-18.75-18.75-18.75-2.34,0-4.568,0.502-6.625,1.282-1.788-11.321-11.495-20.032-23.313-20.032zm-4.593,58.656l-11.969,20.531h8.562l-6.843,13.688,20.531-20.532h-10.281l8.562-13.687h-8.562zm-23.25,3.781l-9.031,24.812,1.937,0.719,9.313-25.531h-2.219zm10.343,0l-9.031,24.812,1.938,0.719,9.281-25.531h-2.188zm30.969,0l-9.031,24.812,1.938,0.719,9.281-25.531h-2.188zm10.313,0l-9,24.812,1.937,0.719,9.281-25.531h-2.218z" />
</svg>