<svg xmlns="http://www.w3.org/2000/svg">
    <!-- https://www.flaticon.com/free-icon/hurricane_483553 -->
    <g id="tornado_hurricane" transform="scale(0.2)">
        <g>
            <g>
                <path d="M480,74.667c-5.896,0-10.667,4.771-10.667,10.667c0,9.389-9.651,19.767-26.585,29.161
                            c3.428-18.44,5.18-38.319,5.227-60.255c0.005-0.214-0.197-1.867-0.267-2.365c-0.151-1.758-0.268-3.529-0.854-5.219
                            C430.771,0.531,242.667,0,234.667,0C167.188,0,36,9.521,22.625,45.563c-0.914,2.462-1.289,5.043-1.263,7.628
                            c-0.001,0.051-0.029,0.092-0.029,0.143c0,22.552,20.125,39.969,43.438,60.146C94.396,139.135,128,168.219,128,213.333
                            c0,39.833-9.688,56.771-19.938,74.708c-10.68,18.708-21.604,38.281-22.548,79.728c-26.965-10.297-42.848-24.068-42.848-37.103
                            c0-11.219,12.271-23.281,33.688-33.104c5.354-2.458,7.688-8.792,5.229-14.146c-2.458-5.375-8.771-7.688-14.146-5.25
                            c-29.729,13.656-46.104,32.302-46.104,52.5c0,42.563,71.083,74.667,165.333,74.667S352,373.229,352,330.667
                            c0-8.344-2.813-16.521-8.375-24.323c-3.417-4.813-10.083-5.906-14.875-2.5c-4.792,3.417-5.917,10.083-2.5,14.875
                            c2.938,4.115,4.417,8.135,4.417,11.948c0,20.46-38.908,42.803-98.869,50.523c27.839-49.29,64.392-78.775,99.931-107.201
                            c31.063-24.833,60.375-48.281,82.229-83.135c2.313-3.708,2.146-8.469-0.458-11.99c-2.604-3.542-7.167-5.104-11.313-3.99
                            C359.917,186.083,309.375,192,256,192c-26.792,0-53.188-1.5-78.438-4.469c-5.833-0.688-10.021-6-9.333-11.844
                            c0.688-5.938,6.042-10.115,11.854-9.344c24.354,2.865,49.896,4.323,75.917,4.323c67.503,0,131.443-10.023,175.44-27.482
                            c0.036-0.005,0.087,0.069,0.122,0.055c48.854-19.396,59.104-42.198,59.104-57.906C490.667,79.438,485.896,74.667,480,74.667z
                            M234.667,64c-57.896,0-101.354-4.979-130.708-10.635c29.708-5.656,73.458-10.698,130.708-10.698
                            c57.896,0,101.354,4.979,130.708,10.635C335.667,58.958,291.917,64,234.667,64z" />
                <path d="M195.875,426.458l-9.208,0.208c-25.334,0-51.271-2.583-75.021-7.469c-3.958-0.833-8.125,0.708-10.604,3.958
                            c-2.5,3.25-2.917,7.635-1.063,11.292c25.354,50.354,74.5,75.385,76.583,76.427c1.5,0.75,3.146,1.125,4.771,1.125
                            c1.688,0,3.354-0.396,4.896-1.188c3.042-1.573,5.125-4.49,5.646-7.854c3.375-21.906,8.083-42.396,14.438-62.646
                            c1.021-3.281,0.396-6.854-1.667-9.604C202.563,427.958,198.979,426.292,195.875,426.458z" />
            </g>
        </g>
    </g>
</svg>