<svg xmlns="http://www.w3.org/2000/svg">
    <path id="very_hot" d="m50,3.7812c-2.2361,0.056002-4.2425,0.82896-5.8125,2.125-1.9601,1.617-3.2188,4.0236-3.2188,6.8438v55.812c-3.9221,2.9471-6.232,7.4064-6.25,12.281-0.016,6.4612,3.9266,11.869,9.4688,14.156,1.794,0.74102,3.7292,1.1765,5.7812,1.1875,1.8471,0.011,3.627-0.30923,5.25-0.90625,5.8592-2.1361,9.957-7.8234,10.062-14.156,0.08-4.9631-2.2279-9.5449-6.25-12.562v-56.219c0-2.9791-1.5174-5.4546-3.8125-6.9688-1.478-0.9772-3.295-1.5438-5.218-1.593zm0,4c1.0714,0.027299,2.0824,0.33013,2.9062,0.875,1.2786,0.84349,2.125,2.2466,2.125,3.9062v18.75,30.562,8.9375c3.7066,1.8491,6.25,5.6698,6.25,10.094,0,6.2312-5.0504,11.281-11.281,11.281-6.2312,0-11.281-5.0504-11.281-11.281,0-4.4238,2.5434-8.2444,6.25-10.094v-8.9375-30.344-18.75c0-1.5711,0.68933-2.9116,1.7812-3.8125,0.87469-0.72204,2.0043-1.1563,3.25-1.1875zm-3.0312,10.094,0,54.25c-3.6353,1.2579-6.25,4.7182-6.25,8.7812,0,5.1266,4.1548,9.2812,9.2812,9.2812,5.1266,0,9.2812-4.1548,9.2812-9.2812,0-4.0631-2.6147-7.5234-6.25-8.7812v-54.25z" />
</svg>