<svg xmlns="http://www.w3.org/2000/svg">


    <!-- https://www.flaticon.com/free-icon/volcano_1092931 -->
    <g id="volcano" transform="scale(0.2)">
        <path d="M 319.875 64.1875 C 319.875 52.414062 329.417969 42.871094 341.191406 42.871094 C 352.960938 42.871094 362.5 52.414062 362.5 64.1875 L 405.128906 64.1875 C 405.128906 28.875 376.5 0.25 341.191406 0.25 C 305.878906 0.25 277.253906 28.875 277.253906 64.1875 L 277.253906 170.746094 L 319.875 170.746094 Z M 319.875 64.1875 " style=" stroke:none;fill-rule:nonzero;fill:rgb(0%,0%,0%);fill-opacity:1;" />
        <path d="M 170.691406 85.5 C 182.460938 85.5 192 95.039062 192 106.808594 L 192 149.4375 L 234.628906 149.4375 L 234.628906 106.808594 C 234.628906 71.5 206.003906 42.871094 170.691406 42.871094 C 135.375 42.871094 106.753906 71.5 106.753906 106.808594 L 149.378906 106.808594 C 149.378906 95.039062 158.917969 85.5 170.691406 85.5 Z M 170.691406 85.5 " style=" stroke:none;fill-rule:nonzero;fill:rgb(0%,0%,0%);fill-opacity:1;" />
        <path d="M 383.8125 128.125 C 383.8125 139.894531 374.273438 149.4375 362.5 149.4375 C 350.730469 149.4375 341.191406 139.894531 341.191406 128.125 C 341.191406 116.351562 350.730469 106.808594 362.5 106.808594 C 374.273438 106.808594 383.8125 116.351562 383.8125 128.125 Z M 383.8125 128.125 " style=" stroke:none;fill-rule:nonzero;fill:rgb(0%,0%,0%);fill-opacity:1;" />
        <path d="M 255.9375 21.5625 C 255.9375 33.332031 246.398438 42.871094 234.628906 42.871094 C 222.855469 42.871094 213.316406 33.332031 213.316406 21.5625 C 213.316406 9.792969 222.855469 0.25 234.628906 0.25 C 246.398438 0.25 255.9375 9.792969 255.9375 21.5625 Z M 255.9375 21.5625 " style=" stroke:none;fill-rule:nonzero;fill:rgb(0%,0%,0%);fill-opacity:1;" />
        <path d="M 149.378906 192.0625 C 149.378906 203.832031 139.835938 213.375 128.0625 213.375 C 116.292969 213.375 106.753906 203.832031 106.753906 192.0625 C 106.753906 180.289062 116.292969 170.746094 128.0625 170.746094 C 139.835938 170.746094 149.378906 180.289062 149.378906 192.0625 Z M 149.378906 192.0625 " style=" stroke:none;fill-rule:nonzero;fill:rgb(0%,0%,0%);fill-opacity:1;" />
        <path d="M 447.75 234.683594 C 447.75 246.457031 438.210938 256 426.4375 256 C 414.667969 256 405.128906 246.457031 405.128906 234.683594 C 405.128906 222.914062 414.667969 213.375 426.4375 213.375 C 438.210938 213.375 447.75 222.914062 447.75 234.683594 Z M 447.75 234.683594 " style=" stroke:none;fill-rule:nonzero;fill:rgb(0%,0%,0%);fill-opacity:1;" />
        <path d="M 319.511719 209.558594 C 317.671875 199.433594 308.855469 192.070312 298.5625 192.0625 L 213.316406 192.0625 C 203.019531 192.070312 194.207031 199.433594 192.363281 209.558594 C 152.871094 426.6875 5.667969 510.105469 0.1875 511.75 L 511.6875 511.75 C 510.347656 511.34375 359.324219 428.417969 319.511719 209.558594 Z M 211.054688 304.398438 C 219.210938 281.636719 225.8125 258.34375 230.808594 234.683594 L 281.089844 234.683594 C 283.496094 245.769531 286.289062 256.851562 289.613281 268.402344 C 265.148438 283.835938 238.734375 295.941406 211.074219 304.398438 Z M 211.054688 304.398438 " style=" stroke:none;fill-rule:nonzero;fill:rgb(0%,0%,0%);fill-opacity:1;" />
    </g>
</svg>